%TF.GenerationSoftware,KiCad,Pcbnew,5.1.6-c6e7f7d~87~ubuntu20.04.1*%
%TF.CreationDate,2020-08-13T14:06:16+02:00*%
%TF.ProjectId,maithoga_lcd_board_480x320_R61529,6d616974-686f-4676-915f-6c63645f626f,V1.0*%
%TF.SameCoordinates,Original*%
%TF.FileFunction,Legend,Top*%
%TF.FilePolarity,Positive*%
%FSLAX46Y46*%
G04 Gerber Fmt 4.6, Leading zero omitted, Abs format (unit mm)*
G04 Created by KiCad (PCBNEW 5.1.6-c6e7f7d~87~ubuntu20.04.1) date 2020-08-13 14:06:16*
%MOMM*%
%LPD*%
G01*
G04 APERTURE LIST*
%ADD10C,0.381000*%
%ADD11C,0.120000*%
%ADD12C,0.150000*%
%ADD13C,0.127000*%
%ADD14C,0.305000*%
%ADD15C,0.254000*%
%ADD16C,0.250000*%
G04 APERTURE END LIST*
D10*
%TO.C,DIS1*%
X157905001Y-109010001D02*
X156755001Y-109010001D01*
X172045001Y-110609481D02*
X172045001Y-111230001D01*
X172045001Y-110609481D02*
X157165001Y-110609481D01*
X156755001Y-112419561D02*
X156755001Y-109009481D01*
X172455001Y-109009481D02*
X172455001Y-112419561D01*
X172455001Y-109009481D02*
X171305001Y-109008961D01*
X157165001Y-110609481D02*
X157165001Y-111230001D01*
D11*
X101790001Y-64160001D02*
X102940001Y-64160001D01*
X101790001Y-117510001D02*
X101790001Y-118660001D01*
X102940001Y-118660001D02*
X101790001Y-118660001D01*
X186740001Y-65310001D02*
X186740001Y-64160001D01*
X185590001Y-64160001D02*
X186740001Y-64160001D01*
X186740001Y-118660001D02*
X186740001Y-117510001D01*
X185590001Y-118660001D02*
X186740001Y-118660001D01*
X101790001Y-64160001D02*
X101790001Y-65310001D01*
D12*
X168540001Y-80915001D02*
X168090001Y-80915001D01*
X164565001Y-80415001D02*
X164480001Y-80415001D01*
X168540001Y-80415001D02*
X168540001Y-80915001D01*
X168540001Y-86415001D02*
X168090001Y-86415001D01*
X169140001Y-86915001D02*
X168540001Y-86915001D01*
X164480001Y-86915001D02*
X164480001Y-85265001D01*
X164480001Y-80415001D02*
X164480001Y-82065001D01*
X168540001Y-80415001D02*
X167005001Y-80415001D01*
X168540001Y-86915001D02*
X168540001Y-86415001D01*
X169140001Y-86915001D02*
X169140001Y-80415001D01*
X168540001Y-86915001D02*
X167025001Y-86915001D01*
X168090001Y-80915001D02*
X168090001Y-86415001D01*
X169140001Y-80415001D02*
X168540001Y-80415001D01*
X164565001Y-86915001D02*
X164480001Y-86915001D01*
D13*
%TO.C,D1*%
X163025360Y-107184660D02*
X161074640Y-107184660D01*
X161074640Y-107184660D02*
X161074640Y-105858780D01*
X163025360Y-107184660D02*
X163025360Y-105858780D01*
X163025360Y-103735340D02*
X163025360Y-105061220D01*
X161074640Y-103735340D02*
X161074640Y-105061220D01*
X163025360Y-103735340D02*
X161074640Y-103735340D01*
X162649440Y-105610800D02*
X161450560Y-105610800D01*
X162649440Y-105834320D02*
X162649440Y-105034220D01*
X162649440Y-105034220D02*
X161450560Y-105034220D01*
X161450560Y-105034220D02*
X161450560Y-105834320D01*
X161450560Y-105834320D02*
X162649440Y-105834320D01*
X162646900Y-105826700D02*
X161453100Y-105826700D01*
D12*
%TO.C,C2*%
X157505000Y-101415000D02*
X157505000Y-100715000D01*
X157505000Y-100715000D02*
X156305000Y-100715000D01*
X156305000Y-100715000D02*
X156305000Y-101415000D01*
X157505000Y-102315000D02*
X157505000Y-103015000D01*
X157505000Y-103015000D02*
X156305000Y-103015000D01*
X156305000Y-103015000D02*
X156305000Y-102315000D01*
%TO.C,C3*%
X155235000Y-110840000D02*
X155235000Y-111540000D01*
X155235000Y-111540000D02*
X156435000Y-111540000D01*
X156435000Y-111540000D02*
X156435000Y-110840000D01*
X155235000Y-109940000D02*
X155235000Y-109240000D01*
X155235000Y-109240000D02*
X156435000Y-109240000D01*
X156435000Y-109240000D02*
X156435000Y-109940000D01*
D14*
%TO.C,D2*%
X154955000Y-109990000D02*
X152655000Y-109990000D01*
X154955000Y-112155000D02*
X154955000Y-106555000D01*
X154955000Y-106555000D02*
X152555000Y-106555000D01*
X152555000Y-106555000D02*
X152555000Y-112155000D01*
X152555000Y-112155000D02*
X154955000Y-112155000D01*
D11*
%TO.C,L1*%
X152665000Y-104063748D02*
X152665000Y-104586252D01*
X154885000Y-104063748D02*
X154885000Y-104586252D01*
D12*
%TO.C,R4*%
X160620000Y-106130000D02*
X160620000Y-105430000D01*
X160620000Y-105430000D02*
X159420000Y-105430000D01*
X159420000Y-105430000D02*
X159420000Y-106130000D01*
X160620000Y-107030000D02*
X160620000Y-107730000D01*
X160620000Y-107730000D02*
X159420000Y-107730000D01*
X159420000Y-107730000D02*
X159420000Y-107030000D01*
%TO.C,U2*%
X156075000Y-105615000D02*
X156625000Y-106165000D01*
X156025000Y-105715000D02*
X156475000Y-106165000D01*
X156025000Y-105815000D02*
X156375000Y-106165000D01*
X156025000Y-105965000D02*
X156225000Y-106165000D01*
X159125000Y-104440000D02*
X156025000Y-104440000D01*
X156025000Y-104440000D02*
X156025000Y-106190000D01*
X156025000Y-106190000D02*
X159125000Y-106190000D01*
X159125000Y-106190000D02*
X159125000Y-104440000D01*
%TO.C,P2*%
X147380000Y-69760000D02*
X145080000Y-69760000D01*
X145080000Y-69760000D02*
X145080000Y-70160000D01*
X145080000Y-70160000D02*
X144980000Y-70160000D01*
X124980000Y-70160000D02*
X124880000Y-70160000D01*
X124880000Y-70160000D02*
X124880000Y-69760000D01*
X124880000Y-69760000D02*
X122580000Y-69760000D01*
X147680000Y-69760000D02*
X147680000Y-66960000D01*
X144780000Y-66960000D02*
X144780000Y-67660000D01*
X122280000Y-66960000D02*
X122280000Y-69760000D01*
X125180000Y-67660000D02*
X125180000Y-66960000D01*
X125180000Y-67660000D02*
X144780000Y-67660000D01*
X144780000Y-67660000D02*
X144780000Y-68460000D01*
X144780000Y-68460000D02*
X125180000Y-68460000D01*
X125180000Y-68460000D02*
X125180000Y-67660000D01*
X144780000Y-67560000D02*
X125180000Y-67560000D01*
X125180000Y-67460000D02*
X144780000Y-67460000D01*
X144780000Y-66910000D02*
X125180000Y-66910000D01*
X122580000Y-69760000D02*
X122280000Y-69760000D01*
X122280000Y-66960000D02*
X122280000Y-66810000D01*
X122280000Y-66810000D02*
X122280000Y-66760000D01*
X122280000Y-66760000D02*
X147680000Y-66760000D01*
X147680000Y-66760000D02*
X147680000Y-66960000D01*
X144780000Y-67060000D02*
X144780000Y-66760000D01*
X125180000Y-67010000D02*
X125180000Y-66810000D01*
X147680000Y-69760000D02*
X147380000Y-69760000D01*
%TO.C,P1*%
X115800000Y-72240000D02*
G75*
G03*
X115800000Y-72240000I-635000J0D01*
G01*
X115800000Y-74780000D02*
G75*
G03*
X115800000Y-74780000I-635000J0D01*
G01*
X115800000Y-77320000D02*
G75*
G03*
X115800000Y-77320000I-635000J0D01*
G01*
X115800000Y-79860000D02*
G75*
G03*
X115800000Y-79860000I-635000J0D01*
G01*
X115800000Y-67160000D02*
G75*
G03*
X115800000Y-67160000I-635000J0D01*
G01*
X115800000Y-69700000D02*
G75*
G03*
X115800000Y-69700000I-635000J0D01*
G01*
X115800000Y-115420000D02*
G75*
G03*
X115800000Y-115420000I-635000J0D01*
G01*
X115800000Y-112880000D02*
G75*
G03*
X115800000Y-112880000I-635000J0D01*
G01*
X115800000Y-110340000D02*
G75*
G03*
X115800000Y-110340000I-635000J0D01*
G01*
X115800000Y-97640000D02*
G75*
G03*
X115800000Y-97640000I-635000J0D01*
G01*
X115800000Y-95100000D02*
G75*
G03*
X115800000Y-95100000I-635000J0D01*
G01*
X115800000Y-107800000D02*
G75*
G03*
X115800000Y-107800000I-635000J0D01*
G01*
X115800000Y-105260000D02*
G75*
G03*
X115800000Y-105260000I-635000J0D01*
G01*
X115800000Y-102720000D02*
G75*
G03*
X115800000Y-102720000I-635000J0D01*
G01*
X115800000Y-100180000D02*
G75*
G03*
X115800000Y-100180000I-635000J0D01*
G01*
X115800000Y-82400000D02*
G75*
G03*
X115800000Y-82400000I-635000J0D01*
G01*
X115800000Y-84940000D02*
G75*
G03*
X115800000Y-84940000I-635000J0D01*
G01*
X115800000Y-87480000D02*
G75*
G03*
X115800000Y-87480000I-635000J0D01*
G01*
X115800000Y-92560000D02*
G75*
G03*
X115800000Y-92560000I-635000J0D01*
G01*
X115800000Y-90020000D02*
G75*
G03*
X115800000Y-90020000I-635000J0D01*
G01*
X113260000Y-115420000D02*
G75*
G03*
X113260000Y-115420000I-635000J0D01*
G01*
X113260000Y-112880000D02*
G75*
G03*
X113260000Y-112880000I-635000J0D01*
G01*
X113260000Y-110340000D02*
G75*
G03*
X113260000Y-110340000I-635000J0D01*
G01*
X113260000Y-107800000D02*
G75*
G03*
X113260000Y-107800000I-635000J0D01*
G01*
X113260000Y-105260000D02*
G75*
G03*
X113260000Y-105260000I-635000J0D01*
G01*
X113260000Y-102720000D02*
G75*
G03*
X113260000Y-102720000I-635000J0D01*
G01*
X113260000Y-100180000D02*
G75*
G03*
X113260000Y-100180000I-635000J0D01*
G01*
X113260000Y-97640000D02*
G75*
G03*
X113260000Y-97640000I-635000J0D01*
G01*
X113260000Y-95100000D02*
G75*
G03*
X113260000Y-95100000I-635000J0D01*
G01*
X113260000Y-92560000D02*
G75*
G03*
X113260000Y-92560000I-635000J0D01*
G01*
X113260000Y-90020000D02*
G75*
G03*
X113260000Y-90020000I-635000J0D01*
G01*
X113260000Y-87480000D02*
G75*
G03*
X113260000Y-87480000I-635000J0D01*
G01*
X113260000Y-84940000D02*
G75*
G03*
X113260000Y-84940000I-635000J0D01*
G01*
X113260000Y-82400000D02*
G75*
G03*
X113260000Y-82400000I-635000J0D01*
G01*
X113260000Y-79860000D02*
G75*
G03*
X113260000Y-79860000I-635000J0D01*
G01*
X113260000Y-77320000D02*
G75*
G03*
X113260000Y-77320000I-635000J0D01*
G01*
X113260000Y-74780000D02*
G75*
G03*
X113260000Y-74780000I-635000J0D01*
G01*
X113260000Y-72240000D02*
G75*
G03*
X113260000Y-72240000I-635000J0D01*
G01*
X113260000Y-69700000D02*
G75*
G03*
X113260000Y-69700000I-635000J0D01*
G01*
X113260000Y-67160000D02*
G75*
G03*
X113260000Y-67160000I-635000J0D01*
G01*
X110085000Y-65890000D02*
X110085000Y-65255000D01*
X110085000Y-65255000D02*
X117705000Y-65255000D01*
X117705000Y-65255000D02*
X117705000Y-65890000D01*
X110085000Y-116690000D02*
X110085000Y-117325000D01*
X110085000Y-117325000D02*
X117705000Y-117325000D01*
X117705000Y-117325000D02*
X117705000Y-116690000D01*
%TO.C,R5*%
X170970000Y-100450000D02*
X170970000Y-101150000D01*
X169770000Y-100450000D02*
X170970000Y-100450000D01*
X169770000Y-101150000D02*
X169770000Y-100450000D01*
X170970000Y-102750000D02*
X170970000Y-102050000D01*
X169770000Y-102750000D02*
X170970000Y-102750000D01*
X169770000Y-102050000D02*
X169770000Y-102750000D01*
%TO.C,R6*%
X171155000Y-102050000D02*
X171155000Y-102750000D01*
X171155000Y-102750000D02*
X172355000Y-102750000D01*
X172355000Y-102750000D02*
X172355000Y-102050000D01*
X171155000Y-101150000D02*
X171155000Y-100450000D01*
X171155000Y-100450000D02*
X172355000Y-100450000D01*
X172355000Y-100450000D02*
X172355000Y-101150000D01*
%TO.C,R7*%
X172540000Y-102050000D02*
X172540000Y-102750000D01*
X172540000Y-102750000D02*
X173740000Y-102750000D01*
X173740000Y-102750000D02*
X173740000Y-102050000D01*
X172540000Y-101150000D02*
X172540000Y-100450000D01*
X172540000Y-100450000D02*
X173740000Y-100450000D01*
X173740000Y-100450000D02*
X173740000Y-101150000D01*
%TO.C,R8*%
X173740000Y-102930000D02*
X173740000Y-103630000D01*
X172540000Y-102930000D02*
X173740000Y-102930000D01*
X172540000Y-103630000D02*
X172540000Y-102930000D01*
X173740000Y-105230000D02*
X173740000Y-104530000D01*
X172540000Y-105230000D02*
X173740000Y-105230000D01*
X172540000Y-104530000D02*
X172540000Y-105230000D01*
%TO.C,R9*%
X171155000Y-104525000D02*
X171155000Y-105225000D01*
X171155000Y-105225000D02*
X172355000Y-105225000D01*
X172355000Y-105225000D02*
X172355000Y-104525000D01*
X171155000Y-103625000D02*
X171155000Y-102925000D01*
X171155000Y-102925000D02*
X172355000Y-102925000D01*
X172355000Y-102925000D02*
X172355000Y-103625000D01*
%TO.C,R10*%
X170975000Y-102930000D02*
X170975000Y-103630000D01*
X169775000Y-102930000D02*
X170975000Y-102930000D01*
X169775000Y-103630000D02*
X169775000Y-102930000D01*
X170975000Y-105230000D02*
X170975000Y-104530000D01*
X169775000Y-105230000D02*
X170975000Y-105230000D01*
X169775000Y-104530000D02*
X169775000Y-105230000D01*
%TO.C,DIS1*%
D15*
X142390477Y-93774524D02*
X142390477Y-92504524D01*
X142692858Y-92504524D01*
X142874286Y-92565001D01*
X142995239Y-92685953D01*
X143055715Y-92806905D01*
X143116191Y-93048810D01*
X143116191Y-93230239D01*
X143055715Y-93472143D01*
X142995239Y-93593096D01*
X142874286Y-93714048D01*
X142692858Y-93774524D01*
X142390477Y-93774524D01*
X143660477Y-93774524D02*
X143660477Y-92504524D01*
X144204762Y-93714048D02*
X144386191Y-93774524D01*
X144688572Y-93774524D01*
X144809524Y-93714048D01*
X144870001Y-93653572D01*
X144930477Y-93532620D01*
X144930477Y-93411667D01*
X144870001Y-93290715D01*
X144809524Y-93230239D01*
X144688572Y-93169762D01*
X144446667Y-93109286D01*
X144325715Y-93048810D01*
X144265239Y-92988334D01*
X144204762Y-92867381D01*
X144204762Y-92746429D01*
X144265239Y-92625477D01*
X144325715Y-92565001D01*
X144446667Y-92504524D01*
X144749048Y-92504524D01*
X144930477Y-92565001D01*
X146140001Y-93774524D02*
X145414286Y-93774524D01*
X145777143Y-93774524D02*
X145777143Y-92504524D01*
X145656191Y-92685953D01*
X145535239Y-92806905D01*
X145414286Y-92867381D01*
%TO.C,D1*%
D16*
X161336904Y-103477380D02*
X161336904Y-102477380D01*
X161575000Y-102477380D01*
X161717857Y-102525000D01*
X161813095Y-102620238D01*
X161860714Y-102715476D01*
X161908333Y-102905952D01*
X161908333Y-103048809D01*
X161860714Y-103239285D01*
X161813095Y-103334523D01*
X161717857Y-103429761D01*
X161575000Y-103477380D01*
X161336904Y-103477380D01*
X162860714Y-103477380D02*
X162289285Y-103477380D01*
X162575000Y-103477380D02*
X162575000Y-102477380D01*
X162479761Y-102620238D01*
X162384523Y-102715476D01*
X162289285Y-102763095D01*
%TO.C,C2*%
X155063333Y-101912142D02*
X155015714Y-101959761D01*
X154872857Y-102007380D01*
X154777619Y-102007380D01*
X154634761Y-101959761D01*
X154539523Y-101864523D01*
X154491904Y-101769285D01*
X154444285Y-101578809D01*
X154444285Y-101435952D01*
X154491904Y-101245476D01*
X154539523Y-101150238D01*
X154634761Y-101055000D01*
X154777619Y-101007380D01*
X154872857Y-101007380D01*
X155015714Y-101055000D01*
X155063333Y-101102619D01*
X155444285Y-101102619D02*
X155491904Y-101055000D01*
X155587142Y-101007380D01*
X155825238Y-101007380D01*
X155920476Y-101055000D01*
X155968095Y-101102619D01*
X156015714Y-101197857D01*
X156015714Y-101293095D01*
X155968095Y-101435952D01*
X155396666Y-102007380D01*
X156015714Y-102007380D01*
%TO.C,C3*%
X156013333Y-108547142D02*
X155965714Y-108594761D01*
X155822857Y-108642380D01*
X155727619Y-108642380D01*
X155584761Y-108594761D01*
X155489523Y-108499523D01*
X155441904Y-108404285D01*
X155394285Y-108213809D01*
X155394285Y-108070952D01*
X155441904Y-107880476D01*
X155489523Y-107785238D01*
X155584761Y-107690000D01*
X155727619Y-107642380D01*
X155822857Y-107642380D01*
X155965714Y-107690000D01*
X156013333Y-107737619D01*
X156346666Y-107642380D02*
X156965714Y-107642380D01*
X156632380Y-108023333D01*
X156775238Y-108023333D01*
X156870476Y-108070952D01*
X156918095Y-108118571D01*
X156965714Y-108213809D01*
X156965714Y-108451904D01*
X156918095Y-108547142D01*
X156870476Y-108594761D01*
X156775238Y-108642380D01*
X156489523Y-108642380D01*
X156394285Y-108594761D01*
X156346666Y-108547142D01*
%TO.C,D2*%
X150661904Y-107552380D02*
X150661904Y-106552380D01*
X150900000Y-106552380D01*
X151042857Y-106600000D01*
X151138095Y-106695238D01*
X151185714Y-106790476D01*
X151233333Y-106980952D01*
X151233333Y-107123809D01*
X151185714Y-107314285D01*
X151138095Y-107409523D01*
X151042857Y-107504761D01*
X150900000Y-107552380D01*
X150661904Y-107552380D01*
X151614285Y-106647619D02*
X151661904Y-106600000D01*
X151757142Y-106552380D01*
X151995238Y-106552380D01*
X152090476Y-106600000D01*
X152138095Y-106647619D01*
X152185714Y-106742857D01*
X152185714Y-106838095D01*
X152138095Y-106980952D01*
X151566666Y-107552380D01*
X152185714Y-107552380D01*
%TO.C,L1*%
X151358333Y-104162380D02*
X150882142Y-104162380D01*
X150882142Y-103162380D01*
X152215476Y-104162380D02*
X151644047Y-104162380D01*
X151929761Y-104162380D02*
X151929761Y-103162380D01*
X151834523Y-103305238D01*
X151739285Y-103400476D01*
X151644047Y-103448095D01*
%TO.C,R4*%
X161528333Y-108517380D02*
X161195000Y-108041190D01*
X160956904Y-108517380D02*
X160956904Y-107517380D01*
X161337857Y-107517380D01*
X161433095Y-107565000D01*
X161480714Y-107612619D01*
X161528333Y-107707857D01*
X161528333Y-107850714D01*
X161480714Y-107945952D01*
X161433095Y-107993571D01*
X161337857Y-108041190D01*
X160956904Y-108041190D01*
X162385476Y-107850714D02*
X162385476Y-108517380D01*
X162147380Y-107469761D02*
X161909285Y-108184047D01*
X162528333Y-108184047D01*
%TO.C,U2*%
X159208095Y-103157380D02*
X159208095Y-103966904D01*
X159255714Y-104062142D01*
X159303333Y-104109761D01*
X159398571Y-104157380D01*
X159589047Y-104157380D01*
X159684285Y-104109761D01*
X159731904Y-104062142D01*
X159779523Y-103966904D01*
X159779523Y-103157380D01*
X160208095Y-103252619D02*
X160255714Y-103205000D01*
X160350952Y-103157380D01*
X160589047Y-103157380D01*
X160684285Y-103205000D01*
X160731904Y-103252619D01*
X160779523Y-103347857D01*
X160779523Y-103443095D01*
X160731904Y-103585952D01*
X160160476Y-104157380D01*
X160779523Y-104157380D01*
%TO.C,P2*%
D12*
X145731904Y-71227380D02*
X145731904Y-70227380D01*
X146112857Y-70227380D01*
X146208095Y-70275000D01*
X146255714Y-70322619D01*
X146303333Y-70417857D01*
X146303333Y-70560714D01*
X146255714Y-70655952D01*
X146208095Y-70703571D01*
X146112857Y-70751190D01*
X145731904Y-70751190D01*
X146684285Y-70322619D02*
X146731904Y-70275000D01*
X146827142Y-70227380D01*
X147065238Y-70227380D01*
X147160476Y-70275000D01*
X147208095Y-70322619D01*
X147255714Y-70417857D01*
X147255714Y-70513095D01*
X147208095Y-70655952D01*
X146636666Y-71227380D01*
X147255714Y-71227380D01*
%TO.C,P1*%
D16*
X120386904Y-66052380D02*
X120386904Y-65052380D01*
X120767857Y-65052380D01*
X120863095Y-65100000D01*
X120910714Y-65147619D01*
X120958333Y-65242857D01*
X120958333Y-65385714D01*
X120910714Y-65480952D01*
X120863095Y-65528571D01*
X120767857Y-65576190D01*
X120386904Y-65576190D01*
X121910714Y-66052380D02*
X121339285Y-66052380D01*
X121625000Y-66052380D02*
X121625000Y-65052380D01*
X121529761Y-65195238D01*
X121434523Y-65290476D01*
X121339285Y-65338095D01*
%TO.C,R5*%
X170842380Y-99631666D02*
X170366190Y-99965000D01*
X170842380Y-100203095D02*
X169842380Y-100203095D01*
X169842380Y-99822142D01*
X169890000Y-99726904D01*
X169937619Y-99679285D01*
X170032857Y-99631666D01*
X170175714Y-99631666D01*
X170270952Y-99679285D01*
X170318571Y-99726904D01*
X170366190Y-99822142D01*
X170366190Y-100203095D01*
X169842380Y-98726904D02*
X169842380Y-99203095D01*
X170318571Y-99250714D01*
X170270952Y-99203095D01*
X170223333Y-99107857D01*
X170223333Y-98869761D01*
X170270952Y-98774523D01*
X170318571Y-98726904D01*
X170413809Y-98679285D01*
X170651904Y-98679285D01*
X170747142Y-98726904D01*
X170794761Y-98774523D01*
X170842380Y-98869761D01*
X170842380Y-99107857D01*
X170794761Y-99203095D01*
X170747142Y-99250714D01*
%TO.C,R6*%
X172247380Y-99631666D02*
X171771190Y-99965000D01*
X172247380Y-100203095D02*
X171247380Y-100203095D01*
X171247380Y-99822142D01*
X171295000Y-99726904D01*
X171342619Y-99679285D01*
X171437857Y-99631666D01*
X171580714Y-99631666D01*
X171675952Y-99679285D01*
X171723571Y-99726904D01*
X171771190Y-99822142D01*
X171771190Y-100203095D01*
X171247380Y-98774523D02*
X171247380Y-98965000D01*
X171295000Y-99060238D01*
X171342619Y-99107857D01*
X171485476Y-99203095D01*
X171675952Y-99250714D01*
X172056904Y-99250714D01*
X172152142Y-99203095D01*
X172199761Y-99155476D01*
X172247380Y-99060238D01*
X172247380Y-98869761D01*
X172199761Y-98774523D01*
X172152142Y-98726904D01*
X172056904Y-98679285D01*
X171818809Y-98679285D01*
X171723571Y-98726904D01*
X171675952Y-98774523D01*
X171628333Y-98869761D01*
X171628333Y-99060238D01*
X171675952Y-99155476D01*
X171723571Y-99203095D01*
X171818809Y-99250714D01*
%TO.C,R7*%
X173607380Y-99636666D02*
X173131190Y-99970000D01*
X173607380Y-100208095D02*
X172607380Y-100208095D01*
X172607380Y-99827142D01*
X172655000Y-99731904D01*
X172702619Y-99684285D01*
X172797857Y-99636666D01*
X172940714Y-99636666D01*
X173035952Y-99684285D01*
X173083571Y-99731904D01*
X173131190Y-99827142D01*
X173131190Y-100208095D01*
X172607380Y-99303333D02*
X172607380Y-98636666D01*
X173607380Y-99065238D01*
%TO.C,R8*%
X173587380Y-106426666D02*
X173111190Y-106760000D01*
X173587380Y-106998095D02*
X172587380Y-106998095D01*
X172587380Y-106617142D01*
X172635000Y-106521904D01*
X172682619Y-106474285D01*
X172777857Y-106426666D01*
X172920714Y-106426666D01*
X173015952Y-106474285D01*
X173063571Y-106521904D01*
X173111190Y-106617142D01*
X173111190Y-106998095D01*
X173015952Y-105855238D02*
X172968333Y-105950476D01*
X172920714Y-105998095D01*
X172825476Y-106045714D01*
X172777857Y-106045714D01*
X172682619Y-105998095D01*
X172635000Y-105950476D01*
X172587380Y-105855238D01*
X172587380Y-105664761D01*
X172635000Y-105569523D01*
X172682619Y-105521904D01*
X172777857Y-105474285D01*
X172825476Y-105474285D01*
X172920714Y-105521904D01*
X172968333Y-105569523D01*
X173015952Y-105664761D01*
X173015952Y-105855238D01*
X173063571Y-105950476D01*
X173111190Y-105998095D01*
X173206428Y-106045714D01*
X173396904Y-106045714D01*
X173492142Y-105998095D01*
X173539761Y-105950476D01*
X173587380Y-105855238D01*
X173587380Y-105664761D01*
X173539761Y-105569523D01*
X173492142Y-105521904D01*
X173396904Y-105474285D01*
X173206428Y-105474285D01*
X173111190Y-105521904D01*
X173063571Y-105569523D01*
X173015952Y-105664761D01*
%TO.C,R9*%
X172192380Y-106431666D02*
X171716190Y-106765000D01*
X172192380Y-107003095D02*
X171192380Y-107003095D01*
X171192380Y-106622142D01*
X171240000Y-106526904D01*
X171287619Y-106479285D01*
X171382857Y-106431666D01*
X171525714Y-106431666D01*
X171620952Y-106479285D01*
X171668571Y-106526904D01*
X171716190Y-106622142D01*
X171716190Y-107003095D01*
X172192380Y-105955476D02*
X172192380Y-105765000D01*
X172144761Y-105669761D01*
X172097142Y-105622142D01*
X171954285Y-105526904D01*
X171763809Y-105479285D01*
X171382857Y-105479285D01*
X171287619Y-105526904D01*
X171240000Y-105574523D01*
X171192380Y-105669761D01*
X171192380Y-105860238D01*
X171240000Y-105955476D01*
X171287619Y-106003095D01*
X171382857Y-106050714D01*
X171620952Y-106050714D01*
X171716190Y-106003095D01*
X171763809Y-105955476D01*
X171811428Y-105860238D01*
X171811428Y-105669761D01*
X171763809Y-105574523D01*
X171716190Y-105526904D01*
X171620952Y-105479285D01*
%TO.C,R10*%
X170777380Y-107392857D02*
X170301190Y-107726190D01*
X170777380Y-107964285D02*
X169777380Y-107964285D01*
X169777380Y-107583333D01*
X169825000Y-107488095D01*
X169872619Y-107440476D01*
X169967857Y-107392857D01*
X170110714Y-107392857D01*
X170205952Y-107440476D01*
X170253571Y-107488095D01*
X170301190Y-107583333D01*
X170301190Y-107964285D01*
X170777380Y-106440476D02*
X170777380Y-107011904D01*
X170777380Y-106726190D02*
X169777380Y-106726190D01*
X169920238Y-106821428D01*
X170015476Y-106916666D01*
X170063095Y-107011904D01*
X169777380Y-105821428D02*
X169777380Y-105726190D01*
X169825000Y-105630952D01*
X169872619Y-105583333D01*
X169967857Y-105535714D01*
X170158333Y-105488095D01*
X170396428Y-105488095D01*
X170586904Y-105535714D01*
X170682142Y-105583333D01*
X170729761Y-105630952D01*
X170777380Y-105726190D01*
X170777380Y-105821428D01*
X170729761Y-105916666D01*
X170682142Y-105964285D01*
X170586904Y-106011904D01*
X170396428Y-106059523D01*
X170158333Y-106059523D01*
X169967857Y-106011904D01*
X169872619Y-105964285D01*
X169825000Y-105916666D01*
X169777380Y-105821428D01*
%TD*%
M02*
