%TF.GenerationSoftware,KiCad,Pcbnew,5.1.6-c6e7f7d~87~ubuntu20.04.1*%
%TF.CreationDate,2020-08-13T14:06:16+02:00*%
%TF.ProjectId,maithoga_lcd_board_480x320_R61529,6d616974-686f-4676-915f-6c63645f626f,V1.0*%
%TF.SameCoordinates,Original*%
%TF.FileFunction,Copper,L2,Bot*%
%TF.FilePolarity,Positive*%
%FSLAX46Y46*%
G04 Gerber Fmt 4.6, Leading zero omitted, Abs format (unit mm)*
G04 Created by KiCad (PCBNEW 5.1.6-c6e7f7d~87~ubuntu20.04.1) date 2020-08-13 14:06:16*
%MOMM*%
%LPD*%
G01*
G04 APERTURE LIST*
%TA.AperFunction,ViaPad*%
%ADD10C,0.800000*%
%TD*%
%TA.AperFunction,Conductor*%
%ADD11C,0.508000*%
%TD*%
%TA.AperFunction,Conductor*%
%ADD12C,0.254000*%
%TD*%
G04 APERTURE END LIST*
D10*
%TO.N,3V3*%
X142980000Y-67255000D03*
X129619866Y-68509970D03*
X145970000Y-105010000D03*
X143225000Y-104950000D03*
X169895000Y-79485000D03*
%TO.N,GND*%
X139335000Y-68140000D03*
X137695000Y-68210000D03*
X135150000Y-68280000D03*
X133670000Y-68250000D03*
X130715000Y-68330000D03*
X127230000Y-68460000D03*
X141707037Y-67209790D03*
X144036496Y-68182814D03*
X141190000Y-68170000D03*
X157172990Y-105604770D03*
X159400016Y-106767887D03*
X108025000Y-115435000D03*
X156720000Y-108723390D03*
X155415000Y-101932010D03*
X172540000Y-99820000D03*
X171040000Y-99705000D03*
X172100000Y-106065000D03*
X154640000Y-97665000D03*
X148235000Y-104295000D03*
X160195000Y-95230000D03*
X164285000Y-97190000D03*
X162755000Y-101170000D03*
X115375000Y-113430000D03*
X135895000Y-93700000D03*
X137000000Y-101560000D03*
X131150000Y-101560000D03*
X121990000Y-91200000D03*
X121095000Y-86270000D03*
X122910000Y-87575000D03*
X122495000Y-93845000D03*
X125260000Y-93645000D03*
X124290000Y-96095000D03*
X121445000Y-96350000D03*
X120275000Y-98855000D03*
X122585000Y-98800000D03*
X120985000Y-102035000D03*
X120065000Y-103745000D03*
X122725000Y-112915000D03*
X121695000Y-111100000D03*
X127945000Y-112760000D03*
X141150000Y-113245000D03*
X155525000Y-106880000D03*
X128920000Y-82500000D03*
X123475000Y-79310000D03*
X121930000Y-78605000D03*
X120100000Y-78095000D03*
X120595000Y-82410000D03*
X134080000Y-80725000D03*
X125920000Y-89340000D03*
X121230000Y-89340000D03*
X158900000Y-70795000D03*
X127970000Y-111170000D03*
X157400000Y-72575000D03*
X121760000Y-74405000D03*
X162710000Y-82187991D03*
X125650000Y-106950000D03*
X132730000Y-106920000D03*
X129500000Y-72240000D03*
%TO.N,/Display and Touchscreen/LCD_LED_A*%
X112315000Y-113065000D03*
X135055000Y-115385000D03*
%TO.N,/Display and Touchscreen/DISP_D5*%
X164935763Y-113352567D03*
X139220000Y-82070000D03*
%TO.N,/Display and Touchscreen/DISP_D7*%
X138547358Y-81043476D03*
X165229312Y-110968949D03*
%TO.N,/Display and Touchscreen/LCD_LED_K*%
X119920000Y-112975000D03*
X137765000Y-113950000D03*
%TO.N,/Display and Touchscreen/DISP_TE*%
X140631356Y-105451572D03*
X160875000Y-113405957D03*
%TO.N,/Display and Touchscreen/DISP_RS*%
X160995000Y-111020000D03*
X142710000Y-103625000D03*
%TO.N,/Display and Touchscreen/DISP_D17*%
X131620225Y-80755225D03*
X168227562Y-110819266D03*
%TO.N,/Display and Touchscreen/DISP_D13*%
X167348391Y-113395118D03*
X135143555Y-80815587D03*
%TO.N,/Display and Touchscreen/DISP_D9*%
X166125000Y-113440000D03*
X137385000Y-81335000D03*
%TO.N,/Display and Touchscreen/DISP_D11*%
X135905952Y-80168459D03*
X166192216Y-110699060D03*
%TO.N,/Display and Touchscreen/DISP_D15*%
X167207924Y-110793741D03*
X132675296Y-80728303D03*
%TO.N,/Display and Touchscreen/DISP_~RESET~*%
X107035000Y-111425000D03*
X147935000Y-109715000D03*
X142490000Y-111425000D03*
X169953929Y-111290755D03*
%TO.N,/Display and Touchscreen/DISP_DOTCLK*%
X169205007Y-110608017D03*
X129978716Y-81770761D03*
%TO.N,/Display and Touchscreen/DISP_D10*%
X112320000Y-89405000D03*
X166332022Y-100033677D03*
X136178959Y-75352893D03*
%TO.N,/Display and Touchscreen/DISP_D16*%
X112230000Y-81620000D03*
X167908288Y-102567239D03*
X131822866Y-73903866D03*
%TO.N,/Display and Touchscreen/DISP_HSYNC*%
X112585000Y-76210000D03*
X169177200Y-103990278D03*
X129864652Y-73972801D03*
%TO.N,/Display and Touchscreen/DISP_D8*%
X112190000Y-92085000D03*
X165264509Y-99218329D03*
X137633979Y-75890765D03*
%TO.N,/Display and Touchscreen/DISP_ENABLE*%
X112285000Y-79870000D03*
X168768178Y-103077740D03*
X127974435Y-76106460D03*
%TO.N,/Display and Touchscreen/DISP_D14*%
X112320000Y-84205000D03*
X167244032Y-101819718D03*
X133221986Y-74608466D03*
%TO.N,/Display and Touchscreen/DISP_VSYNC*%
X169257010Y-105038029D03*
X119805000Y-74815000D03*
X128643823Y-74152936D03*
%TO.N,/Display and Touchscreen/DISP_D12*%
X112375000Y-86975000D03*
X166791043Y-100924500D03*
X134675997Y-74885854D03*
%TO.N,/Display and Touchscreen/DISP_D6*%
X112200000Y-94550000D03*
X164051131Y-98505069D03*
X139048503Y-76635001D03*
%TO.N,/Display and Touchscreen/DISP_D4*%
X112115000Y-97100000D03*
X163788077Y-99469862D03*
X141457010Y-77592400D03*
%TO.N,/Display and Touchscreen/DISP_D2*%
X112220000Y-99640000D03*
X163960000Y-100680000D03*
X142911022Y-77673193D03*
%TO.N,/Display and Touchscreen/DISP_D0*%
X162940000Y-102530000D03*
X112190000Y-102185000D03*
X143789258Y-78903891D03*
%TO.N,/Display and Touchscreen/DISP_SDA*%
X143280000Y-97780000D03*
X112255000Y-105295000D03*
X122287886Y-101162886D03*
X164430000Y-110368013D03*
%TO.N,/Display and Touchscreen/DISP_~WR~*%
X112615000Y-107730000D03*
X162665000Y-107590000D03*
X142786098Y-99537813D03*
X123261462Y-101811018D03*
%TO.N,/Display and Touchscreen/DISP_~CS~*%
X112545000Y-109660000D03*
X161568287Y-107932655D03*
X124434894Y-101989968D03*
X143514079Y-100457010D03*
%TO.N,/Display and Touchscreen/DISP_D1*%
X141363430Y-81821440D03*
X162036066Y-113361527D03*
%TO.N,/Display and Touchscreen/DISP_D3*%
X164037298Y-113791638D03*
X140342825Y-81813896D03*
%TO.N,/Display and Touchscreen/DISP_~RD~*%
X161802600Y-110369744D03*
X143013437Y-102378621D03*
%TO.N,/Display and Touchscreen/DISP_SDO*%
X162932011Y-111077990D03*
X142002189Y-102088841D03*
%TO.N,/Display and Touchscreen/BACKLIGHT_PWM*%
X158255000Y-104685000D03*
X125805000Y-101310000D03*
X106170000Y-103960000D03*
X142366674Y-100988402D03*
%TO.N,Net-(DIS1-Pad44)*%
X171493267Y-107864519D03*
X173630000Y-102860000D03*
%TO.N,Net-(DIS1-Pad42)*%
X170056237Y-107359343D03*
X170676201Y-102830000D03*
%TO.N,Net-(DIS1-Pad43)*%
X171755000Y-102865000D03*
X170839632Y-110803442D03*
%TO.N,/Display and Touchscreen/TOUCHSCREEN_SDA*%
X120570000Y-72740000D03*
X157680000Y-80700000D03*
%TO.N,/Display and Touchscreen/TOUCHSCREEN_INT*%
X121440000Y-71180000D03*
X158992250Y-79571461D03*
%TO.N,/Display and Touchscreen/TOUCHSCREEN_SCL*%
X107670000Y-72190000D03*
X157996991Y-79668842D03*
%TO.N,/Standard Goldpin Connector/TOUCHSCREEN_RESET*%
X119880000Y-69850000D03*
X159919642Y-80252908D03*
%TD*%
D11*
%TO.N,3V3*%
X142980000Y-67255000D02*
X141995001Y-66270001D01*
X131294150Y-66270001D02*
X129619866Y-67944285D01*
X129619866Y-67944285D02*
X129619866Y-68509970D01*
X141995001Y-66270001D02*
X131294150Y-66270001D01*
X162890000Y-71165000D02*
X160645000Y-71165000D01*
X160645000Y-71165000D02*
X157840000Y-68360000D01*
X157840000Y-68360000D02*
X146480000Y-68360000D01*
X145375000Y-67255000D02*
X142980000Y-67255000D01*
X146480000Y-68360000D02*
X145375000Y-67255000D01*
X145970000Y-105010000D02*
X143285000Y-105010000D01*
X143285000Y-105010000D02*
X143225000Y-104950000D01*
X162890000Y-71165000D02*
X166035000Y-71165000D01*
X166035000Y-71165000D02*
X168445000Y-73575000D01*
X168445000Y-73575000D02*
X168445000Y-78035000D01*
X168445000Y-78035000D02*
X169895000Y-79485000D01*
D12*
%TO.N,GND*%
X157172990Y-108270400D02*
X156720000Y-108723390D01*
X159400016Y-106767887D02*
X157444513Y-108723390D01*
X157172990Y-105604770D02*
X157172990Y-108270400D01*
X157444513Y-108723390D02*
X156720000Y-108723390D01*
D11*
%TO.N,/Display and Touchscreen/LCD_LED_A*%
X114635000Y-115385000D02*
X112315000Y-113065000D01*
X135055000Y-115385000D02*
X114635000Y-115385000D01*
D12*
%TO.N,/Display and Touchscreen/DISP_D5*%
X139340000Y-82190000D02*
X139220000Y-82070000D01*
X139340000Y-105878246D02*
X139340000Y-82190000D01*
X148048732Y-114586978D02*
X139340000Y-105878246D01*
X164282150Y-114586978D02*
X148048732Y-114586978D01*
X164935763Y-113933365D02*
X164282150Y-114586978D01*
X164935763Y-113352567D02*
X164935763Y-113933365D01*
%TO.N,/Display and Touchscreen/DISP_D7*%
X163846012Y-108723063D02*
X165229312Y-110106363D01*
X159016040Y-102223010D02*
X163846012Y-107052982D01*
X138547358Y-81043476D02*
X142156413Y-81043476D01*
X163846012Y-107052982D02*
X163846012Y-108723063D01*
X165229312Y-110106363D02*
X165229312Y-110968949D01*
X142156413Y-81043476D02*
X159016040Y-97903103D01*
X159016040Y-97903103D02*
X159016040Y-102223010D01*
D11*
%TO.N,/Display and Touchscreen/LCD_LED_K*%
X119920000Y-112975000D02*
X120895000Y-113950000D01*
X120895000Y-113950000D02*
X137765000Y-113950000D01*
D12*
%TO.N,/Display and Touchscreen/DISP_TE*%
X160681946Y-113599011D02*
X160875000Y-113405957D01*
X148424011Y-113599011D02*
X160681946Y-113599011D01*
X140631356Y-105806356D02*
X148424011Y-113599011D01*
X140631356Y-105451572D02*
X140631356Y-105806356D01*
%TO.N,/Display and Touchscreen/DISP_RS*%
X160333422Y-110358422D02*
X155903422Y-110358422D01*
X160995000Y-111020000D02*
X160333422Y-110358422D01*
X148600000Y-103055000D02*
X143280000Y-103055000D01*
X143280000Y-103055000D02*
X142710000Y-103625000D01*
X155903422Y-110358422D02*
X148600000Y-103055000D01*
%TO.N,/Display and Touchscreen/DISP_D17*%
X160378073Y-97338932D02*
X160378073Y-101658839D01*
X131620225Y-80755225D02*
X133388012Y-78987438D01*
X139942576Y-79681432D02*
X142720573Y-79681432D01*
X133388012Y-78987438D02*
X137671153Y-78987438D01*
X142720573Y-79681432D02*
X160378073Y-97338932D01*
X139669588Y-79408444D02*
X139942576Y-79681432D01*
X138092159Y-79408444D02*
X139669588Y-79408444D01*
X168227562Y-110649290D02*
X168227562Y-110819266D01*
X165208043Y-107629771D02*
X168227562Y-110649290D01*
X165208043Y-106488809D02*
X165208043Y-107629771D01*
X137671153Y-78987438D02*
X138092159Y-79408444D01*
X160378073Y-101658839D02*
X165208043Y-106488809D01*
%TO.N,/Display and Touchscreen/DISP_D13*%
X135143555Y-102965937D02*
X135143555Y-80815587D01*
X167348391Y-113395118D02*
X165248509Y-115495000D01*
X165248509Y-115495000D02*
X147672618Y-115495000D01*
X147672618Y-115495000D02*
X135143555Y-102965937D01*
%TO.N,/Display and Touchscreen/DISP_D9*%
X138715000Y-82665000D02*
X137385000Y-81335000D01*
X138715000Y-105895314D02*
X138715000Y-82665000D01*
X147860675Y-115040989D02*
X138715000Y-105895314D01*
X164799011Y-115040989D02*
X147860675Y-115040989D01*
X166125000Y-113715000D02*
X164799011Y-115040989D01*
X166125000Y-113440000D02*
X166125000Y-113715000D01*
%TO.N,/Display and Touchscreen/DISP_D11*%
X136053959Y-80316466D02*
X139293474Y-80316466D01*
X139293474Y-80316466D02*
X139566462Y-80589454D01*
X139566462Y-80589454D02*
X142344459Y-80589454D01*
X159470050Y-97715045D02*
X159470051Y-102034953D01*
X142344459Y-80589454D02*
X159470050Y-97715045D01*
X164300022Y-108241181D02*
X166192216Y-110133375D01*
X166192216Y-110133375D02*
X166192216Y-110699060D01*
X164300022Y-106864924D02*
X164300022Y-108241181D01*
X135905952Y-80168459D02*
X136053959Y-80316466D01*
X159470051Y-102034953D02*
X164300022Y-106864924D01*
%TO.N,/Display and Touchscreen/DISP_D15*%
X159924062Y-97526989D02*
X142532516Y-80135443D01*
X142532516Y-80135443D02*
X139754519Y-80135443D01*
X167207924Y-110271720D02*
X164754032Y-107817828D01*
X137483092Y-79441449D02*
X133962150Y-79441449D01*
X139481531Y-79862455D02*
X137904098Y-79862455D01*
X139754519Y-80135443D02*
X139481531Y-79862455D01*
X159924062Y-101846896D02*
X159924062Y-97526989D01*
X164754032Y-106676866D02*
X159924062Y-101846896D01*
X164754032Y-107817828D02*
X164754032Y-106676866D01*
X167207924Y-110793741D02*
X167207924Y-110271720D01*
X137904098Y-79862455D02*
X137483092Y-79441449D01*
X133962150Y-79441449D02*
X132675296Y-80728303D01*
%TO.N,/Display and Touchscreen/DISP_~RESET~*%
X142080000Y-111835000D02*
X142490000Y-111425000D01*
X107035000Y-111425000D02*
X107445000Y-111835000D01*
X128318961Y-111897001D02*
X128380962Y-111835000D01*
X128380962Y-111835000D02*
X142080000Y-111835000D01*
X127621039Y-111897001D02*
X128318961Y-111897001D01*
X107445000Y-111835000D02*
X127559038Y-111835000D01*
X127559038Y-111835000D02*
X127621039Y-111897001D01*
X160939944Y-112224944D02*
X160400000Y-111685000D01*
X162770000Y-113025000D02*
X161969944Y-112224944D01*
X164050000Y-113025000D02*
X162770000Y-113025000D01*
X149905000Y-111685000D02*
X147935000Y-109715000D01*
X161969944Y-112224944D02*
X160939944Y-112224944D01*
X167485000Y-112580000D02*
X164495000Y-112580000D01*
X164495000Y-112580000D02*
X164050000Y-113025000D01*
X167840056Y-112224944D02*
X167485000Y-112580000D01*
X169019740Y-112224944D02*
X167840056Y-112224944D01*
X160400000Y-111685000D02*
X149905000Y-111685000D01*
X169953929Y-111290755D02*
X169019740Y-112224944D01*
%TO.N,/Display and Touchscreen/DISP_DOTCLK*%
X140130635Y-79227423D02*
X139857645Y-78954433D01*
X142908632Y-79227423D02*
X140130635Y-79227423D01*
X137859210Y-78533427D02*
X132813874Y-78533427D01*
X138280216Y-78954433D02*
X137859210Y-78533427D01*
X129978716Y-81368585D02*
X129978716Y-81770761D01*
X168688809Y-110091819D02*
X168485757Y-110091819D01*
X165662054Y-107268116D02*
X165662054Y-106300752D01*
X165662054Y-106300752D02*
X160832084Y-101470782D01*
X160832084Y-101470782D02*
X160832084Y-97150875D01*
X168485757Y-110091819D02*
X165662054Y-107268116D01*
X132813874Y-78533427D02*
X129978716Y-81368585D01*
X160832084Y-97150875D02*
X142908632Y-79227423D01*
X169205007Y-110608017D02*
X168688809Y-110091819D01*
X139857645Y-78954433D02*
X138280216Y-78954433D01*
%TO.N,/Display and Touchscreen/DISP_D10*%
X134052538Y-75673039D02*
X135858813Y-75673039D01*
X129299407Y-78195486D02*
X131685530Y-75809363D01*
X133916212Y-75809363D02*
X134052538Y-75673039D01*
X123529514Y-78195486D02*
X129299407Y-78195486D01*
X131685530Y-75809363D02*
X133916212Y-75809363D01*
X112320000Y-89405000D02*
X123529514Y-78195486D01*
X135858813Y-75673039D02*
X136178959Y-75352893D01*
X144653595Y-75438071D02*
X143823595Y-75438071D01*
X143549288Y-75163764D02*
X136368088Y-75163764D01*
X166332022Y-97116498D02*
X144653595Y-75438071D01*
X136368088Y-75163764D02*
X136178959Y-75352893D01*
X143823595Y-75438071D02*
X143549288Y-75163764D01*
X166332022Y-100033677D02*
X166332022Y-97116498D01*
%TO.N,/Display and Touchscreen/DISP_D16*%
X128710674Y-76833462D02*
X131640270Y-73903866D01*
X112230000Y-81620000D02*
X117016538Y-76833462D01*
X131640270Y-73903866D02*
X131822866Y-73903866D01*
X117016538Y-76833462D02*
X128710674Y-76833462D01*
X143912772Y-73681044D02*
X132045688Y-73681044D01*
X143987769Y-73756041D02*
X143912772Y-73681044D01*
X168308287Y-102167240D02*
X168308287Y-96921743D01*
X145202587Y-73816043D02*
X144067770Y-73816042D01*
X168308287Y-96921743D02*
X145202587Y-73816043D01*
X144007770Y-73756042D02*
X143987769Y-73756041D01*
X167908288Y-102567239D02*
X168308287Y-102167240D01*
X144067770Y-73816042D02*
X144007770Y-73756042D01*
X132045688Y-73681044D02*
X131822866Y-73903866D01*
%TO.N,/Display and Touchscreen/DISP_HSYNC*%
X128528050Y-75309403D02*
X129864652Y-73972801D01*
X112585000Y-76210000D02*
X112984999Y-75810001D01*
X127242746Y-75810001D02*
X127743344Y-75309403D01*
X127743344Y-75309403D02*
X128528050Y-75309403D01*
X112984999Y-75810001D02*
X127242746Y-75810001D01*
X145578702Y-72908022D02*
X144423886Y-72908022D01*
X131114599Y-72722854D02*
X129864652Y-73972801D01*
X169495180Y-103672298D02*
X169495180Y-96824500D01*
X169177200Y-103990278D02*
X169495180Y-103672298D01*
X144423886Y-72908022D02*
X144238718Y-72722854D01*
X169495180Y-96824500D02*
X145578702Y-72908022D01*
X144238718Y-72722854D02*
X131114599Y-72722854D01*
%TO.N,/Display and Touchscreen/DISP_D8*%
X137261370Y-76263374D02*
X137633979Y-75890765D01*
X131873587Y-76263374D02*
X137261370Y-76263374D01*
X126010504Y-78649496D02*
X129487465Y-78649496D01*
X129487465Y-78649496D02*
X131873587Y-76263374D01*
X112575000Y-92085000D02*
X126010504Y-78649496D01*
X112190000Y-92085000D02*
X112575000Y-92085000D01*
X165264509Y-99218329D02*
X165264509Y-96691053D01*
X165264509Y-96691053D02*
X144465538Y-75892082D01*
X144465538Y-75892082D02*
X137635296Y-75892082D01*
X137635296Y-75892082D02*
X137633979Y-75890765D01*
%TO.N,/Display and Touchscreen/DISP_ENABLE*%
X127771492Y-76309403D02*
X127974435Y-76106460D01*
X116765597Y-76309403D02*
X127771492Y-76309403D01*
X113205000Y-79870000D02*
X116765597Y-76309403D01*
X112285000Y-79870000D02*
X113205000Y-79870000D01*
X144235829Y-73362033D02*
X144050661Y-73176865D01*
X128784038Y-76106460D02*
X127974435Y-76106460D01*
X131095864Y-73794634D02*
X128784038Y-76106460D01*
X131095864Y-73554904D02*
X131095864Y-73794634D01*
X168768178Y-103077740D02*
X168768178Y-96739566D01*
X144050661Y-73176865D02*
X131473903Y-73176865D01*
X131473903Y-73176865D02*
X131095864Y-73554904D01*
X168768178Y-96739566D02*
X145390645Y-73362033D01*
X145390645Y-73362033D02*
X144235829Y-73362033D01*
%TO.N,/Display and Touchscreen/DISP_D14*%
X133058529Y-74771923D02*
X133221986Y-74608466D01*
X131438834Y-74771923D02*
X133058529Y-74771923D01*
X128923293Y-77287464D02*
X131438834Y-74771923D01*
X112320000Y-84205000D02*
X119237536Y-77287464D01*
X119237536Y-77287464D02*
X128923293Y-77287464D01*
X145014528Y-74270052D02*
X143879710Y-74270052D01*
X143768510Y-74158852D02*
X133671600Y-74158852D01*
X167244032Y-101819718D02*
X167644031Y-101419719D01*
X133671600Y-74158852D02*
X133221986Y-74608466D01*
X167644031Y-96899555D02*
X145014528Y-74270052D01*
X143879710Y-74270052D02*
X143768510Y-74158852D01*
X167644031Y-101419719D02*
X167644031Y-96899555D01*
%TO.N,/Display and Touchscreen/DISP_VSYNC*%
X128257743Y-74152936D02*
X128643823Y-74152936D01*
X120325989Y-75335989D02*
X127074690Y-75335989D01*
X127074690Y-75335989D02*
X128257743Y-74152936D01*
X119805000Y-74815000D02*
X120325989Y-75335989D01*
X169949190Y-96636442D02*
X145706759Y-72394011D01*
X144426775Y-72268843D02*
X130527916Y-72268843D01*
X169949191Y-104286125D02*
X169949190Y-96636442D01*
X145706759Y-72394011D02*
X144551943Y-72394011D01*
X169257010Y-104978306D02*
X169949191Y-104286125D01*
X144551943Y-72394011D02*
X144426775Y-72268843D01*
X169257010Y-105038029D02*
X169257010Y-104978306D01*
X130527916Y-72268843D02*
X128643823Y-74152936D01*
%TO.N,/Display and Touchscreen/DISP_D12*%
X121608525Y-77741475D02*
X129111350Y-77741475D01*
X133660690Y-75335476D02*
X134110312Y-74885854D01*
X134110312Y-74885854D02*
X134675997Y-74885854D01*
X131517349Y-75335476D02*
X133660690Y-75335476D01*
X129111350Y-77741475D02*
X131517349Y-75335476D01*
X112375000Y-86975000D02*
X121608525Y-77741475D01*
X143681157Y-74724062D02*
X143582986Y-74625891D01*
X167059032Y-100656511D02*
X167059032Y-96956624D01*
X166791043Y-100924500D02*
X167059032Y-100656511D01*
X167059032Y-96956624D02*
X144826470Y-74724062D01*
X143582986Y-74625891D02*
X134935960Y-74625891D01*
X144826470Y-74724062D02*
X143681157Y-74724062D01*
X134935960Y-74625891D02*
X134675997Y-74885854D01*
%TO.N,/Display and Touchscreen/DISP_D6*%
X112200000Y-94550000D02*
X112200000Y-93158796D01*
X126255288Y-79103508D02*
X129675523Y-79103506D01*
X129675523Y-79103506D02*
X132061644Y-76717385D01*
X112200000Y-93158796D02*
X126255288Y-79103508D01*
X138966119Y-76717385D02*
X139048503Y-76635001D01*
X132061644Y-76717385D02*
X138966119Y-76717385D01*
X163412031Y-97865969D02*
X163412031Y-95480643D01*
X143912376Y-76440988D02*
X139242516Y-76440988D01*
X144867479Y-77396091D02*
X143912376Y-76440988D01*
X164051131Y-98505069D02*
X163412031Y-97865969D01*
X145327480Y-77396092D02*
X144867479Y-77396091D01*
X163412031Y-95480643D02*
X145327480Y-77396092D01*
X139242516Y-76440988D02*
X139048503Y-76635001D01*
%TO.N,/Display and Touchscreen/DISP_D4*%
X112115000Y-97100000D02*
X123363959Y-85851041D01*
X126443345Y-79557519D02*
X129863578Y-79557519D01*
X138928356Y-77592400D02*
X141457010Y-77592400D01*
X123363960Y-82636904D02*
X126443345Y-79557519D01*
X132249703Y-77171394D02*
X138507350Y-77171394D01*
X129863578Y-79557519D02*
X132249703Y-77171394D01*
X123363959Y-85851041D02*
X123363960Y-82636904D01*
X138507350Y-77171394D02*
X138928356Y-77592400D01*
X145139422Y-77850102D02*
X144679421Y-77850101D01*
X144679421Y-77850101D02*
X143769423Y-76940103D01*
X163788077Y-99469862D02*
X162958020Y-98639805D01*
X142109307Y-76940103D02*
X141457010Y-77592400D01*
X143769423Y-76940103D02*
X142109307Y-76940103D01*
X162958020Y-95668700D02*
X145139422Y-77850102D01*
X162958020Y-98639805D02*
X162958020Y-95668700D01*
%TO.N,/Display and Touchscreen/DISP_D2*%
X126631402Y-80011530D02*
X130051636Y-80011529D01*
X140833820Y-78046411D02*
X141106811Y-78319402D01*
X123817970Y-82824962D02*
X126631402Y-80011530D01*
X138740299Y-78046411D02*
X140833820Y-78046411D01*
X141106811Y-78319402D02*
X142264813Y-78319402D01*
X112220000Y-99640000D02*
X123817969Y-88042031D01*
X132437760Y-77625405D02*
X138319293Y-77625405D01*
X138319293Y-77625405D02*
X138740299Y-78046411D01*
X130051636Y-80011529D02*
X132437760Y-77625405D01*
X123817969Y-88042031D02*
X123817970Y-82824962D01*
X142264813Y-78319402D02*
X142911022Y-77673193D01*
X162504009Y-95856757D02*
X144951364Y-78304112D01*
X144491363Y-78304111D02*
X143860445Y-77673193D01*
X144951364Y-78304112D02*
X144491363Y-78304111D01*
X163960000Y-100680000D02*
X162504009Y-99224009D01*
X162504009Y-99224009D02*
X162504009Y-95856757D01*
X143860445Y-77673193D02*
X142911022Y-77673193D01*
%TO.N,/Display and Touchscreen/DISP_D0*%
X140645150Y-78500422D02*
X140918140Y-78773412D01*
X140918140Y-78773412D02*
X143658779Y-78773412D01*
X138131236Y-78079416D02*
X138552242Y-78500422D01*
X124271979Y-90103021D02*
X124271980Y-83013020D01*
X143658779Y-78773412D02*
X143789258Y-78903891D01*
X112190000Y-102185000D02*
X124271979Y-90103021D01*
X130239694Y-80465539D02*
X132625817Y-78079416D01*
X124271980Y-83013020D02*
X126819459Y-80465541D01*
X126819459Y-80465541D02*
X130239694Y-80465539D01*
X132625817Y-78079416D02*
X138131236Y-78079416D01*
X138552242Y-78500422D02*
X140645150Y-78500422D01*
X162940000Y-102530000D02*
X162027999Y-101617999D01*
X162027999Y-101617999D02*
X162027999Y-96022815D01*
X144909075Y-78903891D02*
X143789258Y-78903891D01*
X162027999Y-96022815D02*
X144909075Y-78903891D01*
%TO.N,/Display and Touchscreen/DISP_SDA*%
X163392001Y-109330014D02*
X164430000Y-110368013D01*
X156736204Y-99100000D02*
X158562031Y-100925827D01*
X158562031Y-100925827D02*
X158562031Y-102411069D01*
X158562031Y-102411069D02*
X163392001Y-107241039D01*
X163392001Y-107241039D02*
X163392001Y-109330014D01*
X144600000Y-99100000D02*
X156736204Y-99100000D01*
X143280000Y-97780000D02*
X144600000Y-99100000D01*
X122045772Y-101405000D02*
X122287886Y-101162886D01*
X121430962Y-101405000D02*
X122045772Y-101405000D01*
X121333961Y-101307999D02*
X121430962Y-101405000D01*
X116872001Y-101307999D02*
X121333961Y-101307999D01*
X112885000Y-105295000D02*
X116872001Y-101307999D01*
X112255000Y-105295000D02*
X112885000Y-105295000D01*
%TO.N,/Display and Touchscreen/DISP_~WR~*%
X162665000Y-107185864D02*
X158108022Y-102628886D01*
X162665000Y-107590000D02*
X162665000Y-107185864D01*
X158108022Y-102628886D02*
X158108022Y-101113886D01*
X158108022Y-101113886D02*
X156556114Y-99561978D01*
X156556114Y-99561978D02*
X142810263Y-99561978D01*
X142810263Y-99561978D02*
X142786098Y-99537813D01*
X123261462Y-102423538D02*
X123261462Y-101811018D01*
X117955000Y-107730000D02*
X123261462Y-102423538D01*
X112615000Y-107730000D02*
X117955000Y-107730000D01*
%TO.N,/Display and Touchscreen/DISP_~CS~*%
X112545000Y-109660000D02*
X116764862Y-109660000D01*
X116764862Y-109660000D02*
X124434894Y-101989968D01*
X156368057Y-100015989D02*
X157654011Y-101301943D01*
X143514079Y-100457010D02*
X143955100Y-100015989D01*
X157654011Y-101301943D02*
X157654011Y-102816943D01*
X157654011Y-102816943D02*
X161568287Y-106731219D01*
X161568287Y-106731219D02*
X161568287Y-107932655D01*
X143955100Y-100015989D02*
X156368057Y-100015989D01*
%TO.N,/Display and Touchscreen/DISP_D1*%
X160020000Y-113145000D02*
X160486045Y-112678955D01*
X148745000Y-113145000D02*
X160020000Y-113145000D01*
X141363430Y-81821440D02*
X140485000Y-82699870D01*
X161353494Y-112678955D02*
X162036066Y-113361527D01*
X141488966Y-105888966D02*
X148745000Y-113145000D01*
X141488966Y-105281034D02*
X141488966Y-105888966D01*
X140485000Y-104277068D02*
X141488966Y-105281034D01*
X160486045Y-112678955D02*
X161353494Y-112678955D01*
X140485000Y-82699870D02*
X140485000Y-104277068D01*
%TO.N,/Display and Touchscreen/DISP_D3*%
X163695969Y-114132967D02*
X148236789Y-114132967D01*
X164037298Y-113791638D02*
X163695969Y-114132967D01*
X140342825Y-82199977D02*
X140342825Y-81813896D01*
X139904354Y-82638448D02*
X140342825Y-82199977D01*
X139904354Y-105800532D02*
X139904354Y-82638448D01*
X148236789Y-114132967D02*
X139904354Y-105800532D01*
%TO.N,/Display and Touchscreen/DISP_~RD~*%
X143189816Y-102555000D02*
X143013437Y-102378621D01*
X148742068Y-102555000D02*
X143189816Y-102555000D01*
X156091479Y-109904411D02*
X148742068Y-102555000D01*
X161337267Y-109904411D02*
X156091479Y-109904411D01*
X161802600Y-110369744D02*
X161337267Y-109904411D01*
%TO.N,/Display and Touchscreen/DISP_SDO*%
X143362398Y-101651620D02*
X142664476Y-101651620D01*
X143725778Y-102015000D02*
X143362398Y-101651620D01*
X148844136Y-102015000D02*
X143725778Y-102015000D01*
X142227255Y-102088841D02*
X142002189Y-102088841D01*
X142664476Y-101651620D02*
X142227255Y-102088841D01*
X156279536Y-109450400D02*
X148844136Y-102015000D01*
X161941775Y-109450400D02*
X156279536Y-109450400D01*
X162932011Y-110440636D02*
X161941775Y-109450400D01*
X162932011Y-111077990D02*
X162932011Y-110440636D01*
%TO.N,/Display and Touchscreen/BACKLIGHT_PWM*%
X111525000Y-103960000D02*
X106170000Y-103960000D01*
X116205000Y-100010000D02*
X112865000Y-103350000D01*
X122505000Y-100010000D02*
X116205000Y-100010000D01*
X112135000Y-103350000D02*
X111525000Y-103960000D01*
X123690000Y-101195000D02*
X122505000Y-100010000D01*
X112865000Y-103350000D02*
X112135000Y-103350000D01*
X124930000Y-101195000D02*
X123690000Y-101195000D01*
X125045000Y-101310000D02*
X124930000Y-101195000D01*
X125805000Y-101310000D02*
X125045000Y-101310000D01*
X156765000Y-101055000D02*
X156180000Y-100470000D01*
X156180000Y-100470000D02*
X144577051Y-100470000D01*
X156765000Y-101075000D02*
X156765000Y-101055000D01*
X157200000Y-101510000D02*
X156765000Y-101075000D01*
X142562283Y-101184011D02*
X142366674Y-100988402D01*
X143863040Y-101184011D02*
X142562283Y-101184011D01*
X144577051Y-100470000D02*
X143863040Y-101184011D01*
X158255000Y-104090000D02*
X157200000Y-103035000D01*
X157200000Y-103035000D02*
X157200000Y-101510000D01*
X158255000Y-104685000D02*
X158255000Y-104090000D01*
%TO.N,Net-(DIS1-Pad44)*%
X171493267Y-107864519D02*
X173630000Y-105727786D01*
X173630000Y-105727786D02*
X173630000Y-102860000D01*
%TO.N,Net-(DIS1-Pad42)*%
X170403202Y-103102999D02*
X170676201Y-102830000D01*
X170403202Y-104474182D02*
X170403202Y-103102999D01*
X170255000Y-104622384D02*
X170403202Y-104474182D01*
X170255000Y-107160580D02*
X170255000Y-104622384D01*
X170056237Y-107359343D02*
X170255000Y-107160580D01*
%TO.N,Net-(DIS1-Pad43)*%
X170439633Y-108051909D02*
X170439633Y-110403443D01*
X170783238Y-107708304D02*
X170439633Y-108051909D01*
X170920000Y-104596027D02*
X170783238Y-104732789D01*
X170783238Y-104732789D02*
X170783238Y-107708304D01*
X170920000Y-103700000D02*
X170920000Y-104596027D01*
X170439633Y-110403443D02*
X170839632Y-110803442D01*
X171755000Y-102865000D02*
X170920000Y-103700000D01*
%TO.N,/Display and Touchscreen/TOUCHSCREEN_SDA*%
X157680000Y-80380000D02*
X157680000Y-80700000D01*
X148330000Y-71030000D02*
X157680000Y-80380000D01*
X123630000Y-71030000D02*
X148330000Y-71030000D01*
X121920000Y-72740000D02*
X123630000Y-71030000D01*
X120570000Y-72740000D02*
X121920000Y-72740000D01*
%TO.N,/Display and Touchscreen/TOUCHSCREEN_INT*%
X149362767Y-69941978D02*
X158992250Y-79571461D01*
X121440000Y-71180000D02*
X122678022Y-69941978D01*
X122678022Y-69941978D02*
X149362767Y-69941978D01*
%TO.N,/Display and Touchscreen/TOUCHSCREEN_SCL*%
X148788149Y-70460000D02*
X157996991Y-79668842D01*
X123210000Y-70460000D02*
X148788149Y-70460000D01*
X121657002Y-72012998D02*
X123210000Y-70460000D01*
X107847002Y-72012998D02*
X121657002Y-72012998D01*
X107670000Y-72190000D02*
X107847002Y-72012998D01*
%TO.N,/Standard Goldpin Connector/TOUCHSCREEN_RESET*%
X159919642Y-79422891D02*
X159919642Y-80252908D01*
X149946752Y-69450001D02*
X159919642Y-79422891D01*
X120279999Y-69450001D02*
X149946752Y-69450001D01*
X119880000Y-69850000D02*
X120279999Y-69450001D01*
%TD*%
%TO.N,GND*%
G36*
X186309001Y-118229000D02*
G01*
X174671000Y-118229000D01*
X174671000Y-115931168D01*
X174673085Y-115910000D01*
X174664763Y-115825509D01*
X174640118Y-115744266D01*
X174600097Y-115669391D01*
X174546237Y-115603763D01*
X174480609Y-115549903D01*
X174405734Y-115509882D01*
X174324491Y-115485237D01*
X174261168Y-115479000D01*
X174240000Y-115476915D01*
X174218832Y-115479000D01*
X165982929Y-115479000D01*
X167285811Y-114176118D01*
X167425313Y-114176118D01*
X167576200Y-114146105D01*
X167718333Y-114087231D01*
X167846250Y-114001760D01*
X167955033Y-113892977D01*
X168040504Y-113765060D01*
X168099378Y-113622927D01*
X168129391Y-113472040D01*
X168129391Y-113318196D01*
X168099378Y-113167309D01*
X168040504Y-113025176D01*
X167955033Y-112897259D01*
X167920597Y-112862823D01*
X168050477Y-112732944D01*
X168994796Y-112732944D01*
X169019740Y-112735401D01*
X169044684Y-112732944D01*
X169044687Y-112732944D01*
X169119325Y-112725593D01*
X169215083Y-112696545D01*
X169303335Y-112649373D01*
X169380688Y-112585892D01*
X169396595Y-112566509D01*
X169891349Y-112071755D01*
X170030851Y-112071755D01*
X170181738Y-112041742D01*
X170323871Y-111982868D01*
X170451788Y-111897397D01*
X170560571Y-111788614D01*
X170646042Y-111660697D01*
X170684105Y-111568807D01*
X170762710Y-111584442D01*
X170916554Y-111584442D01*
X171067441Y-111554429D01*
X171209574Y-111495555D01*
X171337491Y-111410084D01*
X171446274Y-111301301D01*
X171531745Y-111173384D01*
X171590619Y-111031251D01*
X171620632Y-110880364D01*
X171620632Y-110726520D01*
X171590619Y-110575633D01*
X171531745Y-110433500D01*
X171446274Y-110305583D01*
X171337491Y-110196800D01*
X171209574Y-110111329D01*
X171067441Y-110052455D01*
X170947633Y-110028624D01*
X170947633Y-108423386D01*
X170995408Y-108471161D01*
X171123325Y-108556632D01*
X171265458Y-108615506D01*
X171416345Y-108645519D01*
X171570189Y-108645519D01*
X171721076Y-108615506D01*
X171863209Y-108556632D01*
X171991126Y-108471161D01*
X172099909Y-108362378D01*
X172185380Y-108234461D01*
X172244254Y-108092328D01*
X172274267Y-107941441D01*
X172274267Y-107801939D01*
X173971565Y-106104641D01*
X173990948Y-106088734D01*
X174054429Y-106011381D01*
X174101601Y-105923129D01*
X174130649Y-105827371D01*
X174138000Y-105752733D01*
X174138000Y-105752730D01*
X174140457Y-105727786D01*
X174138000Y-105702842D01*
X174138000Y-103456501D01*
X174236642Y-103357859D01*
X174322113Y-103229942D01*
X174380987Y-103087809D01*
X174411000Y-102936922D01*
X174411000Y-102783078D01*
X174380987Y-102632191D01*
X174322113Y-102490058D01*
X174236642Y-102362141D01*
X174127859Y-102253358D01*
X173999942Y-102167887D01*
X173857809Y-102109013D01*
X173706922Y-102079000D01*
X173553078Y-102079000D01*
X173402191Y-102109013D01*
X173260058Y-102167887D01*
X173132141Y-102253358D01*
X173023358Y-102362141D01*
X172937887Y-102490058D01*
X172879013Y-102632191D01*
X172849000Y-102783078D01*
X172849000Y-102936922D01*
X172879013Y-103087809D01*
X172937887Y-103229942D01*
X173023358Y-103357859D01*
X173122001Y-103456502D01*
X173122000Y-105517366D01*
X171555847Y-107083519D01*
X171416345Y-107083519D01*
X171291238Y-107108404D01*
X171291238Y-104944436D01*
X171344429Y-104879622D01*
X171391601Y-104791370D01*
X171420649Y-104695612D01*
X171428000Y-104620974D01*
X171428000Y-104620971D01*
X171430457Y-104596027D01*
X171428000Y-104571083D01*
X171428000Y-103910420D01*
X171692420Y-103646000D01*
X171831922Y-103646000D01*
X171982809Y-103615987D01*
X172124942Y-103557113D01*
X172252859Y-103471642D01*
X172361642Y-103362859D01*
X172447113Y-103234942D01*
X172505987Y-103092809D01*
X172536000Y-102941922D01*
X172536000Y-102788078D01*
X172505987Y-102637191D01*
X172447113Y-102495058D01*
X172361642Y-102367141D01*
X172252859Y-102258358D01*
X172124942Y-102172887D01*
X171982809Y-102114013D01*
X171831922Y-102084000D01*
X171678078Y-102084000D01*
X171527191Y-102114013D01*
X171385058Y-102172887D01*
X171257141Y-102258358D01*
X171233101Y-102282399D01*
X171174060Y-102223358D01*
X171046143Y-102137887D01*
X170904010Y-102079013D01*
X170753123Y-102049000D01*
X170599279Y-102049000D01*
X170457190Y-102077263D01*
X170457189Y-96661396D01*
X170459647Y-96636442D01*
X170449838Y-96536857D01*
X170420790Y-96441098D01*
X170373619Y-96352847D01*
X170326040Y-96294872D01*
X170326039Y-96294871D01*
X170310137Y-96275494D01*
X170290760Y-96259592D01*
X146083614Y-72052446D01*
X146067707Y-72033063D01*
X145990354Y-71969582D01*
X145902102Y-71922410D01*
X145806344Y-71893362D01*
X145731706Y-71886011D01*
X145731703Y-71886011D01*
X145706759Y-71883554D01*
X145681815Y-71886011D01*
X144761057Y-71886011D01*
X144710370Y-71844414D01*
X144622118Y-71797242D01*
X144526360Y-71768194D01*
X144451722Y-71760843D01*
X144451719Y-71760843D01*
X144426775Y-71758386D01*
X144401831Y-71760843D01*
X130552860Y-71760843D01*
X130527916Y-71758386D01*
X130502972Y-71760843D01*
X130502969Y-71760843D01*
X130428331Y-71768194D01*
X130332573Y-71797242D01*
X130244321Y-71844414D01*
X130166968Y-71907895D01*
X130151061Y-71927278D01*
X128706403Y-73371936D01*
X128566901Y-73371936D01*
X128416014Y-73401949D01*
X128273881Y-73460823D01*
X128145964Y-73546294D01*
X128037181Y-73655077D01*
X127995878Y-73716892D01*
X127974148Y-73728507D01*
X127896795Y-73791988D01*
X127880888Y-73811371D01*
X126864270Y-74827989D01*
X120586000Y-74827989D01*
X120586000Y-74738078D01*
X120555987Y-74587191D01*
X120497113Y-74445058D01*
X120411642Y-74317141D01*
X120302859Y-74208358D01*
X120174942Y-74122887D01*
X120032809Y-74064013D01*
X119881922Y-74034000D01*
X119728078Y-74034000D01*
X119577191Y-74064013D01*
X119435058Y-74122887D01*
X119307141Y-74208358D01*
X119198358Y-74317141D01*
X119112887Y-74445058D01*
X119054013Y-74587191D01*
X119024000Y-74738078D01*
X119024000Y-74891922D01*
X119054013Y-75042809D01*
X119112887Y-75184942D01*
X119191103Y-75302001D01*
X113009942Y-75302001D01*
X112984998Y-75299544D01*
X112960054Y-75302001D01*
X112960052Y-75302001D01*
X112885414Y-75309352D01*
X112789656Y-75338400D01*
X112762542Y-75352893D01*
X112701403Y-75385572D01*
X112658865Y-75420482D01*
X112648486Y-75429000D01*
X112508078Y-75429000D01*
X112357191Y-75459013D01*
X112215058Y-75517887D01*
X112087141Y-75603358D01*
X111978358Y-75712141D01*
X111892887Y-75840058D01*
X111834013Y-75982191D01*
X111804000Y-76133078D01*
X111804000Y-76286922D01*
X111834013Y-76437809D01*
X111892887Y-76579942D01*
X111978358Y-76707859D01*
X112087141Y-76816642D01*
X112215058Y-76902113D01*
X112357191Y-76960987D01*
X112508078Y-76991000D01*
X112661922Y-76991000D01*
X112812809Y-76960987D01*
X112954942Y-76902113D01*
X113082859Y-76816642D01*
X113191642Y-76707859D01*
X113277113Y-76579942D01*
X113335987Y-76437809D01*
X113359818Y-76318001D01*
X116038579Y-76318001D01*
X112994580Y-79362000D01*
X112881501Y-79362000D01*
X112782859Y-79263358D01*
X112654942Y-79177887D01*
X112512809Y-79119013D01*
X112361922Y-79089000D01*
X112208078Y-79089000D01*
X112057191Y-79119013D01*
X111915058Y-79177887D01*
X111787141Y-79263358D01*
X111678358Y-79372141D01*
X111592887Y-79500058D01*
X111534013Y-79642191D01*
X111504000Y-79793078D01*
X111504000Y-79946922D01*
X111534013Y-80097809D01*
X111592887Y-80239942D01*
X111678358Y-80367859D01*
X111787141Y-80476642D01*
X111915058Y-80562113D01*
X112057191Y-80620987D01*
X112208078Y-80651000D01*
X112361922Y-80651000D01*
X112510043Y-80621537D01*
X112292580Y-80839000D01*
X112153078Y-80839000D01*
X112002191Y-80869013D01*
X111860058Y-80927887D01*
X111732141Y-81013358D01*
X111623358Y-81122141D01*
X111537887Y-81250058D01*
X111479013Y-81392191D01*
X111449000Y-81543078D01*
X111449000Y-81696922D01*
X111479013Y-81847809D01*
X111537887Y-81989942D01*
X111623358Y-82117859D01*
X111732141Y-82226642D01*
X111860058Y-82312113D01*
X112002191Y-82370987D01*
X112153078Y-82401000D01*
X112306922Y-82401000D01*
X112457809Y-82370987D01*
X112599942Y-82312113D01*
X112727859Y-82226642D01*
X112836642Y-82117859D01*
X112922113Y-81989942D01*
X112980987Y-81847809D01*
X113011000Y-81696922D01*
X113011000Y-81557420D01*
X117226959Y-77341462D01*
X118465117Y-77341462D01*
X112382580Y-83424000D01*
X112243078Y-83424000D01*
X112092191Y-83454013D01*
X111950058Y-83512887D01*
X111822141Y-83598358D01*
X111713358Y-83707141D01*
X111627887Y-83835058D01*
X111569013Y-83977191D01*
X111539000Y-84128078D01*
X111539000Y-84281922D01*
X111569013Y-84432809D01*
X111627887Y-84574942D01*
X111713358Y-84702859D01*
X111822141Y-84811642D01*
X111950058Y-84897113D01*
X112092191Y-84955987D01*
X112243078Y-84986000D01*
X112396922Y-84986000D01*
X112547809Y-84955987D01*
X112689942Y-84897113D01*
X112817859Y-84811642D01*
X112926642Y-84702859D01*
X113012113Y-84574942D01*
X113070987Y-84432809D01*
X113101000Y-84281922D01*
X113101000Y-84142420D01*
X119447957Y-77795464D01*
X120836115Y-77795464D01*
X112437580Y-86194000D01*
X112298078Y-86194000D01*
X112147191Y-86224013D01*
X112005058Y-86282887D01*
X111877141Y-86368358D01*
X111768358Y-86477141D01*
X111682887Y-86605058D01*
X111624013Y-86747191D01*
X111594000Y-86898078D01*
X111594000Y-87051922D01*
X111624013Y-87202809D01*
X111682887Y-87344942D01*
X111768358Y-87472859D01*
X111877141Y-87581642D01*
X112005058Y-87667113D01*
X112147191Y-87725987D01*
X112298078Y-87756000D01*
X112451922Y-87756000D01*
X112602809Y-87725987D01*
X112744942Y-87667113D01*
X112872859Y-87581642D01*
X112981642Y-87472859D01*
X113067113Y-87344942D01*
X113125987Y-87202809D01*
X113156000Y-87051922D01*
X113156000Y-86912420D01*
X121818946Y-78249475D01*
X122757105Y-78249475D01*
X112382580Y-88624000D01*
X112243078Y-88624000D01*
X112092191Y-88654013D01*
X111950058Y-88712887D01*
X111822141Y-88798358D01*
X111713358Y-88907141D01*
X111627887Y-89035058D01*
X111569013Y-89177191D01*
X111539000Y-89328078D01*
X111539000Y-89481922D01*
X111569013Y-89632809D01*
X111627887Y-89774942D01*
X111713358Y-89902859D01*
X111822141Y-90011642D01*
X111950058Y-90097113D01*
X112092191Y-90155987D01*
X112243078Y-90186000D01*
X112396922Y-90186000D01*
X112547809Y-90155987D01*
X112689942Y-90097113D01*
X112817859Y-90011642D01*
X112926642Y-89902859D01*
X113012113Y-89774942D01*
X113070987Y-89632809D01*
X113101000Y-89481922D01*
X113101000Y-89342420D01*
X123739934Y-78703486D01*
X125238093Y-78703486D01*
X112551988Y-91389592D01*
X112417809Y-91334013D01*
X112266922Y-91304000D01*
X112113078Y-91304000D01*
X111962191Y-91334013D01*
X111820058Y-91392887D01*
X111692141Y-91478358D01*
X111583358Y-91587141D01*
X111497887Y-91715058D01*
X111439013Y-91857191D01*
X111409000Y-92008078D01*
X111409000Y-92161922D01*
X111439013Y-92312809D01*
X111497887Y-92454942D01*
X111583358Y-92582859D01*
X111692141Y-92691642D01*
X111820058Y-92777113D01*
X111849473Y-92789297D01*
X111839053Y-92797848D01*
X111823151Y-92817225D01*
X111823150Y-92817226D01*
X111775571Y-92875201D01*
X111728400Y-92963453D01*
X111699352Y-93059212D01*
X111689543Y-93158796D01*
X111692001Y-93183750D01*
X111692000Y-93953499D01*
X111593358Y-94052141D01*
X111507887Y-94180058D01*
X111449013Y-94322191D01*
X111419000Y-94473078D01*
X111419000Y-94626922D01*
X111449013Y-94777809D01*
X111507887Y-94919942D01*
X111593358Y-95047859D01*
X111702141Y-95156642D01*
X111830058Y-95242113D01*
X111972191Y-95300987D01*
X112123078Y-95331000D01*
X112276922Y-95331000D01*
X112427809Y-95300987D01*
X112569942Y-95242113D01*
X112697859Y-95156642D01*
X112806642Y-95047859D01*
X112892113Y-94919942D01*
X112950987Y-94777809D01*
X112981000Y-94626922D01*
X112981000Y-94473078D01*
X112950987Y-94322191D01*
X112892113Y-94180058D01*
X112806642Y-94052141D01*
X112708000Y-93953499D01*
X112708000Y-93369216D01*
X122855961Y-83221255D01*
X122855959Y-85640620D01*
X112177580Y-96319000D01*
X112038078Y-96319000D01*
X111887191Y-96349013D01*
X111745058Y-96407887D01*
X111617141Y-96493358D01*
X111508358Y-96602141D01*
X111422887Y-96730058D01*
X111364013Y-96872191D01*
X111334000Y-97023078D01*
X111334000Y-97176922D01*
X111364013Y-97327809D01*
X111422887Y-97469942D01*
X111508358Y-97597859D01*
X111617141Y-97706642D01*
X111745058Y-97792113D01*
X111887191Y-97850987D01*
X112038078Y-97881000D01*
X112191922Y-97881000D01*
X112342809Y-97850987D01*
X112484942Y-97792113D01*
X112612859Y-97706642D01*
X112721642Y-97597859D01*
X112807113Y-97469942D01*
X112865987Y-97327809D01*
X112896000Y-97176922D01*
X112896000Y-97037420D01*
X123309970Y-86623451D01*
X123309969Y-87831610D01*
X112282580Y-98859000D01*
X112143078Y-98859000D01*
X111992191Y-98889013D01*
X111850058Y-98947887D01*
X111722141Y-99033358D01*
X111613358Y-99142141D01*
X111527887Y-99270058D01*
X111469013Y-99412191D01*
X111439000Y-99563078D01*
X111439000Y-99716922D01*
X111469013Y-99867809D01*
X111527887Y-100009942D01*
X111613358Y-100137859D01*
X111722141Y-100246642D01*
X111850058Y-100332113D01*
X111992191Y-100390987D01*
X112143078Y-100421000D01*
X112296922Y-100421000D01*
X112447809Y-100390987D01*
X112589942Y-100332113D01*
X112717859Y-100246642D01*
X112826642Y-100137859D01*
X112912113Y-100009942D01*
X112970987Y-99867809D01*
X113001000Y-99716922D01*
X113001000Y-99577420D01*
X123763979Y-88814442D01*
X123763979Y-89892601D01*
X112252580Y-101404000D01*
X112113078Y-101404000D01*
X111962191Y-101434013D01*
X111820058Y-101492887D01*
X111692141Y-101578358D01*
X111583358Y-101687141D01*
X111497887Y-101815058D01*
X111439013Y-101957191D01*
X111409000Y-102108078D01*
X111409000Y-102261922D01*
X111439013Y-102412809D01*
X111497887Y-102554942D01*
X111583358Y-102682859D01*
X111692141Y-102791642D01*
X111820058Y-102877113D01*
X111888795Y-102905585D01*
X111851404Y-102925571D01*
X111802218Y-102965937D01*
X111774052Y-102989052D01*
X111758149Y-103008430D01*
X111314580Y-103452000D01*
X106766501Y-103452000D01*
X106667859Y-103353358D01*
X106539942Y-103267887D01*
X106397809Y-103209013D01*
X106246922Y-103179000D01*
X106093078Y-103179000D01*
X105942191Y-103209013D01*
X105800058Y-103267887D01*
X105672141Y-103353358D01*
X105563358Y-103462141D01*
X105477887Y-103590058D01*
X105419013Y-103732191D01*
X105389000Y-103883078D01*
X105389000Y-104036922D01*
X105419013Y-104187809D01*
X105477887Y-104329942D01*
X105563358Y-104457859D01*
X105672141Y-104566642D01*
X105800058Y-104652113D01*
X105942191Y-104710987D01*
X106093078Y-104741000D01*
X106246922Y-104741000D01*
X106397809Y-104710987D01*
X106539942Y-104652113D01*
X106667859Y-104566642D01*
X106766501Y-104468000D01*
X111500056Y-104468000D01*
X111525000Y-104470457D01*
X111549944Y-104468000D01*
X111549947Y-104468000D01*
X111624585Y-104460649D01*
X111720343Y-104431601D01*
X111808595Y-104384429D01*
X111885948Y-104320948D01*
X111901855Y-104301565D01*
X112345421Y-103858000D01*
X112840056Y-103858000D01*
X112865000Y-103860457D01*
X112889944Y-103858000D01*
X112889947Y-103858000D01*
X112964585Y-103850649D01*
X113060343Y-103821601D01*
X113148595Y-103774429D01*
X113225948Y-103710948D01*
X113241855Y-103691565D01*
X116415421Y-100518000D01*
X121847263Y-100518000D01*
X121790027Y-100556244D01*
X121681244Y-100665027D01*
X121595773Y-100792944D01*
X121568987Y-100857609D01*
X121529304Y-100836398D01*
X121433546Y-100807350D01*
X121358908Y-100799999D01*
X121358905Y-100799999D01*
X121333961Y-100797542D01*
X121309017Y-100799999D01*
X116896945Y-100799999D01*
X116872001Y-100797542D01*
X116847057Y-100799999D01*
X116847054Y-100799999D01*
X116772416Y-100807350D01*
X116676658Y-100836398D01*
X116588406Y-100883570D01*
X116511053Y-100947051D01*
X116495146Y-100966434D01*
X112763041Y-104698540D01*
X112752859Y-104688358D01*
X112624942Y-104602887D01*
X112482809Y-104544013D01*
X112331922Y-104514000D01*
X112178078Y-104514000D01*
X112027191Y-104544013D01*
X111885058Y-104602887D01*
X111757141Y-104688358D01*
X111648358Y-104797141D01*
X111562887Y-104925058D01*
X111504013Y-105067191D01*
X111474000Y-105218078D01*
X111474000Y-105371922D01*
X111504013Y-105522809D01*
X111562887Y-105664942D01*
X111648358Y-105792859D01*
X111757141Y-105901642D01*
X111885058Y-105987113D01*
X112027191Y-106045987D01*
X112178078Y-106076000D01*
X112331922Y-106076000D01*
X112482809Y-106045987D01*
X112624942Y-105987113D01*
X112752859Y-105901642D01*
X112851501Y-105803000D01*
X112860056Y-105803000D01*
X112885000Y-105805457D01*
X112909944Y-105803000D01*
X112909947Y-105803000D01*
X112984585Y-105795649D01*
X113080343Y-105766601D01*
X113168595Y-105719429D01*
X113245948Y-105655948D01*
X113261855Y-105636565D01*
X117082421Y-101815999D01*
X121131002Y-101815999D01*
X121147367Y-101829429D01*
X121235619Y-101876601D01*
X121331377Y-101905649D01*
X121406015Y-101913000D01*
X121406017Y-101913000D01*
X121430961Y-101915457D01*
X121455905Y-101913000D01*
X122020828Y-101913000D01*
X122045772Y-101915457D01*
X122060665Y-101913990D01*
X122210964Y-101943886D01*
X122364808Y-101943886D01*
X122486765Y-101919627D01*
X122510475Y-102038827D01*
X122569349Y-102180960D01*
X122654820Y-102308877D01*
X122656262Y-102310319D01*
X117744580Y-107222000D01*
X113211501Y-107222000D01*
X113112859Y-107123358D01*
X112984942Y-107037887D01*
X112842809Y-106979013D01*
X112691922Y-106949000D01*
X112538078Y-106949000D01*
X112387191Y-106979013D01*
X112245058Y-107037887D01*
X112117141Y-107123358D01*
X112008358Y-107232141D01*
X111922887Y-107360058D01*
X111864013Y-107502191D01*
X111834000Y-107653078D01*
X111834000Y-107806922D01*
X111864013Y-107957809D01*
X111922887Y-108099942D01*
X112008358Y-108227859D01*
X112117141Y-108336642D01*
X112245058Y-108422113D01*
X112387191Y-108480987D01*
X112538078Y-108511000D01*
X112691922Y-108511000D01*
X112842809Y-108480987D01*
X112984942Y-108422113D01*
X113112859Y-108336642D01*
X113211501Y-108238000D01*
X117468442Y-108238000D01*
X116554442Y-109152000D01*
X113141501Y-109152000D01*
X113042859Y-109053358D01*
X112914942Y-108967887D01*
X112772809Y-108909013D01*
X112621922Y-108879000D01*
X112468078Y-108879000D01*
X112317191Y-108909013D01*
X112175058Y-108967887D01*
X112047141Y-109053358D01*
X111938358Y-109162141D01*
X111852887Y-109290058D01*
X111794013Y-109432191D01*
X111764000Y-109583078D01*
X111764000Y-109736922D01*
X111794013Y-109887809D01*
X111852887Y-110029942D01*
X111938358Y-110157859D01*
X112047141Y-110266642D01*
X112175058Y-110352113D01*
X112317191Y-110410987D01*
X112468078Y-110441000D01*
X112621922Y-110441000D01*
X112772809Y-110410987D01*
X112914942Y-110352113D01*
X113042859Y-110266642D01*
X113141501Y-110168000D01*
X116739918Y-110168000D01*
X116764862Y-110170457D01*
X116789806Y-110168000D01*
X116789809Y-110168000D01*
X116864447Y-110160649D01*
X116960205Y-110131601D01*
X117048457Y-110084429D01*
X117125810Y-110020948D01*
X117141717Y-110001565D01*
X124372315Y-102770968D01*
X124511816Y-102770968D01*
X124662703Y-102740955D01*
X124804836Y-102682081D01*
X124932753Y-102596610D01*
X125041536Y-102487827D01*
X125127007Y-102359910D01*
X125185881Y-102217777D01*
X125215894Y-102066890D01*
X125215894Y-101913046D01*
X125196988Y-101818000D01*
X125208499Y-101818000D01*
X125307141Y-101916642D01*
X125435058Y-102002113D01*
X125577191Y-102060987D01*
X125728078Y-102091000D01*
X125881922Y-102091000D01*
X126032809Y-102060987D01*
X126174942Y-102002113D01*
X126302859Y-101916642D01*
X126411642Y-101807859D01*
X126497113Y-101679942D01*
X126555987Y-101537809D01*
X126586000Y-101386922D01*
X126586000Y-101233078D01*
X126555987Y-101082191D01*
X126497113Y-100940058D01*
X126411642Y-100812141D01*
X126302859Y-100703358D01*
X126174942Y-100617887D01*
X126032809Y-100559013D01*
X125881922Y-100529000D01*
X125728078Y-100529000D01*
X125577191Y-100559013D01*
X125435058Y-100617887D01*
X125307141Y-100703358D01*
X125228058Y-100782441D01*
X125213595Y-100770571D01*
X125125343Y-100723399D01*
X125029585Y-100694351D01*
X124954947Y-100687000D01*
X124954944Y-100687000D01*
X124930000Y-100684543D01*
X124905056Y-100687000D01*
X123900421Y-100687000D01*
X122881855Y-99668435D01*
X122865948Y-99649052D01*
X122788595Y-99585571D01*
X122700343Y-99538399D01*
X122604585Y-99509351D01*
X122529947Y-99502000D01*
X122529944Y-99502000D01*
X122505000Y-99499543D01*
X122480056Y-99502000D01*
X116229943Y-99502000D01*
X116204999Y-99499543D01*
X116180055Y-99502000D01*
X116180053Y-99502000D01*
X116105415Y-99509351D01*
X116009657Y-99538399D01*
X116009655Y-99538400D01*
X115921404Y-99585571D01*
X115885868Y-99614735D01*
X115844052Y-99649052D01*
X115828150Y-99668429D01*
X112654580Y-102842000D01*
X112612493Y-102842000D01*
X112687859Y-102791642D01*
X112796642Y-102682859D01*
X112882113Y-102554942D01*
X112940987Y-102412809D01*
X112971000Y-102261922D01*
X112971000Y-102122420D01*
X124613549Y-90479871D01*
X124632926Y-90463969D01*
X124648829Y-90444591D01*
X124696408Y-90386616D01*
X124743579Y-90298365D01*
X124772627Y-90202606D01*
X124782436Y-90103021D01*
X124779978Y-90078067D01*
X124779980Y-83223440D01*
X127029880Y-80973541D01*
X129655342Y-80973539D01*
X129637151Y-80991730D01*
X129617768Y-81007637D01*
X129554287Y-81084990D01*
X129529289Y-81131758D01*
X129480857Y-81164119D01*
X129372074Y-81272902D01*
X129286603Y-81400819D01*
X129227729Y-81542952D01*
X129197716Y-81693839D01*
X129197716Y-81847683D01*
X129227729Y-81998570D01*
X129286603Y-82140703D01*
X129372074Y-82268620D01*
X129480857Y-82377403D01*
X129608774Y-82462874D01*
X129750907Y-82521748D01*
X129901794Y-82551761D01*
X130055638Y-82551761D01*
X130206525Y-82521748D01*
X130348658Y-82462874D01*
X130476575Y-82377403D01*
X130585358Y-82268620D01*
X130670829Y-82140703D01*
X130729703Y-81998570D01*
X130759716Y-81847683D01*
X130759716Y-81693839D01*
X130729703Y-81542952D01*
X130670829Y-81400819D01*
X130668455Y-81397266D01*
X130933096Y-81132625D01*
X131013583Y-81253084D01*
X131122366Y-81361867D01*
X131250283Y-81447338D01*
X131392416Y-81506212D01*
X131543303Y-81536225D01*
X131697147Y-81536225D01*
X131848034Y-81506212D01*
X131990167Y-81447338D01*
X132118084Y-81361867D01*
X132161222Y-81318730D01*
X132177437Y-81334945D01*
X132305354Y-81420416D01*
X132447487Y-81479290D01*
X132598374Y-81509303D01*
X132752218Y-81509303D01*
X132903105Y-81479290D01*
X133045238Y-81420416D01*
X133173155Y-81334945D01*
X133281938Y-81226162D01*
X133367409Y-81098245D01*
X133426283Y-80956112D01*
X133456296Y-80805225D01*
X133456296Y-80665723D01*
X134172571Y-79949449D01*
X135153215Y-79949449D01*
X135136280Y-80034587D01*
X135066633Y-80034587D01*
X134915746Y-80064600D01*
X134773613Y-80123474D01*
X134645696Y-80208945D01*
X134536913Y-80317728D01*
X134451442Y-80445645D01*
X134392568Y-80587778D01*
X134362555Y-80738665D01*
X134362555Y-80892509D01*
X134392568Y-81043396D01*
X134451442Y-81185529D01*
X134536913Y-81313446D01*
X134635556Y-81412089D01*
X134635555Y-102940993D01*
X134633098Y-102965937D01*
X134635555Y-102990881D01*
X134635555Y-102990883D01*
X134642906Y-103065521D01*
X134671954Y-103161279D01*
X134719126Y-103249532D01*
X134782607Y-103326885D01*
X134801990Y-103342792D01*
X142170989Y-110711791D01*
X142120058Y-110732887D01*
X141992141Y-110818358D01*
X141883358Y-110927141D01*
X141797887Y-111055058D01*
X141739013Y-111197191D01*
X141713193Y-111327000D01*
X128405906Y-111327000D01*
X128380962Y-111324543D01*
X128356018Y-111327000D01*
X128356015Y-111327000D01*
X128281377Y-111334351D01*
X128185619Y-111363399D01*
X128137721Y-111389001D01*
X127802279Y-111389001D01*
X127754381Y-111363399D01*
X127658623Y-111334351D01*
X127583985Y-111327000D01*
X127583982Y-111327000D01*
X127559038Y-111324543D01*
X127534094Y-111327000D01*
X107811807Y-111327000D01*
X107785987Y-111197191D01*
X107727113Y-111055058D01*
X107641642Y-110927141D01*
X107532859Y-110818358D01*
X107404942Y-110732887D01*
X107262809Y-110674013D01*
X107111922Y-110644000D01*
X106958078Y-110644000D01*
X106807191Y-110674013D01*
X106665058Y-110732887D01*
X106537141Y-110818358D01*
X106428358Y-110927141D01*
X106342887Y-111055058D01*
X106284013Y-111197191D01*
X106254000Y-111348078D01*
X106254000Y-111501922D01*
X106284013Y-111652809D01*
X106342887Y-111794942D01*
X106428358Y-111922859D01*
X106537141Y-112031642D01*
X106665058Y-112117113D01*
X106807191Y-112175987D01*
X106958078Y-112206000D01*
X107096301Y-112206000D01*
X107161405Y-112259429D01*
X107249657Y-112306601D01*
X107345415Y-112335649D01*
X107420053Y-112343000D01*
X107420056Y-112343000D01*
X107445000Y-112345457D01*
X107469944Y-112343000D01*
X112017211Y-112343000D01*
X111945058Y-112372887D01*
X111817141Y-112458358D01*
X111708358Y-112567141D01*
X111622887Y-112695058D01*
X111564013Y-112837191D01*
X111534000Y-112988078D01*
X111534000Y-113141922D01*
X111564013Y-113292809D01*
X111622887Y-113434942D01*
X111708358Y-113562859D01*
X111817141Y-113671642D01*
X111945058Y-113757113D01*
X112087191Y-113815987D01*
X112188018Y-113836043D01*
X114163934Y-115811960D01*
X114183815Y-115836185D01*
X114208039Y-115856065D01*
X114208042Y-115856068D01*
X114280505Y-115915537D01*
X114318931Y-115936076D01*
X114390820Y-115974502D01*
X114510518Y-116010812D01*
X114603808Y-116020000D01*
X114603818Y-116020000D01*
X114634999Y-116023071D01*
X114666180Y-116020000D01*
X134599582Y-116020000D01*
X134685058Y-116077113D01*
X134827191Y-116135987D01*
X134978078Y-116166000D01*
X135131922Y-116166000D01*
X135282809Y-116135987D01*
X135424942Y-116077113D01*
X135552859Y-115991642D01*
X135661642Y-115882859D01*
X135747113Y-115754942D01*
X135805987Y-115612809D01*
X135836000Y-115461922D01*
X135836000Y-115308078D01*
X135805987Y-115157191D01*
X135747113Y-115015058D01*
X135661642Y-114887141D01*
X135552859Y-114778358D01*
X135424942Y-114692887D01*
X135282809Y-114634013D01*
X135131922Y-114604000D01*
X134978078Y-114604000D01*
X134827191Y-114634013D01*
X134685058Y-114692887D01*
X134599582Y-114750000D01*
X114898026Y-114750000D01*
X113086043Y-112938018D01*
X113065987Y-112837191D01*
X113007113Y-112695058D01*
X112921642Y-112567141D01*
X112812859Y-112458358D01*
X112684942Y-112372887D01*
X112612789Y-112343000D01*
X119460092Y-112343000D01*
X119422141Y-112368358D01*
X119313358Y-112477141D01*
X119227887Y-112605058D01*
X119169013Y-112747191D01*
X119139000Y-112898078D01*
X119139000Y-113051922D01*
X119169013Y-113202809D01*
X119227887Y-113344942D01*
X119313358Y-113472859D01*
X119422141Y-113581642D01*
X119550058Y-113667113D01*
X119692191Y-113725987D01*
X119793018Y-113746043D01*
X120423930Y-114376955D01*
X120443815Y-114401185D01*
X120468043Y-114421068D01*
X120540505Y-114480537D01*
X120595284Y-114509817D01*
X120650820Y-114539502D01*
X120770518Y-114575812D01*
X120863808Y-114585000D01*
X120863818Y-114585000D01*
X120894999Y-114588071D01*
X120926180Y-114585000D01*
X137309582Y-114585000D01*
X137395058Y-114642113D01*
X137537191Y-114700987D01*
X137688078Y-114731000D01*
X137841922Y-114731000D01*
X137992809Y-114700987D01*
X138134942Y-114642113D01*
X138262859Y-114556642D01*
X138371642Y-114447859D01*
X138457113Y-114319942D01*
X138515987Y-114177809D01*
X138546000Y-114026922D01*
X138546000Y-113873078D01*
X138515987Y-113722191D01*
X138457113Y-113580058D01*
X138371642Y-113452141D01*
X138262859Y-113343358D01*
X138134942Y-113257887D01*
X137992809Y-113199013D01*
X137841922Y-113169000D01*
X137688078Y-113169000D01*
X137537191Y-113199013D01*
X137395058Y-113257887D01*
X137309582Y-113315000D01*
X121158025Y-113315000D01*
X120691043Y-112848018D01*
X120670987Y-112747191D01*
X120612113Y-112605058D01*
X120526642Y-112477141D01*
X120417859Y-112368358D01*
X120379908Y-112343000D01*
X127377798Y-112343000D01*
X127425696Y-112368602D01*
X127521454Y-112397650D01*
X127596092Y-112405001D01*
X127596095Y-112405001D01*
X127621039Y-112407458D01*
X127645983Y-112405001D01*
X128294017Y-112405001D01*
X128318961Y-112407458D01*
X128343905Y-112405001D01*
X128343908Y-112405001D01*
X128418546Y-112397650D01*
X128514304Y-112368602D01*
X128562202Y-112343000D01*
X142055056Y-112343000D01*
X142080000Y-112345457D01*
X142104944Y-112343000D01*
X142104947Y-112343000D01*
X142179585Y-112335649D01*
X142275343Y-112306601D01*
X142363595Y-112259429D01*
X142428699Y-112206000D01*
X142566922Y-112206000D01*
X142717809Y-112175987D01*
X142859942Y-112117113D01*
X142987859Y-112031642D01*
X143096642Y-111922859D01*
X143182113Y-111794942D01*
X143203209Y-111744011D01*
X147295763Y-115836565D01*
X147311670Y-115855948D01*
X147389023Y-115919429D01*
X147477275Y-115966601D01*
X147573033Y-115995649D01*
X147647671Y-116003000D01*
X147647674Y-116003000D01*
X147672618Y-116005457D01*
X147697562Y-116003000D01*
X156309000Y-116003000D01*
X156309001Y-118229000D01*
X102221000Y-118229000D01*
X102221000Y-72113078D01*
X106889000Y-72113078D01*
X106889000Y-72266922D01*
X106919013Y-72417809D01*
X106977887Y-72559942D01*
X107063358Y-72687859D01*
X107172141Y-72796642D01*
X107300058Y-72882113D01*
X107442191Y-72940987D01*
X107593078Y-72971000D01*
X107746922Y-72971000D01*
X107897809Y-72940987D01*
X108039942Y-72882113D01*
X108167859Y-72796642D01*
X108276642Y-72687859D01*
X108362113Y-72559942D01*
X108378244Y-72520998D01*
X119817261Y-72520998D01*
X119789000Y-72663078D01*
X119789000Y-72816922D01*
X119819013Y-72967809D01*
X119877887Y-73109942D01*
X119963358Y-73237859D01*
X120072141Y-73346642D01*
X120200058Y-73432113D01*
X120342191Y-73490987D01*
X120493078Y-73521000D01*
X120646922Y-73521000D01*
X120797809Y-73490987D01*
X120939942Y-73432113D01*
X121067859Y-73346642D01*
X121166501Y-73248000D01*
X121895056Y-73248000D01*
X121920000Y-73250457D01*
X121944944Y-73248000D01*
X121944947Y-73248000D01*
X122019585Y-73240649D01*
X122115343Y-73211601D01*
X122203595Y-73164429D01*
X122280948Y-73100948D01*
X122296855Y-73081565D01*
X123840421Y-71538000D01*
X148119580Y-71538000D01*
X156965554Y-80383974D01*
X156929013Y-80472191D01*
X156899000Y-80623078D01*
X156899000Y-80776922D01*
X156929013Y-80927809D01*
X156987887Y-81069942D01*
X157073358Y-81197859D01*
X157182141Y-81306642D01*
X157310058Y-81392113D01*
X157452191Y-81450987D01*
X157603078Y-81481000D01*
X157756922Y-81481000D01*
X157907809Y-81450987D01*
X158049942Y-81392113D01*
X158177859Y-81306642D01*
X158286642Y-81197859D01*
X158372113Y-81069942D01*
X158430987Y-80927809D01*
X158461000Y-80776922D01*
X158461000Y-80623078D01*
X158430987Y-80472191D01*
X158381014Y-80351546D01*
X158494850Y-80275484D01*
X158553042Y-80217292D01*
X158622308Y-80263574D01*
X158764441Y-80322448D01*
X158915328Y-80352461D01*
X159069172Y-80352461D01*
X159140328Y-80338307D01*
X159168655Y-80480717D01*
X159227529Y-80622850D01*
X159313000Y-80750767D01*
X159421783Y-80859550D01*
X159549700Y-80945021D01*
X159691833Y-81003895D01*
X159842720Y-81033908D01*
X159996564Y-81033908D01*
X160147451Y-81003895D01*
X160289584Y-80945021D01*
X160417501Y-80859550D01*
X160526284Y-80750767D01*
X160611755Y-80622850D01*
X160670629Y-80480717D01*
X160700642Y-80329830D01*
X160700642Y-80175986D01*
X160670629Y-80025099D01*
X160611755Y-79882966D01*
X160526284Y-79755049D01*
X160427642Y-79656407D01*
X160427642Y-79447834D01*
X160430099Y-79422890D01*
X160426944Y-79390855D01*
X160420291Y-79323306D01*
X160391243Y-79227548D01*
X160381773Y-79209831D01*
X160344071Y-79139295D01*
X160296492Y-79081320D01*
X160280590Y-79061943D01*
X160261213Y-79046041D01*
X150323607Y-69108436D01*
X150307700Y-69089053D01*
X150230347Y-69025572D01*
X150173151Y-68995000D01*
X157576976Y-68995000D01*
X160173930Y-71591955D01*
X160193815Y-71616185D01*
X160290506Y-71695537D01*
X160400820Y-71754502D01*
X160520518Y-71790812D01*
X160613808Y-71800000D01*
X160613818Y-71800000D01*
X160644999Y-71803071D01*
X160676180Y-71800000D01*
X165771976Y-71800000D01*
X167810000Y-73838026D01*
X167810001Y-78003809D01*
X167806929Y-78035000D01*
X167810001Y-78066191D01*
X167810001Y-78066192D01*
X167817219Y-78139474D01*
X167819189Y-78159481D01*
X167855498Y-78279179D01*
X167914463Y-78389493D01*
X167929125Y-78407359D01*
X167993816Y-78486185D01*
X168018046Y-78506070D01*
X169123958Y-79611983D01*
X169144013Y-79712809D01*
X169202887Y-79854942D01*
X169288358Y-79982859D01*
X169397141Y-80091642D01*
X169525058Y-80177113D01*
X169667191Y-80235987D01*
X169818078Y-80266000D01*
X169971922Y-80266000D01*
X170122809Y-80235987D01*
X170264942Y-80177113D01*
X170392859Y-80091642D01*
X170501642Y-79982859D01*
X170587113Y-79854942D01*
X170645987Y-79712809D01*
X170676000Y-79561922D01*
X170676000Y-79408078D01*
X170645987Y-79257191D01*
X170587113Y-79115058D01*
X170501642Y-78987141D01*
X170392859Y-78878358D01*
X170264942Y-78792887D01*
X170122809Y-78734013D01*
X170021983Y-78713958D01*
X169080000Y-77771976D01*
X169080000Y-73606189D01*
X169083072Y-73575000D01*
X169079912Y-73542918D01*
X169070812Y-73450518D01*
X169034502Y-73330820D01*
X169020270Y-73304194D01*
X168975538Y-73220506D01*
X168916069Y-73148043D01*
X168916065Y-73148039D01*
X168896185Y-73123815D01*
X168871962Y-73103936D01*
X166506074Y-70738050D01*
X166486185Y-70713815D01*
X166389494Y-70634463D01*
X166279180Y-70575498D01*
X166159482Y-70539188D01*
X166066192Y-70530000D01*
X166066181Y-70530000D01*
X166035000Y-70526929D01*
X166003819Y-70530000D01*
X160908025Y-70530000D01*
X158311074Y-67933050D01*
X158291185Y-67908815D01*
X158194494Y-67829463D01*
X158084180Y-67770498D01*
X157964482Y-67734188D01*
X157871192Y-67725000D01*
X157871181Y-67725000D01*
X157840000Y-67721929D01*
X157808819Y-67725000D01*
X146743025Y-67725000D01*
X145846074Y-66828050D01*
X145826185Y-66803815D01*
X145729494Y-66724463D01*
X145619180Y-66665498D01*
X145499482Y-66629188D01*
X145406192Y-66620000D01*
X145406181Y-66620000D01*
X145375000Y-66616929D01*
X145343819Y-66620000D01*
X143435418Y-66620000D01*
X143349942Y-66562887D01*
X143207809Y-66504013D01*
X143106982Y-66483957D01*
X142466075Y-65843051D01*
X142446186Y-65818816D01*
X142349495Y-65739464D01*
X142239181Y-65680499D01*
X142119483Y-65644189D01*
X142026193Y-65635001D01*
X142026182Y-65635001D01*
X141995001Y-65631930D01*
X141963820Y-65635001D01*
X131325330Y-65635001D01*
X131294149Y-65631930D01*
X131262968Y-65635001D01*
X131262958Y-65635001D01*
X131169668Y-65644189D01*
X131049970Y-65680499D01*
X130939656Y-65739464D01*
X130842965Y-65818816D01*
X130823080Y-65843046D01*
X129192916Y-67473211D01*
X129168681Y-67493100D01*
X129089329Y-67589792D01*
X129030364Y-67700106D01*
X128994054Y-67819804D01*
X128984866Y-67913094D01*
X128984866Y-67913104D01*
X128981795Y-67944285D01*
X128984866Y-67975466D01*
X128984866Y-68054552D01*
X128927753Y-68140028D01*
X128868879Y-68282161D01*
X128838866Y-68433048D01*
X128838866Y-68586892D01*
X128868879Y-68737779D01*
X128927753Y-68879912D01*
X128969239Y-68942001D01*
X120304942Y-68942001D01*
X120279998Y-68939544D01*
X120255054Y-68942001D01*
X120255052Y-68942001D01*
X120180414Y-68949352D01*
X120084656Y-68978400D01*
X120053600Y-68995000D01*
X119996403Y-69025572D01*
X119978205Y-69040507D01*
X119943486Y-69069000D01*
X119803078Y-69069000D01*
X119652191Y-69099013D01*
X119510058Y-69157887D01*
X119382141Y-69243358D01*
X119273358Y-69352141D01*
X119187887Y-69480058D01*
X119129013Y-69622191D01*
X119099000Y-69773078D01*
X119099000Y-69926922D01*
X119129013Y-70077809D01*
X119187887Y-70219942D01*
X119273358Y-70347859D01*
X119382141Y-70456642D01*
X119510058Y-70542113D01*
X119652191Y-70600987D01*
X119803078Y-70631000D01*
X119956922Y-70631000D01*
X120107809Y-70600987D01*
X120249942Y-70542113D01*
X120377859Y-70456642D01*
X120486642Y-70347859D01*
X120572113Y-70219942D01*
X120630987Y-70077809D01*
X120654818Y-69958001D01*
X121943579Y-69958001D01*
X121502580Y-70399000D01*
X121363078Y-70399000D01*
X121212191Y-70429013D01*
X121070058Y-70487887D01*
X120942141Y-70573358D01*
X120833358Y-70682141D01*
X120747887Y-70810058D01*
X120689013Y-70952191D01*
X120659000Y-71103078D01*
X120659000Y-71256922D01*
X120689013Y-71407809D01*
X120729270Y-71504998D01*
X108050584Y-71504998D01*
X108039942Y-71497887D01*
X107897809Y-71439013D01*
X107746922Y-71409000D01*
X107593078Y-71409000D01*
X107442191Y-71439013D01*
X107300058Y-71497887D01*
X107172141Y-71583358D01*
X107063358Y-71692141D01*
X106977887Y-71820058D01*
X106919013Y-71962191D01*
X106889000Y-72113078D01*
X102221000Y-72113078D01*
X102221000Y-64591000D01*
X186309000Y-64591000D01*
X186309001Y-118229000D01*
G37*
X186309001Y-118229000D02*
X174671000Y-118229000D01*
X174671000Y-115931168D01*
X174673085Y-115910000D01*
X174664763Y-115825509D01*
X174640118Y-115744266D01*
X174600097Y-115669391D01*
X174546237Y-115603763D01*
X174480609Y-115549903D01*
X174405734Y-115509882D01*
X174324491Y-115485237D01*
X174261168Y-115479000D01*
X174240000Y-115476915D01*
X174218832Y-115479000D01*
X165982929Y-115479000D01*
X167285811Y-114176118D01*
X167425313Y-114176118D01*
X167576200Y-114146105D01*
X167718333Y-114087231D01*
X167846250Y-114001760D01*
X167955033Y-113892977D01*
X168040504Y-113765060D01*
X168099378Y-113622927D01*
X168129391Y-113472040D01*
X168129391Y-113318196D01*
X168099378Y-113167309D01*
X168040504Y-113025176D01*
X167955033Y-112897259D01*
X167920597Y-112862823D01*
X168050477Y-112732944D01*
X168994796Y-112732944D01*
X169019740Y-112735401D01*
X169044684Y-112732944D01*
X169044687Y-112732944D01*
X169119325Y-112725593D01*
X169215083Y-112696545D01*
X169303335Y-112649373D01*
X169380688Y-112585892D01*
X169396595Y-112566509D01*
X169891349Y-112071755D01*
X170030851Y-112071755D01*
X170181738Y-112041742D01*
X170323871Y-111982868D01*
X170451788Y-111897397D01*
X170560571Y-111788614D01*
X170646042Y-111660697D01*
X170684105Y-111568807D01*
X170762710Y-111584442D01*
X170916554Y-111584442D01*
X171067441Y-111554429D01*
X171209574Y-111495555D01*
X171337491Y-111410084D01*
X171446274Y-111301301D01*
X171531745Y-111173384D01*
X171590619Y-111031251D01*
X171620632Y-110880364D01*
X171620632Y-110726520D01*
X171590619Y-110575633D01*
X171531745Y-110433500D01*
X171446274Y-110305583D01*
X171337491Y-110196800D01*
X171209574Y-110111329D01*
X171067441Y-110052455D01*
X170947633Y-110028624D01*
X170947633Y-108423386D01*
X170995408Y-108471161D01*
X171123325Y-108556632D01*
X171265458Y-108615506D01*
X171416345Y-108645519D01*
X171570189Y-108645519D01*
X171721076Y-108615506D01*
X171863209Y-108556632D01*
X171991126Y-108471161D01*
X172099909Y-108362378D01*
X172185380Y-108234461D01*
X172244254Y-108092328D01*
X172274267Y-107941441D01*
X172274267Y-107801939D01*
X173971565Y-106104641D01*
X173990948Y-106088734D01*
X174054429Y-106011381D01*
X174101601Y-105923129D01*
X174130649Y-105827371D01*
X174138000Y-105752733D01*
X174138000Y-105752730D01*
X174140457Y-105727786D01*
X174138000Y-105702842D01*
X174138000Y-103456501D01*
X174236642Y-103357859D01*
X174322113Y-103229942D01*
X174380987Y-103087809D01*
X174411000Y-102936922D01*
X174411000Y-102783078D01*
X174380987Y-102632191D01*
X174322113Y-102490058D01*
X174236642Y-102362141D01*
X174127859Y-102253358D01*
X173999942Y-102167887D01*
X173857809Y-102109013D01*
X173706922Y-102079000D01*
X173553078Y-102079000D01*
X173402191Y-102109013D01*
X173260058Y-102167887D01*
X173132141Y-102253358D01*
X173023358Y-102362141D01*
X172937887Y-102490058D01*
X172879013Y-102632191D01*
X172849000Y-102783078D01*
X172849000Y-102936922D01*
X172879013Y-103087809D01*
X172937887Y-103229942D01*
X173023358Y-103357859D01*
X173122001Y-103456502D01*
X173122000Y-105517366D01*
X171555847Y-107083519D01*
X171416345Y-107083519D01*
X171291238Y-107108404D01*
X171291238Y-104944436D01*
X171344429Y-104879622D01*
X171391601Y-104791370D01*
X171420649Y-104695612D01*
X171428000Y-104620974D01*
X171428000Y-104620971D01*
X171430457Y-104596027D01*
X171428000Y-104571083D01*
X171428000Y-103910420D01*
X171692420Y-103646000D01*
X171831922Y-103646000D01*
X171982809Y-103615987D01*
X172124942Y-103557113D01*
X172252859Y-103471642D01*
X172361642Y-103362859D01*
X172447113Y-103234942D01*
X172505987Y-103092809D01*
X172536000Y-102941922D01*
X172536000Y-102788078D01*
X172505987Y-102637191D01*
X172447113Y-102495058D01*
X172361642Y-102367141D01*
X172252859Y-102258358D01*
X172124942Y-102172887D01*
X171982809Y-102114013D01*
X171831922Y-102084000D01*
X171678078Y-102084000D01*
X171527191Y-102114013D01*
X171385058Y-102172887D01*
X171257141Y-102258358D01*
X171233101Y-102282399D01*
X171174060Y-102223358D01*
X171046143Y-102137887D01*
X170904010Y-102079013D01*
X170753123Y-102049000D01*
X170599279Y-102049000D01*
X170457190Y-102077263D01*
X170457189Y-96661396D01*
X170459647Y-96636442D01*
X170449838Y-96536857D01*
X170420790Y-96441098D01*
X170373619Y-96352847D01*
X170326040Y-96294872D01*
X170326039Y-96294871D01*
X170310137Y-96275494D01*
X170290760Y-96259592D01*
X146083614Y-72052446D01*
X146067707Y-72033063D01*
X145990354Y-71969582D01*
X145902102Y-71922410D01*
X145806344Y-71893362D01*
X145731706Y-71886011D01*
X145731703Y-71886011D01*
X145706759Y-71883554D01*
X145681815Y-71886011D01*
X144761057Y-71886011D01*
X144710370Y-71844414D01*
X144622118Y-71797242D01*
X144526360Y-71768194D01*
X144451722Y-71760843D01*
X144451719Y-71760843D01*
X144426775Y-71758386D01*
X144401831Y-71760843D01*
X130552860Y-71760843D01*
X130527916Y-71758386D01*
X130502972Y-71760843D01*
X130502969Y-71760843D01*
X130428331Y-71768194D01*
X130332573Y-71797242D01*
X130244321Y-71844414D01*
X130166968Y-71907895D01*
X130151061Y-71927278D01*
X128706403Y-73371936D01*
X128566901Y-73371936D01*
X128416014Y-73401949D01*
X128273881Y-73460823D01*
X128145964Y-73546294D01*
X128037181Y-73655077D01*
X127995878Y-73716892D01*
X127974148Y-73728507D01*
X127896795Y-73791988D01*
X127880888Y-73811371D01*
X126864270Y-74827989D01*
X120586000Y-74827989D01*
X120586000Y-74738078D01*
X120555987Y-74587191D01*
X120497113Y-74445058D01*
X120411642Y-74317141D01*
X120302859Y-74208358D01*
X120174942Y-74122887D01*
X120032809Y-74064013D01*
X119881922Y-74034000D01*
X119728078Y-74034000D01*
X119577191Y-74064013D01*
X119435058Y-74122887D01*
X119307141Y-74208358D01*
X119198358Y-74317141D01*
X119112887Y-74445058D01*
X119054013Y-74587191D01*
X119024000Y-74738078D01*
X119024000Y-74891922D01*
X119054013Y-75042809D01*
X119112887Y-75184942D01*
X119191103Y-75302001D01*
X113009942Y-75302001D01*
X112984998Y-75299544D01*
X112960054Y-75302001D01*
X112960052Y-75302001D01*
X112885414Y-75309352D01*
X112789656Y-75338400D01*
X112762542Y-75352893D01*
X112701403Y-75385572D01*
X112658865Y-75420482D01*
X112648486Y-75429000D01*
X112508078Y-75429000D01*
X112357191Y-75459013D01*
X112215058Y-75517887D01*
X112087141Y-75603358D01*
X111978358Y-75712141D01*
X111892887Y-75840058D01*
X111834013Y-75982191D01*
X111804000Y-76133078D01*
X111804000Y-76286922D01*
X111834013Y-76437809D01*
X111892887Y-76579942D01*
X111978358Y-76707859D01*
X112087141Y-76816642D01*
X112215058Y-76902113D01*
X112357191Y-76960987D01*
X112508078Y-76991000D01*
X112661922Y-76991000D01*
X112812809Y-76960987D01*
X112954942Y-76902113D01*
X113082859Y-76816642D01*
X113191642Y-76707859D01*
X113277113Y-76579942D01*
X113335987Y-76437809D01*
X113359818Y-76318001D01*
X116038579Y-76318001D01*
X112994580Y-79362000D01*
X112881501Y-79362000D01*
X112782859Y-79263358D01*
X112654942Y-79177887D01*
X112512809Y-79119013D01*
X112361922Y-79089000D01*
X112208078Y-79089000D01*
X112057191Y-79119013D01*
X111915058Y-79177887D01*
X111787141Y-79263358D01*
X111678358Y-79372141D01*
X111592887Y-79500058D01*
X111534013Y-79642191D01*
X111504000Y-79793078D01*
X111504000Y-79946922D01*
X111534013Y-80097809D01*
X111592887Y-80239942D01*
X111678358Y-80367859D01*
X111787141Y-80476642D01*
X111915058Y-80562113D01*
X112057191Y-80620987D01*
X112208078Y-80651000D01*
X112361922Y-80651000D01*
X112510043Y-80621537D01*
X112292580Y-80839000D01*
X112153078Y-80839000D01*
X112002191Y-80869013D01*
X111860058Y-80927887D01*
X111732141Y-81013358D01*
X111623358Y-81122141D01*
X111537887Y-81250058D01*
X111479013Y-81392191D01*
X111449000Y-81543078D01*
X111449000Y-81696922D01*
X111479013Y-81847809D01*
X111537887Y-81989942D01*
X111623358Y-82117859D01*
X111732141Y-82226642D01*
X111860058Y-82312113D01*
X112002191Y-82370987D01*
X112153078Y-82401000D01*
X112306922Y-82401000D01*
X112457809Y-82370987D01*
X112599942Y-82312113D01*
X112727859Y-82226642D01*
X112836642Y-82117859D01*
X112922113Y-81989942D01*
X112980987Y-81847809D01*
X113011000Y-81696922D01*
X113011000Y-81557420D01*
X117226959Y-77341462D01*
X118465117Y-77341462D01*
X112382580Y-83424000D01*
X112243078Y-83424000D01*
X112092191Y-83454013D01*
X111950058Y-83512887D01*
X111822141Y-83598358D01*
X111713358Y-83707141D01*
X111627887Y-83835058D01*
X111569013Y-83977191D01*
X111539000Y-84128078D01*
X111539000Y-84281922D01*
X111569013Y-84432809D01*
X111627887Y-84574942D01*
X111713358Y-84702859D01*
X111822141Y-84811642D01*
X111950058Y-84897113D01*
X112092191Y-84955987D01*
X112243078Y-84986000D01*
X112396922Y-84986000D01*
X112547809Y-84955987D01*
X112689942Y-84897113D01*
X112817859Y-84811642D01*
X112926642Y-84702859D01*
X113012113Y-84574942D01*
X113070987Y-84432809D01*
X113101000Y-84281922D01*
X113101000Y-84142420D01*
X119447957Y-77795464D01*
X120836115Y-77795464D01*
X112437580Y-86194000D01*
X112298078Y-86194000D01*
X112147191Y-86224013D01*
X112005058Y-86282887D01*
X111877141Y-86368358D01*
X111768358Y-86477141D01*
X111682887Y-86605058D01*
X111624013Y-86747191D01*
X111594000Y-86898078D01*
X111594000Y-87051922D01*
X111624013Y-87202809D01*
X111682887Y-87344942D01*
X111768358Y-87472859D01*
X111877141Y-87581642D01*
X112005058Y-87667113D01*
X112147191Y-87725987D01*
X112298078Y-87756000D01*
X112451922Y-87756000D01*
X112602809Y-87725987D01*
X112744942Y-87667113D01*
X112872859Y-87581642D01*
X112981642Y-87472859D01*
X113067113Y-87344942D01*
X113125987Y-87202809D01*
X113156000Y-87051922D01*
X113156000Y-86912420D01*
X121818946Y-78249475D01*
X122757105Y-78249475D01*
X112382580Y-88624000D01*
X112243078Y-88624000D01*
X112092191Y-88654013D01*
X111950058Y-88712887D01*
X111822141Y-88798358D01*
X111713358Y-88907141D01*
X111627887Y-89035058D01*
X111569013Y-89177191D01*
X111539000Y-89328078D01*
X111539000Y-89481922D01*
X111569013Y-89632809D01*
X111627887Y-89774942D01*
X111713358Y-89902859D01*
X111822141Y-90011642D01*
X111950058Y-90097113D01*
X112092191Y-90155987D01*
X112243078Y-90186000D01*
X112396922Y-90186000D01*
X112547809Y-90155987D01*
X112689942Y-90097113D01*
X112817859Y-90011642D01*
X112926642Y-89902859D01*
X113012113Y-89774942D01*
X113070987Y-89632809D01*
X113101000Y-89481922D01*
X113101000Y-89342420D01*
X123739934Y-78703486D01*
X125238093Y-78703486D01*
X112551988Y-91389592D01*
X112417809Y-91334013D01*
X112266922Y-91304000D01*
X112113078Y-91304000D01*
X111962191Y-91334013D01*
X111820058Y-91392887D01*
X111692141Y-91478358D01*
X111583358Y-91587141D01*
X111497887Y-91715058D01*
X111439013Y-91857191D01*
X111409000Y-92008078D01*
X111409000Y-92161922D01*
X111439013Y-92312809D01*
X111497887Y-92454942D01*
X111583358Y-92582859D01*
X111692141Y-92691642D01*
X111820058Y-92777113D01*
X111849473Y-92789297D01*
X111839053Y-92797848D01*
X111823151Y-92817225D01*
X111823150Y-92817226D01*
X111775571Y-92875201D01*
X111728400Y-92963453D01*
X111699352Y-93059212D01*
X111689543Y-93158796D01*
X111692001Y-93183750D01*
X111692000Y-93953499D01*
X111593358Y-94052141D01*
X111507887Y-94180058D01*
X111449013Y-94322191D01*
X111419000Y-94473078D01*
X111419000Y-94626922D01*
X111449013Y-94777809D01*
X111507887Y-94919942D01*
X111593358Y-95047859D01*
X111702141Y-95156642D01*
X111830058Y-95242113D01*
X111972191Y-95300987D01*
X112123078Y-95331000D01*
X112276922Y-95331000D01*
X112427809Y-95300987D01*
X112569942Y-95242113D01*
X112697859Y-95156642D01*
X112806642Y-95047859D01*
X112892113Y-94919942D01*
X112950987Y-94777809D01*
X112981000Y-94626922D01*
X112981000Y-94473078D01*
X112950987Y-94322191D01*
X112892113Y-94180058D01*
X112806642Y-94052141D01*
X112708000Y-93953499D01*
X112708000Y-93369216D01*
X122855961Y-83221255D01*
X122855959Y-85640620D01*
X112177580Y-96319000D01*
X112038078Y-96319000D01*
X111887191Y-96349013D01*
X111745058Y-96407887D01*
X111617141Y-96493358D01*
X111508358Y-96602141D01*
X111422887Y-96730058D01*
X111364013Y-96872191D01*
X111334000Y-97023078D01*
X111334000Y-97176922D01*
X111364013Y-97327809D01*
X111422887Y-97469942D01*
X111508358Y-97597859D01*
X111617141Y-97706642D01*
X111745058Y-97792113D01*
X111887191Y-97850987D01*
X112038078Y-97881000D01*
X112191922Y-97881000D01*
X112342809Y-97850987D01*
X112484942Y-97792113D01*
X112612859Y-97706642D01*
X112721642Y-97597859D01*
X112807113Y-97469942D01*
X112865987Y-97327809D01*
X112896000Y-97176922D01*
X112896000Y-97037420D01*
X123309970Y-86623451D01*
X123309969Y-87831610D01*
X112282580Y-98859000D01*
X112143078Y-98859000D01*
X111992191Y-98889013D01*
X111850058Y-98947887D01*
X111722141Y-99033358D01*
X111613358Y-99142141D01*
X111527887Y-99270058D01*
X111469013Y-99412191D01*
X111439000Y-99563078D01*
X111439000Y-99716922D01*
X111469013Y-99867809D01*
X111527887Y-100009942D01*
X111613358Y-100137859D01*
X111722141Y-100246642D01*
X111850058Y-100332113D01*
X111992191Y-100390987D01*
X112143078Y-100421000D01*
X112296922Y-100421000D01*
X112447809Y-100390987D01*
X112589942Y-100332113D01*
X112717859Y-100246642D01*
X112826642Y-100137859D01*
X112912113Y-100009942D01*
X112970987Y-99867809D01*
X113001000Y-99716922D01*
X113001000Y-99577420D01*
X123763979Y-88814442D01*
X123763979Y-89892601D01*
X112252580Y-101404000D01*
X112113078Y-101404000D01*
X111962191Y-101434013D01*
X111820058Y-101492887D01*
X111692141Y-101578358D01*
X111583358Y-101687141D01*
X111497887Y-101815058D01*
X111439013Y-101957191D01*
X111409000Y-102108078D01*
X111409000Y-102261922D01*
X111439013Y-102412809D01*
X111497887Y-102554942D01*
X111583358Y-102682859D01*
X111692141Y-102791642D01*
X111820058Y-102877113D01*
X111888795Y-102905585D01*
X111851404Y-102925571D01*
X111802218Y-102965937D01*
X111774052Y-102989052D01*
X111758149Y-103008430D01*
X111314580Y-103452000D01*
X106766501Y-103452000D01*
X106667859Y-103353358D01*
X106539942Y-103267887D01*
X106397809Y-103209013D01*
X106246922Y-103179000D01*
X106093078Y-103179000D01*
X105942191Y-103209013D01*
X105800058Y-103267887D01*
X105672141Y-103353358D01*
X105563358Y-103462141D01*
X105477887Y-103590058D01*
X105419013Y-103732191D01*
X105389000Y-103883078D01*
X105389000Y-104036922D01*
X105419013Y-104187809D01*
X105477887Y-104329942D01*
X105563358Y-104457859D01*
X105672141Y-104566642D01*
X105800058Y-104652113D01*
X105942191Y-104710987D01*
X106093078Y-104741000D01*
X106246922Y-104741000D01*
X106397809Y-104710987D01*
X106539942Y-104652113D01*
X106667859Y-104566642D01*
X106766501Y-104468000D01*
X111500056Y-104468000D01*
X111525000Y-104470457D01*
X111549944Y-104468000D01*
X111549947Y-104468000D01*
X111624585Y-104460649D01*
X111720343Y-104431601D01*
X111808595Y-104384429D01*
X111885948Y-104320948D01*
X111901855Y-104301565D01*
X112345421Y-103858000D01*
X112840056Y-103858000D01*
X112865000Y-103860457D01*
X112889944Y-103858000D01*
X112889947Y-103858000D01*
X112964585Y-103850649D01*
X113060343Y-103821601D01*
X113148595Y-103774429D01*
X113225948Y-103710948D01*
X113241855Y-103691565D01*
X116415421Y-100518000D01*
X121847263Y-100518000D01*
X121790027Y-100556244D01*
X121681244Y-100665027D01*
X121595773Y-100792944D01*
X121568987Y-100857609D01*
X121529304Y-100836398D01*
X121433546Y-100807350D01*
X121358908Y-100799999D01*
X121358905Y-100799999D01*
X121333961Y-100797542D01*
X121309017Y-100799999D01*
X116896945Y-100799999D01*
X116872001Y-100797542D01*
X116847057Y-100799999D01*
X116847054Y-100799999D01*
X116772416Y-100807350D01*
X116676658Y-100836398D01*
X116588406Y-100883570D01*
X116511053Y-100947051D01*
X116495146Y-100966434D01*
X112763041Y-104698540D01*
X112752859Y-104688358D01*
X112624942Y-104602887D01*
X112482809Y-104544013D01*
X112331922Y-104514000D01*
X112178078Y-104514000D01*
X112027191Y-104544013D01*
X111885058Y-104602887D01*
X111757141Y-104688358D01*
X111648358Y-104797141D01*
X111562887Y-104925058D01*
X111504013Y-105067191D01*
X111474000Y-105218078D01*
X111474000Y-105371922D01*
X111504013Y-105522809D01*
X111562887Y-105664942D01*
X111648358Y-105792859D01*
X111757141Y-105901642D01*
X111885058Y-105987113D01*
X112027191Y-106045987D01*
X112178078Y-106076000D01*
X112331922Y-106076000D01*
X112482809Y-106045987D01*
X112624942Y-105987113D01*
X112752859Y-105901642D01*
X112851501Y-105803000D01*
X112860056Y-105803000D01*
X112885000Y-105805457D01*
X112909944Y-105803000D01*
X112909947Y-105803000D01*
X112984585Y-105795649D01*
X113080343Y-105766601D01*
X113168595Y-105719429D01*
X113245948Y-105655948D01*
X113261855Y-105636565D01*
X117082421Y-101815999D01*
X121131002Y-101815999D01*
X121147367Y-101829429D01*
X121235619Y-101876601D01*
X121331377Y-101905649D01*
X121406015Y-101913000D01*
X121406017Y-101913000D01*
X121430961Y-101915457D01*
X121455905Y-101913000D01*
X122020828Y-101913000D01*
X122045772Y-101915457D01*
X122060665Y-101913990D01*
X122210964Y-101943886D01*
X122364808Y-101943886D01*
X122486765Y-101919627D01*
X122510475Y-102038827D01*
X122569349Y-102180960D01*
X122654820Y-102308877D01*
X122656262Y-102310319D01*
X117744580Y-107222000D01*
X113211501Y-107222000D01*
X113112859Y-107123358D01*
X112984942Y-107037887D01*
X112842809Y-106979013D01*
X112691922Y-106949000D01*
X112538078Y-106949000D01*
X112387191Y-106979013D01*
X112245058Y-107037887D01*
X112117141Y-107123358D01*
X112008358Y-107232141D01*
X111922887Y-107360058D01*
X111864013Y-107502191D01*
X111834000Y-107653078D01*
X111834000Y-107806922D01*
X111864013Y-107957809D01*
X111922887Y-108099942D01*
X112008358Y-108227859D01*
X112117141Y-108336642D01*
X112245058Y-108422113D01*
X112387191Y-108480987D01*
X112538078Y-108511000D01*
X112691922Y-108511000D01*
X112842809Y-108480987D01*
X112984942Y-108422113D01*
X113112859Y-108336642D01*
X113211501Y-108238000D01*
X117468442Y-108238000D01*
X116554442Y-109152000D01*
X113141501Y-109152000D01*
X113042859Y-109053358D01*
X112914942Y-108967887D01*
X112772809Y-108909013D01*
X112621922Y-108879000D01*
X112468078Y-108879000D01*
X112317191Y-108909013D01*
X112175058Y-108967887D01*
X112047141Y-109053358D01*
X111938358Y-109162141D01*
X111852887Y-109290058D01*
X111794013Y-109432191D01*
X111764000Y-109583078D01*
X111764000Y-109736922D01*
X111794013Y-109887809D01*
X111852887Y-110029942D01*
X111938358Y-110157859D01*
X112047141Y-110266642D01*
X112175058Y-110352113D01*
X112317191Y-110410987D01*
X112468078Y-110441000D01*
X112621922Y-110441000D01*
X112772809Y-110410987D01*
X112914942Y-110352113D01*
X113042859Y-110266642D01*
X113141501Y-110168000D01*
X116739918Y-110168000D01*
X116764862Y-110170457D01*
X116789806Y-110168000D01*
X116789809Y-110168000D01*
X116864447Y-110160649D01*
X116960205Y-110131601D01*
X117048457Y-110084429D01*
X117125810Y-110020948D01*
X117141717Y-110001565D01*
X124372315Y-102770968D01*
X124511816Y-102770968D01*
X124662703Y-102740955D01*
X124804836Y-102682081D01*
X124932753Y-102596610D01*
X125041536Y-102487827D01*
X125127007Y-102359910D01*
X125185881Y-102217777D01*
X125215894Y-102066890D01*
X125215894Y-101913046D01*
X125196988Y-101818000D01*
X125208499Y-101818000D01*
X125307141Y-101916642D01*
X125435058Y-102002113D01*
X125577191Y-102060987D01*
X125728078Y-102091000D01*
X125881922Y-102091000D01*
X126032809Y-102060987D01*
X126174942Y-102002113D01*
X126302859Y-101916642D01*
X126411642Y-101807859D01*
X126497113Y-101679942D01*
X126555987Y-101537809D01*
X126586000Y-101386922D01*
X126586000Y-101233078D01*
X126555987Y-101082191D01*
X126497113Y-100940058D01*
X126411642Y-100812141D01*
X126302859Y-100703358D01*
X126174942Y-100617887D01*
X126032809Y-100559013D01*
X125881922Y-100529000D01*
X125728078Y-100529000D01*
X125577191Y-100559013D01*
X125435058Y-100617887D01*
X125307141Y-100703358D01*
X125228058Y-100782441D01*
X125213595Y-100770571D01*
X125125343Y-100723399D01*
X125029585Y-100694351D01*
X124954947Y-100687000D01*
X124954944Y-100687000D01*
X124930000Y-100684543D01*
X124905056Y-100687000D01*
X123900421Y-100687000D01*
X122881855Y-99668435D01*
X122865948Y-99649052D01*
X122788595Y-99585571D01*
X122700343Y-99538399D01*
X122604585Y-99509351D01*
X122529947Y-99502000D01*
X122529944Y-99502000D01*
X122505000Y-99499543D01*
X122480056Y-99502000D01*
X116229943Y-99502000D01*
X116204999Y-99499543D01*
X116180055Y-99502000D01*
X116180053Y-99502000D01*
X116105415Y-99509351D01*
X116009657Y-99538399D01*
X116009655Y-99538400D01*
X115921404Y-99585571D01*
X115885868Y-99614735D01*
X115844052Y-99649052D01*
X115828150Y-99668429D01*
X112654580Y-102842000D01*
X112612493Y-102842000D01*
X112687859Y-102791642D01*
X112796642Y-102682859D01*
X112882113Y-102554942D01*
X112940987Y-102412809D01*
X112971000Y-102261922D01*
X112971000Y-102122420D01*
X124613549Y-90479871D01*
X124632926Y-90463969D01*
X124648829Y-90444591D01*
X124696408Y-90386616D01*
X124743579Y-90298365D01*
X124772627Y-90202606D01*
X124782436Y-90103021D01*
X124779978Y-90078067D01*
X124779980Y-83223440D01*
X127029880Y-80973541D01*
X129655342Y-80973539D01*
X129637151Y-80991730D01*
X129617768Y-81007637D01*
X129554287Y-81084990D01*
X129529289Y-81131758D01*
X129480857Y-81164119D01*
X129372074Y-81272902D01*
X129286603Y-81400819D01*
X129227729Y-81542952D01*
X129197716Y-81693839D01*
X129197716Y-81847683D01*
X129227729Y-81998570D01*
X129286603Y-82140703D01*
X129372074Y-82268620D01*
X129480857Y-82377403D01*
X129608774Y-82462874D01*
X129750907Y-82521748D01*
X129901794Y-82551761D01*
X130055638Y-82551761D01*
X130206525Y-82521748D01*
X130348658Y-82462874D01*
X130476575Y-82377403D01*
X130585358Y-82268620D01*
X130670829Y-82140703D01*
X130729703Y-81998570D01*
X130759716Y-81847683D01*
X130759716Y-81693839D01*
X130729703Y-81542952D01*
X130670829Y-81400819D01*
X130668455Y-81397266D01*
X130933096Y-81132625D01*
X131013583Y-81253084D01*
X131122366Y-81361867D01*
X131250283Y-81447338D01*
X131392416Y-81506212D01*
X131543303Y-81536225D01*
X131697147Y-81536225D01*
X131848034Y-81506212D01*
X131990167Y-81447338D01*
X132118084Y-81361867D01*
X132161222Y-81318730D01*
X132177437Y-81334945D01*
X132305354Y-81420416D01*
X132447487Y-81479290D01*
X132598374Y-81509303D01*
X132752218Y-81509303D01*
X132903105Y-81479290D01*
X133045238Y-81420416D01*
X133173155Y-81334945D01*
X133281938Y-81226162D01*
X133367409Y-81098245D01*
X133426283Y-80956112D01*
X133456296Y-80805225D01*
X133456296Y-80665723D01*
X134172571Y-79949449D01*
X135153215Y-79949449D01*
X135136280Y-80034587D01*
X135066633Y-80034587D01*
X134915746Y-80064600D01*
X134773613Y-80123474D01*
X134645696Y-80208945D01*
X134536913Y-80317728D01*
X134451442Y-80445645D01*
X134392568Y-80587778D01*
X134362555Y-80738665D01*
X134362555Y-80892509D01*
X134392568Y-81043396D01*
X134451442Y-81185529D01*
X134536913Y-81313446D01*
X134635556Y-81412089D01*
X134635555Y-102940993D01*
X134633098Y-102965937D01*
X134635555Y-102990881D01*
X134635555Y-102990883D01*
X134642906Y-103065521D01*
X134671954Y-103161279D01*
X134719126Y-103249532D01*
X134782607Y-103326885D01*
X134801990Y-103342792D01*
X142170989Y-110711791D01*
X142120058Y-110732887D01*
X141992141Y-110818358D01*
X141883358Y-110927141D01*
X141797887Y-111055058D01*
X141739013Y-111197191D01*
X141713193Y-111327000D01*
X128405906Y-111327000D01*
X128380962Y-111324543D01*
X128356018Y-111327000D01*
X128356015Y-111327000D01*
X128281377Y-111334351D01*
X128185619Y-111363399D01*
X128137721Y-111389001D01*
X127802279Y-111389001D01*
X127754381Y-111363399D01*
X127658623Y-111334351D01*
X127583985Y-111327000D01*
X127583982Y-111327000D01*
X127559038Y-111324543D01*
X127534094Y-111327000D01*
X107811807Y-111327000D01*
X107785987Y-111197191D01*
X107727113Y-111055058D01*
X107641642Y-110927141D01*
X107532859Y-110818358D01*
X107404942Y-110732887D01*
X107262809Y-110674013D01*
X107111922Y-110644000D01*
X106958078Y-110644000D01*
X106807191Y-110674013D01*
X106665058Y-110732887D01*
X106537141Y-110818358D01*
X106428358Y-110927141D01*
X106342887Y-111055058D01*
X106284013Y-111197191D01*
X106254000Y-111348078D01*
X106254000Y-111501922D01*
X106284013Y-111652809D01*
X106342887Y-111794942D01*
X106428358Y-111922859D01*
X106537141Y-112031642D01*
X106665058Y-112117113D01*
X106807191Y-112175987D01*
X106958078Y-112206000D01*
X107096301Y-112206000D01*
X107161405Y-112259429D01*
X107249657Y-112306601D01*
X107345415Y-112335649D01*
X107420053Y-112343000D01*
X107420056Y-112343000D01*
X107445000Y-112345457D01*
X107469944Y-112343000D01*
X112017211Y-112343000D01*
X111945058Y-112372887D01*
X111817141Y-112458358D01*
X111708358Y-112567141D01*
X111622887Y-112695058D01*
X111564013Y-112837191D01*
X111534000Y-112988078D01*
X111534000Y-113141922D01*
X111564013Y-113292809D01*
X111622887Y-113434942D01*
X111708358Y-113562859D01*
X111817141Y-113671642D01*
X111945058Y-113757113D01*
X112087191Y-113815987D01*
X112188018Y-113836043D01*
X114163934Y-115811960D01*
X114183815Y-115836185D01*
X114208039Y-115856065D01*
X114208042Y-115856068D01*
X114280505Y-115915537D01*
X114318931Y-115936076D01*
X114390820Y-115974502D01*
X114510518Y-116010812D01*
X114603808Y-116020000D01*
X114603818Y-116020000D01*
X114634999Y-116023071D01*
X114666180Y-116020000D01*
X134599582Y-116020000D01*
X134685058Y-116077113D01*
X134827191Y-116135987D01*
X134978078Y-116166000D01*
X135131922Y-116166000D01*
X135282809Y-116135987D01*
X135424942Y-116077113D01*
X135552859Y-115991642D01*
X135661642Y-115882859D01*
X135747113Y-115754942D01*
X135805987Y-115612809D01*
X135836000Y-115461922D01*
X135836000Y-115308078D01*
X135805987Y-115157191D01*
X135747113Y-115015058D01*
X135661642Y-114887141D01*
X135552859Y-114778358D01*
X135424942Y-114692887D01*
X135282809Y-114634013D01*
X135131922Y-114604000D01*
X134978078Y-114604000D01*
X134827191Y-114634013D01*
X134685058Y-114692887D01*
X134599582Y-114750000D01*
X114898026Y-114750000D01*
X113086043Y-112938018D01*
X113065987Y-112837191D01*
X113007113Y-112695058D01*
X112921642Y-112567141D01*
X112812859Y-112458358D01*
X112684942Y-112372887D01*
X112612789Y-112343000D01*
X119460092Y-112343000D01*
X119422141Y-112368358D01*
X119313358Y-112477141D01*
X119227887Y-112605058D01*
X119169013Y-112747191D01*
X119139000Y-112898078D01*
X119139000Y-113051922D01*
X119169013Y-113202809D01*
X119227887Y-113344942D01*
X119313358Y-113472859D01*
X119422141Y-113581642D01*
X119550058Y-113667113D01*
X119692191Y-113725987D01*
X119793018Y-113746043D01*
X120423930Y-114376955D01*
X120443815Y-114401185D01*
X120468043Y-114421068D01*
X120540505Y-114480537D01*
X120595284Y-114509817D01*
X120650820Y-114539502D01*
X120770518Y-114575812D01*
X120863808Y-114585000D01*
X120863818Y-114585000D01*
X120894999Y-114588071D01*
X120926180Y-114585000D01*
X137309582Y-114585000D01*
X137395058Y-114642113D01*
X137537191Y-114700987D01*
X137688078Y-114731000D01*
X137841922Y-114731000D01*
X137992809Y-114700987D01*
X138134942Y-114642113D01*
X138262859Y-114556642D01*
X138371642Y-114447859D01*
X138457113Y-114319942D01*
X138515987Y-114177809D01*
X138546000Y-114026922D01*
X138546000Y-113873078D01*
X138515987Y-113722191D01*
X138457113Y-113580058D01*
X138371642Y-113452141D01*
X138262859Y-113343358D01*
X138134942Y-113257887D01*
X137992809Y-113199013D01*
X137841922Y-113169000D01*
X137688078Y-113169000D01*
X137537191Y-113199013D01*
X137395058Y-113257887D01*
X137309582Y-113315000D01*
X121158025Y-113315000D01*
X120691043Y-112848018D01*
X120670987Y-112747191D01*
X120612113Y-112605058D01*
X120526642Y-112477141D01*
X120417859Y-112368358D01*
X120379908Y-112343000D01*
X127377798Y-112343000D01*
X127425696Y-112368602D01*
X127521454Y-112397650D01*
X127596092Y-112405001D01*
X127596095Y-112405001D01*
X127621039Y-112407458D01*
X127645983Y-112405001D01*
X128294017Y-112405001D01*
X128318961Y-112407458D01*
X128343905Y-112405001D01*
X128343908Y-112405001D01*
X128418546Y-112397650D01*
X128514304Y-112368602D01*
X128562202Y-112343000D01*
X142055056Y-112343000D01*
X142080000Y-112345457D01*
X142104944Y-112343000D01*
X142104947Y-112343000D01*
X142179585Y-112335649D01*
X142275343Y-112306601D01*
X142363595Y-112259429D01*
X142428699Y-112206000D01*
X142566922Y-112206000D01*
X142717809Y-112175987D01*
X142859942Y-112117113D01*
X142987859Y-112031642D01*
X143096642Y-111922859D01*
X143182113Y-111794942D01*
X143203209Y-111744011D01*
X147295763Y-115836565D01*
X147311670Y-115855948D01*
X147389023Y-115919429D01*
X147477275Y-115966601D01*
X147573033Y-115995649D01*
X147647671Y-116003000D01*
X147647674Y-116003000D01*
X147672618Y-116005457D01*
X147697562Y-116003000D01*
X156309000Y-116003000D01*
X156309001Y-118229000D01*
X102221000Y-118229000D01*
X102221000Y-72113078D01*
X106889000Y-72113078D01*
X106889000Y-72266922D01*
X106919013Y-72417809D01*
X106977887Y-72559942D01*
X107063358Y-72687859D01*
X107172141Y-72796642D01*
X107300058Y-72882113D01*
X107442191Y-72940987D01*
X107593078Y-72971000D01*
X107746922Y-72971000D01*
X107897809Y-72940987D01*
X108039942Y-72882113D01*
X108167859Y-72796642D01*
X108276642Y-72687859D01*
X108362113Y-72559942D01*
X108378244Y-72520998D01*
X119817261Y-72520998D01*
X119789000Y-72663078D01*
X119789000Y-72816922D01*
X119819013Y-72967809D01*
X119877887Y-73109942D01*
X119963358Y-73237859D01*
X120072141Y-73346642D01*
X120200058Y-73432113D01*
X120342191Y-73490987D01*
X120493078Y-73521000D01*
X120646922Y-73521000D01*
X120797809Y-73490987D01*
X120939942Y-73432113D01*
X121067859Y-73346642D01*
X121166501Y-73248000D01*
X121895056Y-73248000D01*
X121920000Y-73250457D01*
X121944944Y-73248000D01*
X121944947Y-73248000D01*
X122019585Y-73240649D01*
X122115343Y-73211601D01*
X122203595Y-73164429D01*
X122280948Y-73100948D01*
X122296855Y-73081565D01*
X123840421Y-71538000D01*
X148119580Y-71538000D01*
X156965554Y-80383974D01*
X156929013Y-80472191D01*
X156899000Y-80623078D01*
X156899000Y-80776922D01*
X156929013Y-80927809D01*
X156987887Y-81069942D01*
X157073358Y-81197859D01*
X157182141Y-81306642D01*
X157310058Y-81392113D01*
X157452191Y-81450987D01*
X157603078Y-81481000D01*
X157756922Y-81481000D01*
X157907809Y-81450987D01*
X158049942Y-81392113D01*
X158177859Y-81306642D01*
X158286642Y-81197859D01*
X158372113Y-81069942D01*
X158430987Y-80927809D01*
X158461000Y-80776922D01*
X158461000Y-80623078D01*
X158430987Y-80472191D01*
X158381014Y-80351546D01*
X158494850Y-80275484D01*
X158553042Y-80217292D01*
X158622308Y-80263574D01*
X158764441Y-80322448D01*
X158915328Y-80352461D01*
X159069172Y-80352461D01*
X159140328Y-80338307D01*
X159168655Y-80480717D01*
X159227529Y-80622850D01*
X159313000Y-80750767D01*
X159421783Y-80859550D01*
X159549700Y-80945021D01*
X159691833Y-81003895D01*
X159842720Y-81033908D01*
X159996564Y-81033908D01*
X160147451Y-81003895D01*
X160289584Y-80945021D01*
X160417501Y-80859550D01*
X160526284Y-80750767D01*
X160611755Y-80622850D01*
X160670629Y-80480717D01*
X160700642Y-80329830D01*
X160700642Y-80175986D01*
X160670629Y-80025099D01*
X160611755Y-79882966D01*
X160526284Y-79755049D01*
X160427642Y-79656407D01*
X160427642Y-79447834D01*
X160430099Y-79422890D01*
X160426944Y-79390855D01*
X160420291Y-79323306D01*
X160391243Y-79227548D01*
X160381773Y-79209831D01*
X160344071Y-79139295D01*
X160296492Y-79081320D01*
X160280590Y-79061943D01*
X160261213Y-79046041D01*
X150323607Y-69108436D01*
X150307700Y-69089053D01*
X150230347Y-69025572D01*
X150173151Y-68995000D01*
X157576976Y-68995000D01*
X160173930Y-71591955D01*
X160193815Y-71616185D01*
X160290506Y-71695537D01*
X160400820Y-71754502D01*
X160520518Y-71790812D01*
X160613808Y-71800000D01*
X160613818Y-71800000D01*
X160644999Y-71803071D01*
X160676180Y-71800000D01*
X165771976Y-71800000D01*
X167810000Y-73838026D01*
X167810001Y-78003809D01*
X167806929Y-78035000D01*
X167810001Y-78066191D01*
X167810001Y-78066192D01*
X167817219Y-78139474D01*
X167819189Y-78159481D01*
X167855498Y-78279179D01*
X167914463Y-78389493D01*
X167929125Y-78407359D01*
X167993816Y-78486185D01*
X168018046Y-78506070D01*
X169123958Y-79611983D01*
X169144013Y-79712809D01*
X169202887Y-79854942D01*
X169288358Y-79982859D01*
X169397141Y-80091642D01*
X169525058Y-80177113D01*
X169667191Y-80235987D01*
X169818078Y-80266000D01*
X169971922Y-80266000D01*
X170122809Y-80235987D01*
X170264942Y-80177113D01*
X170392859Y-80091642D01*
X170501642Y-79982859D01*
X170587113Y-79854942D01*
X170645987Y-79712809D01*
X170676000Y-79561922D01*
X170676000Y-79408078D01*
X170645987Y-79257191D01*
X170587113Y-79115058D01*
X170501642Y-78987141D01*
X170392859Y-78878358D01*
X170264942Y-78792887D01*
X170122809Y-78734013D01*
X170021983Y-78713958D01*
X169080000Y-77771976D01*
X169080000Y-73606189D01*
X169083072Y-73575000D01*
X169079912Y-73542918D01*
X169070812Y-73450518D01*
X169034502Y-73330820D01*
X169020270Y-73304194D01*
X168975538Y-73220506D01*
X168916069Y-73148043D01*
X168916065Y-73148039D01*
X168896185Y-73123815D01*
X168871962Y-73103936D01*
X166506074Y-70738050D01*
X166486185Y-70713815D01*
X166389494Y-70634463D01*
X166279180Y-70575498D01*
X166159482Y-70539188D01*
X166066192Y-70530000D01*
X166066181Y-70530000D01*
X166035000Y-70526929D01*
X166003819Y-70530000D01*
X160908025Y-70530000D01*
X158311074Y-67933050D01*
X158291185Y-67908815D01*
X158194494Y-67829463D01*
X158084180Y-67770498D01*
X157964482Y-67734188D01*
X157871192Y-67725000D01*
X157871181Y-67725000D01*
X157840000Y-67721929D01*
X157808819Y-67725000D01*
X146743025Y-67725000D01*
X145846074Y-66828050D01*
X145826185Y-66803815D01*
X145729494Y-66724463D01*
X145619180Y-66665498D01*
X145499482Y-66629188D01*
X145406192Y-66620000D01*
X145406181Y-66620000D01*
X145375000Y-66616929D01*
X145343819Y-66620000D01*
X143435418Y-66620000D01*
X143349942Y-66562887D01*
X143207809Y-66504013D01*
X143106982Y-66483957D01*
X142466075Y-65843051D01*
X142446186Y-65818816D01*
X142349495Y-65739464D01*
X142239181Y-65680499D01*
X142119483Y-65644189D01*
X142026193Y-65635001D01*
X142026182Y-65635001D01*
X141995001Y-65631930D01*
X141963820Y-65635001D01*
X131325330Y-65635001D01*
X131294149Y-65631930D01*
X131262968Y-65635001D01*
X131262958Y-65635001D01*
X131169668Y-65644189D01*
X131049970Y-65680499D01*
X130939656Y-65739464D01*
X130842965Y-65818816D01*
X130823080Y-65843046D01*
X129192916Y-67473211D01*
X129168681Y-67493100D01*
X129089329Y-67589792D01*
X129030364Y-67700106D01*
X128994054Y-67819804D01*
X128984866Y-67913094D01*
X128984866Y-67913104D01*
X128981795Y-67944285D01*
X128984866Y-67975466D01*
X128984866Y-68054552D01*
X128927753Y-68140028D01*
X128868879Y-68282161D01*
X128838866Y-68433048D01*
X128838866Y-68586892D01*
X128868879Y-68737779D01*
X128927753Y-68879912D01*
X128969239Y-68942001D01*
X120304942Y-68942001D01*
X120279998Y-68939544D01*
X120255054Y-68942001D01*
X120255052Y-68942001D01*
X120180414Y-68949352D01*
X120084656Y-68978400D01*
X120053600Y-68995000D01*
X119996403Y-69025572D01*
X119978205Y-69040507D01*
X119943486Y-69069000D01*
X119803078Y-69069000D01*
X119652191Y-69099013D01*
X119510058Y-69157887D01*
X119382141Y-69243358D01*
X119273358Y-69352141D01*
X119187887Y-69480058D01*
X119129013Y-69622191D01*
X119099000Y-69773078D01*
X119099000Y-69926922D01*
X119129013Y-70077809D01*
X119187887Y-70219942D01*
X119273358Y-70347859D01*
X119382141Y-70456642D01*
X119510058Y-70542113D01*
X119652191Y-70600987D01*
X119803078Y-70631000D01*
X119956922Y-70631000D01*
X120107809Y-70600987D01*
X120249942Y-70542113D01*
X120377859Y-70456642D01*
X120486642Y-70347859D01*
X120572113Y-70219942D01*
X120630987Y-70077809D01*
X120654818Y-69958001D01*
X121943579Y-69958001D01*
X121502580Y-70399000D01*
X121363078Y-70399000D01*
X121212191Y-70429013D01*
X121070058Y-70487887D01*
X120942141Y-70573358D01*
X120833358Y-70682141D01*
X120747887Y-70810058D01*
X120689013Y-70952191D01*
X120659000Y-71103078D01*
X120659000Y-71256922D01*
X120689013Y-71407809D01*
X120729270Y-71504998D01*
X108050584Y-71504998D01*
X108039942Y-71497887D01*
X107897809Y-71439013D01*
X107746922Y-71409000D01*
X107593078Y-71409000D01*
X107442191Y-71439013D01*
X107300058Y-71497887D01*
X107172141Y-71583358D01*
X107063358Y-71692141D01*
X106977887Y-71820058D01*
X106919013Y-71962191D01*
X106889000Y-72113078D01*
X102221000Y-72113078D01*
X102221000Y-64591000D01*
X186309000Y-64591000D01*
X186309001Y-118229000D01*
G36*
X142208957Y-67381982D02*
G01*
X142229013Y-67482809D01*
X142287887Y-67624942D01*
X142373358Y-67752859D01*
X142482141Y-67861642D01*
X142610058Y-67947113D01*
X142752191Y-68005987D01*
X142903078Y-68036000D01*
X143056922Y-68036000D01*
X143207809Y-68005987D01*
X143349942Y-67947113D01*
X143435418Y-67890000D01*
X145111976Y-67890000D01*
X146008930Y-68786955D01*
X146028815Y-68811185D01*
X146125506Y-68890537D01*
X146221787Y-68942001D01*
X130270493Y-68942001D01*
X130311979Y-68879912D01*
X130370853Y-68737779D01*
X130400866Y-68586892D01*
X130400866Y-68433048D01*
X130370853Y-68282161D01*
X130314957Y-68147218D01*
X131557175Y-66905001D01*
X141731977Y-66905001D01*
X142208957Y-67381982D01*
G37*
X142208957Y-67381982D02*
X142229013Y-67482809D01*
X142287887Y-67624942D01*
X142373358Y-67752859D01*
X142482141Y-67861642D01*
X142610058Y-67947113D01*
X142752191Y-68005987D01*
X142903078Y-68036000D01*
X143056922Y-68036000D01*
X143207809Y-68005987D01*
X143349942Y-67947113D01*
X143435418Y-67890000D01*
X145111976Y-67890000D01*
X146008930Y-68786955D01*
X146028815Y-68811185D01*
X146125506Y-68890537D01*
X146221787Y-68942001D01*
X130270493Y-68942001D01*
X130311979Y-68879912D01*
X130370853Y-68737779D01*
X130400866Y-68586892D01*
X130400866Y-68433048D01*
X130370853Y-68282161D01*
X130314957Y-68147218D01*
X131557175Y-66905001D01*
X141731977Y-66905001D01*
X142208957Y-67381982D01*
G36*
X158508040Y-98113524D02*
G01*
X158508041Y-100153416D01*
X157113059Y-98758435D01*
X157097152Y-98739052D01*
X157019799Y-98675571D01*
X156931547Y-98628399D01*
X156835789Y-98599351D01*
X156761151Y-98592000D01*
X156761148Y-98592000D01*
X156736204Y-98589543D01*
X156711260Y-98592000D01*
X144810420Y-98592000D01*
X144061000Y-97842580D01*
X144061000Y-97703078D01*
X144030987Y-97552191D01*
X143972113Y-97410058D01*
X143886642Y-97282141D01*
X143777859Y-97173358D01*
X143649942Y-97087887D01*
X143507809Y-97029013D01*
X143356922Y-96999000D01*
X143203078Y-96999000D01*
X143052191Y-97029013D01*
X142910058Y-97087887D01*
X142782141Y-97173358D01*
X142673358Y-97282141D01*
X142587887Y-97410058D01*
X142529013Y-97552191D01*
X142499000Y-97703078D01*
X142499000Y-97856922D01*
X142529013Y-98007809D01*
X142587887Y-98149942D01*
X142673358Y-98277859D01*
X142782141Y-98386642D01*
X142910058Y-98472113D01*
X143052191Y-98530987D01*
X143203078Y-98561000D01*
X143342580Y-98561000D01*
X143835558Y-99053978D01*
X143402110Y-99053978D01*
X143392740Y-99039954D01*
X143283957Y-98931171D01*
X143156040Y-98845700D01*
X143013907Y-98786826D01*
X142863020Y-98756813D01*
X142709176Y-98756813D01*
X142558289Y-98786826D01*
X142416156Y-98845700D01*
X142288239Y-98931171D01*
X142179456Y-99039954D01*
X142093985Y-99167871D01*
X142035111Y-99310004D01*
X142005098Y-99460891D01*
X142005098Y-99614735D01*
X142035111Y-99765622D01*
X142093985Y-99907755D01*
X142179456Y-100035672D01*
X142288239Y-100144455D01*
X142382446Y-100207402D01*
X142289752Y-100207402D01*
X142138865Y-100237415D01*
X141996732Y-100296289D01*
X141868815Y-100381760D01*
X141760032Y-100490543D01*
X141674561Y-100618460D01*
X141615687Y-100760593D01*
X141585674Y-100911480D01*
X141585674Y-101065324D01*
X141615687Y-101216211D01*
X141674561Y-101358344D01*
X141685476Y-101374680D01*
X141632247Y-101396728D01*
X141504330Y-101482199D01*
X141395547Y-101590982D01*
X141310076Y-101718899D01*
X141251202Y-101861032D01*
X141221189Y-102011919D01*
X141221189Y-102165763D01*
X141251202Y-102316650D01*
X141310076Y-102458783D01*
X141395547Y-102586700D01*
X141504330Y-102695483D01*
X141632247Y-102780954D01*
X141774380Y-102839828D01*
X141925267Y-102869841D01*
X142079111Y-102869841D01*
X142229998Y-102839828D01*
X142349289Y-102790416D01*
X142406795Y-102876480D01*
X142427134Y-102896819D01*
X142340058Y-102932887D01*
X142212141Y-103018358D01*
X142103358Y-103127141D01*
X142017887Y-103255058D01*
X141959013Y-103397191D01*
X141929000Y-103548078D01*
X141929000Y-103701922D01*
X141959013Y-103852809D01*
X142017887Y-103994942D01*
X142103358Y-104122859D01*
X142212141Y-104231642D01*
X142340058Y-104317113D01*
X142482191Y-104375987D01*
X142633078Y-104406000D01*
X142664499Y-104406000D01*
X142618358Y-104452141D01*
X142532887Y-104580058D01*
X142474013Y-104722191D01*
X142444000Y-104873078D01*
X142444000Y-105026922D01*
X142474013Y-105177809D01*
X142532887Y-105319942D01*
X142618358Y-105447859D01*
X142727141Y-105556642D01*
X142855058Y-105642113D01*
X142997191Y-105700987D01*
X143148078Y-105731000D01*
X143301922Y-105731000D01*
X143452809Y-105700987D01*
X143587972Y-105645000D01*
X145514582Y-105645000D01*
X145600058Y-105702113D01*
X145742191Y-105760987D01*
X145893078Y-105791000D01*
X146046922Y-105791000D01*
X146197809Y-105760987D01*
X146339942Y-105702113D01*
X146467859Y-105616642D01*
X146576642Y-105507859D01*
X146662113Y-105379942D01*
X146720987Y-105237809D01*
X146751000Y-105086922D01*
X146751000Y-104933078D01*
X146720987Y-104782191D01*
X146662113Y-104640058D01*
X146576642Y-104512141D01*
X146467859Y-104403358D01*
X146339942Y-104317887D01*
X146197809Y-104259013D01*
X146046922Y-104229000D01*
X145893078Y-104229000D01*
X145742191Y-104259013D01*
X145600058Y-104317887D01*
X145514582Y-104375000D01*
X143754501Y-104375000D01*
X143722859Y-104343358D01*
X143594942Y-104257887D01*
X143452809Y-104199013D01*
X143301922Y-104169000D01*
X143270501Y-104169000D01*
X143316642Y-104122859D01*
X143402113Y-103994942D01*
X143460987Y-103852809D01*
X143491000Y-103701922D01*
X143491000Y-103563000D01*
X148389580Y-103563000D01*
X155526571Y-110699992D01*
X155542474Y-110719370D01*
X155561851Y-110735272D01*
X155619826Y-110782851D01*
X155698038Y-110824656D01*
X155708079Y-110830023D01*
X155803837Y-110859071D01*
X155878475Y-110866422D01*
X155878477Y-110866422D01*
X155903421Y-110868879D01*
X155928365Y-110866422D01*
X160123002Y-110866422D01*
X160214000Y-110957420D01*
X160214000Y-111096922D01*
X160229928Y-111177000D01*
X150115420Y-111177000D01*
X148716000Y-109777580D01*
X148716000Y-109638078D01*
X148685987Y-109487191D01*
X148627113Y-109345058D01*
X148541642Y-109217141D01*
X148432859Y-109108358D01*
X148304942Y-109022887D01*
X148162809Y-108964013D01*
X148011922Y-108934000D01*
X147858078Y-108934000D01*
X147707191Y-108964013D01*
X147565058Y-109022887D01*
X147437141Y-109108358D01*
X147328358Y-109217141D01*
X147242887Y-109345058D01*
X147184013Y-109487191D01*
X147154000Y-109638078D01*
X147154000Y-109791922D01*
X147184013Y-109942809D01*
X147242887Y-110084942D01*
X147328358Y-110212859D01*
X147437141Y-110321642D01*
X147565058Y-110407113D01*
X147707191Y-110465987D01*
X147858078Y-110496000D01*
X147997580Y-110496000D01*
X149528145Y-112026565D01*
X149544052Y-112045948D01*
X149621405Y-112109429D01*
X149709657Y-112156601D01*
X149805415Y-112185649D01*
X149880053Y-112193000D01*
X149880056Y-112193000D01*
X149905000Y-112195457D01*
X149929944Y-112193000D01*
X160189580Y-112193000D01*
X160234157Y-112237578D01*
X160202449Y-112254526D01*
X160147855Y-112299331D01*
X160125097Y-112318007D01*
X160109194Y-112337385D01*
X159809580Y-112637000D01*
X148955420Y-112637000D01*
X141996966Y-105678546D01*
X141996966Y-105305977D01*
X141999423Y-105281033D01*
X141995701Y-105243246D01*
X141989615Y-105181449D01*
X141960567Y-105085691D01*
X141950912Y-105067628D01*
X141913395Y-104997438D01*
X141865816Y-104939463D01*
X141849914Y-104920086D01*
X141830537Y-104904184D01*
X140993000Y-104066648D01*
X140993000Y-82910290D01*
X141300850Y-82602440D01*
X141440352Y-82602440D01*
X141591239Y-82572427D01*
X141733372Y-82513553D01*
X141861289Y-82428082D01*
X141970072Y-82319299D01*
X142055543Y-82191382D01*
X142114417Y-82049249D01*
X142144430Y-81898362D01*
X142144430Y-81749913D01*
X158508040Y-98113524D01*
G37*
X158508040Y-98113524D02*
X158508041Y-100153416D01*
X157113059Y-98758435D01*
X157097152Y-98739052D01*
X157019799Y-98675571D01*
X156931547Y-98628399D01*
X156835789Y-98599351D01*
X156761151Y-98592000D01*
X156761148Y-98592000D01*
X156736204Y-98589543D01*
X156711260Y-98592000D01*
X144810420Y-98592000D01*
X144061000Y-97842580D01*
X144061000Y-97703078D01*
X144030987Y-97552191D01*
X143972113Y-97410058D01*
X143886642Y-97282141D01*
X143777859Y-97173358D01*
X143649942Y-97087887D01*
X143507809Y-97029013D01*
X143356922Y-96999000D01*
X143203078Y-96999000D01*
X143052191Y-97029013D01*
X142910058Y-97087887D01*
X142782141Y-97173358D01*
X142673358Y-97282141D01*
X142587887Y-97410058D01*
X142529013Y-97552191D01*
X142499000Y-97703078D01*
X142499000Y-97856922D01*
X142529013Y-98007809D01*
X142587887Y-98149942D01*
X142673358Y-98277859D01*
X142782141Y-98386642D01*
X142910058Y-98472113D01*
X143052191Y-98530987D01*
X143203078Y-98561000D01*
X143342580Y-98561000D01*
X143835558Y-99053978D01*
X143402110Y-99053978D01*
X143392740Y-99039954D01*
X143283957Y-98931171D01*
X143156040Y-98845700D01*
X143013907Y-98786826D01*
X142863020Y-98756813D01*
X142709176Y-98756813D01*
X142558289Y-98786826D01*
X142416156Y-98845700D01*
X142288239Y-98931171D01*
X142179456Y-99039954D01*
X142093985Y-99167871D01*
X142035111Y-99310004D01*
X142005098Y-99460891D01*
X142005098Y-99614735D01*
X142035111Y-99765622D01*
X142093985Y-99907755D01*
X142179456Y-100035672D01*
X142288239Y-100144455D01*
X142382446Y-100207402D01*
X142289752Y-100207402D01*
X142138865Y-100237415D01*
X141996732Y-100296289D01*
X141868815Y-100381760D01*
X141760032Y-100490543D01*
X141674561Y-100618460D01*
X141615687Y-100760593D01*
X141585674Y-100911480D01*
X141585674Y-101065324D01*
X141615687Y-101216211D01*
X141674561Y-101358344D01*
X141685476Y-101374680D01*
X141632247Y-101396728D01*
X141504330Y-101482199D01*
X141395547Y-101590982D01*
X141310076Y-101718899D01*
X141251202Y-101861032D01*
X141221189Y-102011919D01*
X141221189Y-102165763D01*
X141251202Y-102316650D01*
X141310076Y-102458783D01*
X141395547Y-102586700D01*
X141504330Y-102695483D01*
X141632247Y-102780954D01*
X141774380Y-102839828D01*
X141925267Y-102869841D01*
X142079111Y-102869841D01*
X142229998Y-102839828D01*
X142349289Y-102790416D01*
X142406795Y-102876480D01*
X142427134Y-102896819D01*
X142340058Y-102932887D01*
X142212141Y-103018358D01*
X142103358Y-103127141D01*
X142017887Y-103255058D01*
X141959013Y-103397191D01*
X141929000Y-103548078D01*
X141929000Y-103701922D01*
X141959013Y-103852809D01*
X142017887Y-103994942D01*
X142103358Y-104122859D01*
X142212141Y-104231642D01*
X142340058Y-104317113D01*
X142482191Y-104375987D01*
X142633078Y-104406000D01*
X142664499Y-104406000D01*
X142618358Y-104452141D01*
X142532887Y-104580058D01*
X142474013Y-104722191D01*
X142444000Y-104873078D01*
X142444000Y-105026922D01*
X142474013Y-105177809D01*
X142532887Y-105319942D01*
X142618358Y-105447859D01*
X142727141Y-105556642D01*
X142855058Y-105642113D01*
X142997191Y-105700987D01*
X143148078Y-105731000D01*
X143301922Y-105731000D01*
X143452809Y-105700987D01*
X143587972Y-105645000D01*
X145514582Y-105645000D01*
X145600058Y-105702113D01*
X145742191Y-105760987D01*
X145893078Y-105791000D01*
X146046922Y-105791000D01*
X146197809Y-105760987D01*
X146339942Y-105702113D01*
X146467859Y-105616642D01*
X146576642Y-105507859D01*
X146662113Y-105379942D01*
X146720987Y-105237809D01*
X146751000Y-105086922D01*
X146751000Y-104933078D01*
X146720987Y-104782191D01*
X146662113Y-104640058D01*
X146576642Y-104512141D01*
X146467859Y-104403358D01*
X146339942Y-104317887D01*
X146197809Y-104259013D01*
X146046922Y-104229000D01*
X145893078Y-104229000D01*
X145742191Y-104259013D01*
X145600058Y-104317887D01*
X145514582Y-104375000D01*
X143754501Y-104375000D01*
X143722859Y-104343358D01*
X143594942Y-104257887D01*
X143452809Y-104199013D01*
X143301922Y-104169000D01*
X143270501Y-104169000D01*
X143316642Y-104122859D01*
X143402113Y-103994942D01*
X143460987Y-103852809D01*
X143491000Y-103701922D01*
X143491000Y-103563000D01*
X148389580Y-103563000D01*
X155526571Y-110699992D01*
X155542474Y-110719370D01*
X155561851Y-110735272D01*
X155619826Y-110782851D01*
X155698038Y-110824656D01*
X155708079Y-110830023D01*
X155803837Y-110859071D01*
X155878475Y-110866422D01*
X155878477Y-110866422D01*
X155903421Y-110868879D01*
X155928365Y-110866422D01*
X160123002Y-110866422D01*
X160214000Y-110957420D01*
X160214000Y-111096922D01*
X160229928Y-111177000D01*
X150115420Y-111177000D01*
X148716000Y-109777580D01*
X148716000Y-109638078D01*
X148685987Y-109487191D01*
X148627113Y-109345058D01*
X148541642Y-109217141D01*
X148432859Y-109108358D01*
X148304942Y-109022887D01*
X148162809Y-108964013D01*
X148011922Y-108934000D01*
X147858078Y-108934000D01*
X147707191Y-108964013D01*
X147565058Y-109022887D01*
X147437141Y-109108358D01*
X147328358Y-109217141D01*
X147242887Y-109345058D01*
X147184013Y-109487191D01*
X147154000Y-109638078D01*
X147154000Y-109791922D01*
X147184013Y-109942809D01*
X147242887Y-110084942D01*
X147328358Y-110212859D01*
X147437141Y-110321642D01*
X147565058Y-110407113D01*
X147707191Y-110465987D01*
X147858078Y-110496000D01*
X147997580Y-110496000D01*
X149528145Y-112026565D01*
X149544052Y-112045948D01*
X149621405Y-112109429D01*
X149709657Y-112156601D01*
X149805415Y-112185649D01*
X149880053Y-112193000D01*
X149880056Y-112193000D01*
X149905000Y-112195457D01*
X149929944Y-112193000D01*
X160189580Y-112193000D01*
X160234157Y-112237578D01*
X160202449Y-112254526D01*
X160147855Y-112299331D01*
X160125097Y-112318007D01*
X160109194Y-112337385D01*
X159809580Y-112637000D01*
X148955420Y-112637000D01*
X141996966Y-105678546D01*
X141996966Y-105305977D01*
X141999423Y-105281033D01*
X141995701Y-105243246D01*
X141989615Y-105181449D01*
X141960567Y-105085691D01*
X141950912Y-105067628D01*
X141913395Y-104997438D01*
X141865816Y-104939463D01*
X141849914Y-104920086D01*
X141830537Y-104904184D01*
X140993000Y-104066648D01*
X140993000Y-82910290D01*
X141300850Y-82602440D01*
X141440352Y-82602440D01*
X141591239Y-82572427D01*
X141733372Y-82513553D01*
X141861289Y-82428082D01*
X141970072Y-82319299D01*
X142055543Y-82191382D01*
X142114417Y-82049249D01*
X142144430Y-81898362D01*
X142144430Y-81749913D01*
X158508040Y-98113524D01*
G36*
X156329544Y-101337965D02*
G01*
X156340571Y-101358595D01*
X156404052Y-101435948D01*
X156423435Y-101451855D01*
X156692001Y-101720421D01*
X156692000Y-103010055D01*
X156689543Y-103035000D01*
X156692000Y-103059944D01*
X156692000Y-103059946D01*
X156699351Y-103134584D01*
X156728399Y-103230342D01*
X156775571Y-103318595D01*
X156839052Y-103395948D01*
X156858435Y-103411855D01*
X157642495Y-104195916D01*
X157562887Y-104315058D01*
X157504013Y-104457191D01*
X157474000Y-104608078D01*
X157474000Y-104761922D01*
X157504013Y-104912809D01*
X157562887Y-105054942D01*
X157648358Y-105182859D01*
X157757141Y-105291642D01*
X157885058Y-105377113D01*
X158027191Y-105435987D01*
X158178078Y-105466000D01*
X158331922Y-105466000D01*
X158482809Y-105435987D01*
X158624942Y-105377113D01*
X158752859Y-105291642D01*
X158861642Y-105182859D01*
X158947113Y-105054942D01*
X159005987Y-104912809D01*
X159010213Y-104891565D01*
X161060287Y-106941640D01*
X161060288Y-107336153D01*
X160961645Y-107434796D01*
X160876174Y-107562713D01*
X160817300Y-107704846D01*
X160787287Y-107855733D01*
X160787287Y-108009577D01*
X160817300Y-108160464D01*
X160876174Y-108302597D01*
X160961645Y-108430514D01*
X161070428Y-108539297D01*
X161198345Y-108624768D01*
X161340478Y-108683642D01*
X161491365Y-108713655D01*
X161645209Y-108713655D01*
X161796096Y-108683642D01*
X161938229Y-108624768D01*
X162066146Y-108539297D01*
X162174929Y-108430514D01*
X162260400Y-108302597D01*
X162274558Y-108268416D01*
X162295058Y-108282113D01*
X162437191Y-108340987D01*
X162588078Y-108371000D01*
X162741922Y-108371000D01*
X162884002Y-108342739D01*
X162884002Y-109305060D01*
X162881544Y-109330014D01*
X162886114Y-109376405D01*
X162891353Y-109429599D01*
X162918672Y-109519657D01*
X162920401Y-109525357D01*
X162967572Y-109613609D01*
X163007100Y-109661774D01*
X163031054Y-109690962D01*
X163050431Y-109706864D01*
X163649000Y-110305434D01*
X163649000Y-110444935D01*
X163679013Y-110595822D01*
X163737887Y-110737955D01*
X163823358Y-110865872D01*
X163932141Y-110974655D01*
X164060058Y-111060126D01*
X164202191Y-111119000D01*
X164353078Y-111149013D01*
X164468828Y-111149013D01*
X164478325Y-111196758D01*
X164537199Y-111338891D01*
X164622670Y-111466808D01*
X164731453Y-111575591D01*
X164859370Y-111661062D01*
X165001503Y-111719936D01*
X165152390Y-111749949D01*
X165306234Y-111749949D01*
X165457121Y-111719936D01*
X165599254Y-111661062D01*
X165727171Y-111575591D01*
X165835954Y-111466808D01*
X165872571Y-111412007D01*
X165964407Y-111450047D01*
X166115294Y-111480060D01*
X166269138Y-111480060D01*
X166420025Y-111450047D01*
X166562158Y-111391173D01*
X166645301Y-111335619D01*
X166710065Y-111400383D01*
X166837982Y-111485854D01*
X166980115Y-111544728D01*
X167131002Y-111574741D01*
X167284846Y-111574741D01*
X167435733Y-111544728D01*
X167577866Y-111485854D01*
X167704821Y-111401026D01*
X167729703Y-111425908D01*
X167857620Y-111511379D01*
X167999753Y-111570253D01*
X168150640Y-111600266D01*
X168304484Y-111600266D01*
X168455371Y-111570253D01*
X168597504Y-111511379D01*
X168725421Y-111425908D01*
X168834204Y-111317125D01*
X168843285Y-111303535D01*
X168977198Y-111359004D01*
X169128085Y-111389017D01*
X169137247Y-111389017D01*
X168809320Y-111716944D01*
X167864999Y-111716944D01*
X167840055Y-111714487D01*
X167815111Y-111716944D01*
X167815109Y-111716944D01*
X167740471Y-111724295D01*
X167644713Y-111753343D01*
X167611704Y-111770987D01*
X167556460Y-111800515D01*
X167521779Y-111828977D01*
X167479108Y-111863996D01*
X167463206Y-111883373D01*
X167274580Y-112072000D01*
X164519943Y-112072000D01*
X164494999Y-112069543D01*
X164470055Y-112072000D01*
X164470053Y-112072000D01*
X164395415Y-112079351D01*
X164299657Y-112108399D01*
X164258576Y-112130357D01*
X164211404Y-112155571D01*
X164174754Y-112185649D01*
X164134052Y-112219052D01*
X164118149Y-112238430D01*
X163839580Y-112517000D01*
X162980421Y-112517000D01*
X162346799Y-111883379D01*
X162330892Y-111863996D01*
X162253539Y-111800515D01*
X162165287Y-111753343D01*
X162069529Y-111724295D01*
X161994891Y-111716944D01*
X161994888Y-111716944D01*
X161969944Y-111714487D01*
X161945000Y-111716944D01*
X161353279Y-111716944D01*
X161364942Y-111712113D01*
X161492859Y-111626642D01*
X161601642Y-111517859D01*
X161687113Y-111389942D01*
X161745987Y-111247809D01*
X161765294Y-111150744D01*
X161879522Y-111150744D01*
X162030409Y-111120731D01*
X162151011Y-111070776D01*
X162151011Y-111154912D01*
X162181024Y-111305799D01*
X162239898Y-111447932D01*
X162325369Y-111575849D01*
X162434152Y-111684632D01*
X162562069Y-111770103D01*
X162704202Y-111828977D01*
X162855089Y-111858990D01*
X163008933Y-111858990D01*
X163159820Y-111828977D01*
X163301953Y-111770103D01*
X163429870Y-111684632D01*
X163538653Y-111575849D01*
X163624124Y-111447932D01*
X163682998Y-111305799D01*
X163713011Y-111154912D01*
X163713011Y-111001068D01*
X163682998Y-110850181D01*
X163624124Y-110708048D01*
X163538653Y-110580131D01*
X163440011Y-110481489D01*
X163440011Y-110465579D01*
X163442468Y-110440635D01*
X163438805Y-110403443D01*
X163432660Y-110341051D01*
X163403612Y-110245293D01*
X163374807Y-110191403D01*
X163356440Y-110157040D01*
X163308861Y-110099065D01*
X163292959Y-110079688D01*
X163273582Y-110063786D01*
X162318630Y-109108835D01*
X162302723Y-109089452D01*
X162225370Y-109025971D01*
X162137118Y-108978799D01*
X162041360Y-108949751D01*
X161966722Y-108942400D01*
X161966719Y-108942400D01*
X161941775Y-108939943D01*
X161916831Y-108942400D01*
X156489956Y-108942400D01*
X149220991Y-101673435D01*
X149205084Y-101654052D01*
X149127731Y-101590571D01*
X149039479Y-101543399D01*
X148943721Y-101514351D01*
X148869083Y-101507000D01*
X148869080Y-101507000D01*
X148844136Y-101504543D01*
X148819192Y-101507000D01*
X144258471Y-101507000D01*
X144787472Y-100978000D01*
X155969580Y-100978000D01*
X156329544Y-101337965D01*
G37*
X156329544Y-101337965D02*
X156340571Y-101358595D01*
X156404052Y-101435948D01*
X156423435Y-101451855D01*
X156692001Y-101720421D01*
X156692000Y-103010055D01*
X156689543Y-103035000D01*
X156692000Y-103059944D01*
X156692000Y-103059946D01*
X156699351Y-103134584D01*
X156728399Y-103230342D01*
X156775571Y-103318595D01*
X156839052Y-103395948D01*
X156858435Y-103411855D01*
X157642495Y-104195916D01*
X157562887Y-104315058D01*
X157504013Y-104457191D01*
X157474000Y-104608078D01*
X157474000Y-104761922D01*
X157504013Y-104912809D01*
X157562887Y-105054942D01*
X157648358Y-105182859D01*
X157757141Y-105291642D01*
X157885058Y-105377113D01*
X158027191Y-105435987D01*
X158178078Y-105466000D01*
X158331922Y-105466000D01*
X158482809Y-105435987D01*
X158624942Y-105377113D01*
X158752859Y-105291642D01*
X158861642Y-105182859D01*
X158947113Y-105054942D01*
X159005987Y-104912809D01*
X159010213Y-104891565D01*
X161060287Y-106941640D01*
X161060288Y-107336153D01*
X160961645Y-107434796D01*
X160876174Y-107562713D01*
X160817300Y-107704846D01*
X160787287Y-107855733D01*
X160787287Y-108009577D01*
X160817300Y-108160464D01*
X160876174Y-108302597D01*
X160961645Y-108430514D01*
X161070428Y-108539297D01*
X161198345Y-108624768D01*
X161340478Y-108683642D01*
X161491365Y-108713655D01*
X161645209Y-108713655D01*
X161796096Y-108683642D01*
X161938229Y-108624768D01*
X162066146Y-108539297D01*
X162174929Y-108430514D01*
X162260400Y-108302597D01*
X162274558Y-108268416D01*
X162295058Y-108282113D01*
X162437191Y-108340987D01*
X162588078Y-108371000D01*
X162741922Y-108371000D01*
X162884002Y-108342739D01*
X162884002Y-109305060D01*
X162881544Y-109330014D01*
X162886114Y-109376405D01*
X162891353Y-109429599D01*
X162918672Y-109519657D01*
X162920401Y-109525357D01*
X162967572Y-109613609D01*
X163007100Y-109661774D01*
X163031054Y-109690962D01*
X163050431Y-109706864D01*
X163649000Y-110305434D01*
X163649000Y-110444935D01*
X163679013Y-110595822D01*
X163737887Y-110737955D01*
X163823358Y-110865872D01*
X163932141Y-110974655D01*
X164060058Y-111060126D01*
X164202191Y-111119000D01*
X164353078Y-111149013D01*
X164468828Y-111149013D01*
X164478325Y-111196758D01*
X164537199Y-111338891D01*
X164622670Y-111466808D01*
X164731453Y-111575591D01*
X164859370Y-111661062D01*
X165001503Y-111719936D01*
X165152390Y-111749949D01*
X165306234Y-111749949D01*
X165457121Y-111719936D01*
X165599254Y-111661062D01*
X165727171Y-111575591D01*
X165835954Y-111466808D01*
X165872571Y-111412007D01*
X165964407Y-111450047D01*
X166115294Y-111480060D01*
X166269138Y-111480060D01*
X166420025Y-111450047D01*
X166562158Y-111391173D01*
X166645301Y-111335619D01*
X166710065Y-111400383D01*
X166837982Y-111485854D01*
X166980115Y-111544728D01*
X167131002Y-111574741D01*
X167284846Y-111574741D01*
X167435733Y-111544728D01*
X167577866Y-111485854D01*
X167704821Y-111401026D01*
X167729703Y-111425908D01*
X167857620Y-111511379D01*
X167999753Y-111570253D01*
X168150640Y-111600266D01*
X168304484Y-111600266D01*
X168455371Y-111570253D01*
X168597504Y-111511379D01*
X168725421Y-111425908D01*
X168834204Y-111317125D01*
X168843285Y-111303535D01*
X168977198Y-111359004D01*
X169128085Y-111389017D01*
X169137247Y-111389017D01*
X168809320Y-111716944D01*
X167864999Y-111716944D01*
X167840055Y-111714487D01*
X167815111Y-111716944D01*
X167815109Y-111716944D01*
X167740471Y-111724295D01*
X167644713Y-111753343D01*
X167611704Y-111770987D01*
X167556460Y-111800515D01*
X167521779Y-111828977D01*
X167479108Y-111863996D01*
X167463206Y-111883373D01*
X167274580Y-112072000D01*
X164519943Y-112072000D01*
X164494999Y-112069543D01*
X164470055Y-112072000D01*
X164470053Y-112072000D01*
X164395415Y-112079351D01*
X164299657Y-112108399D01*
X164258576Y-112130357D01*
X164211404Y-112155571D01*
X164174754Y-112185649D01*
X164134052Y-112219052D01*
X164118149Y-112238430D01*
X163839580Y-112517000D01*
X162980421Y-112517000D01*
X162346799Y-111883379D01*
X162330892Y-111863996D01*
X162253539Y-111800515D01*
X162165287Y-111753343D01*
X162069529Y-111724295D01*
X161994891Y-111716944D01*
X161994888Y-111716944D01*
X161969944Y-111714487D01*
X161945000Y-111716944D01*
X161353279Y-111716944D01*
X161364942Y-111712113D01*
X161492859Y-111626642D01*
X161601642Y-111517859D01*
X161687113Y-111389942D01*
X161745987Y-111247809D01*
X161765294Y-111150744D01*
X161879522Y-111150744D01*
X162030409Y-111120731D01*
X162151011Y-111070776D01*
X162151011Y-111154912D01*
X162181024Y-111305799D01*
X162239898Y-111447932D01*
X162325369Y-111575849D01*
X162434152Y-111684632D01*
X162562069Y-111770103D01*
X162704202Y-111828977D01*
X162855089Y-111858990D01*
X163008933Y-111858990D01*
X163159820Y-111828977D01*
X163301953Y-111770103D01*
X163429870Y-111684632D01*
X163538653Y-111575849D01*
X163624124Y-111447932D01*
X163682998Y-111305799D01*
X163713011Y-111154912D01*
X163713011Y-111001068D01*
X163682998Y-110850181D01*
X163624124Y-110708048D01*
X163538653Y-110580131D01*
X163440011Y-110481489D01*
X163440011Y-110465579D01*
X163442468Y-110440635D01*
X163438805Y-110403443D01*
X163432660Y-110341051D01*
X163403612Y-110245293D01*
X163374807Y-110191403D01*
X163356440Y-110157040D01*
X163308861Y-110099065D01*
X163292959Y-110079688D01*
X163273582Y-110063786D01*
X162318630Y-109108835D01*
X162302723Y-109089452D01*
X162225370Y-109025971D01*
X162137118Y-108978799D01*
X162041360Y-108949751D01*
X161966722Y-108942400D01*
X161966719Y-108942400D01*
X161941775Y-108939943D01*
X161916831Y-108942400D01*
X156489956Y-108942400D01*
X149220991Y-101673435D01*
X149205084Y-101654052D01*
X149127731Y-101590571D01*
X149039479Y-101543399D01*
X148943721Y-101514351D01*
X148869083Y-101507000D01*
X148869080Y-101507000D01*
X148844136Y-101504543D01*
X148819192Y-101507000D01*
X144258471Y-101507000D01*
X144787472Y-100978000D01*
X155969580Y-100978000D01*
X156329544Y-101337965D01*
G36*
X164572396Y-99588271D02*
G01*
X164657867Y-99716188D01*
X164766650Y-99824971D01*
X164894567Y-99910442D01*
X165036700Y-99969316D01*
X165187587Y-99999329D01*
X165341431Y-99999329D01*
X165492318Y-99969316D01*
X165553570Y-99943944D01*
X165551022Y-99956755D01*
X165551022Y-100110599D01*
X165581035Y-100261486D01*
X165639909Y-100403619D01*
X165725380Y-100531536D01*
X165834163Y-100640319D01*
X165962080Y-100725790D01*
X166028773Y-100753415D01*
X166010043Y-100847578D01*
X166010043Y-101001422D01*
X166040056Y-101152309D01*
X166098930Y-101294442D01*
X166184401Y-101422359D01*
X166293184Y-101531142D01*
X166421101Y-101616613D01*
X166483029Y-101642265D01*
X166463032Y-101742796D01*
X166463032Y-101896640D01*
X166493045Y-102047527D01*
X166551919Y-102189660D01*
X166637390Y-102317577D01*
X166746173Y-102426360D01*
X166874090Y-102511831D01*
X167016223Y-102570705D01*
X167127288Y-102592797D01*
X167127288Y-102644161D01*
X167157301Y-102795048D01*
X167216175Y-102937181D01*
X167301646Y-103065098D01*
X167410429Y-103173881D01*
X167538346Y-103259352D01*
X167680479Y-103318226D01*
X167831366Y-103348239D01*
X167985210Y-103348239D01*
X168031094Y-103339112D01*
X168076065Y-103447682D01*
X168161536Y-103575599D01*
X168270319Y-103684382D01*
X168398236Y-103769853D01*
X168422726Y-103779997D01*
X168396200Y-103913356D01*
X168396200Y-104067200D01*
X168426213Y-104218087D01*
X168485087Y-104360220D01*
X168570558Y-104488137D01*
X168639242Y-104556821D01*
X168564897Y-104668087D01*
X168506023Y-104810220D01*
X168476010Y-104961107D01*
X168476010Y-105114951D01*
X168506023Y-105265838D01*
X168564897Y-105407971D01*
X168650368Y-105535888D01*
X168759151Y-105644671D01*
X168887068Y-105730142D01*
X169029201Y-105789016D01*
X169180088Y-105819029D01*
X169333932Y-105819029D01*
X169484819Y-105789016D01*
X169626952Y-105730142D01*
X169747001Y-105649928D01*
X169747000Y-106642085D01*
X169686295Y-106667230D01*
X169558378Y-106752701D01*
X169449595Y-106861484D01*
X169364124Y-106989401D01*
X169305250Y-107131534D01*
X169275237Y-107282421D01*
X169275237Y-107436265D01*
X169305250Y-107587152D01*
X169364124Y-107729285D01*
X169449595Y-107857202D01*
X169558378Y-107965985D01*
X169686295Y-108051456D01*
X169828428Y-108110330D01*
X169931633Y-108130859D01*
X169931634Y-110321398D01*
X169897120Y-110238075D01*
X169811649Y-110110158D01*
X169702866Y-110001375D01*
X169574949Y-109915904D01*
X169432816Y-109857030D01*
X169281929Y-109827017D01*
X169142427Y-109827017D01*
X169065664Y-109750254D01*
X169049757Y-109730871D01*
X168972404Y-109667390D01*
X168884152Y-109620218D01*
X168788394Y-109591170D01*
X168713756Y-109583819D01*
X168713753Y-109583819D01*
X168694258Y-109581899D01*
X166170054Y-107057696D01*
X166170054Y-106325695D01*
X166172511Y-106300751D01*
X166169692Y-106272133D01*
X166162703Y-106201167D01*
X166133655Y-106105409D01*
X166101893Y-106045987D01*
X166086483Y-106017156D01*
X166038904Y-105959181D01*
X166023002Y-105939804D01*
X166003625Y-105923902D01*
X163304210Y-103224487D01*
X163309942Y-103222113D01*
X163437859Y-103136642D01*
X163546642Y-103027859D01*
X163632113Y-102899942D01*
X163690987Y-102757809D01*
X163721000Y-102606922D01*
X163721000Y-102453078D01*
X163690987Y-102302191D01*
X163632113Y-102160058D01*
X163546642Y-102032141D01*
X163437859Y-101923358D01*
X163309942Y-101837887D01*
X163167809Y-101779013D01*
X163016922Y-101749000D01*
X162877421Y-101749000D01*
X162535999Y-101407579D01*
X162535999Y-99974419D01*
X163179000Y-100617421D01*
X163179000Y-100756922D01*
X163209013Y-100907809D01*
X163267887Y-101049942D01*
X163353358Y-101177859D01*
X163462141Y-101286642D01*
X163590058Y-101372113D01*
X163732191Y-101430987D01*
X163883078Y-101461000D01*
X164036922Y-101461000D01*
X164187809Y-101430987D01*
X164329942Y-101372113D01*
X164457859Y-101286642D01*
X164566642Y-101177859D01*
X164652113Y-101049942D01*
X164710987Y-100907809D01*
X164741000Y-100756922D01*
X164741000Y-100603078D01*
X164710987Y-100452191D01*
X164652113Y-100310058D01*
X164566642Y-100182141D01*
X164457859Y-100073358D01*
X164356684Y-100005756D01*
X164394719Y-99967721D01*
X164480190Y-99839804D01*
X164539064Y-99697671D01*
X164564579Y-99569399D01*
X164572396Y-99588271D01*
G37*
X164572396Y-99588271D02*
X164657867Y-99716188D01*
X164766650Y-99824971D01*
X164894567Y-99910442D01*
X165036700Y-99969316D01*
X165187587Y-99999329D01*
X165341431Y-99999329D01*
X165492318Y-99969316D01*
X165553570Y-99943944D01*
X165551022Y-99956755D01*
X165551022Y-100110599D01*
X165581035Y-100261486D01*
X165639909Y-100403619D01*
X165725380Y-100531536D01*
X165834163Y-100640319D01*
X165962080Y-100725790D01*
X166028773Y-100753415D01*
X166010043Y-100847578D01*
X166010043Y-101001422D01*
X166040056Y-101152309D01*
X166098930Y-101294442D01*
X166184401Y-101422359D01*
X166293184Y-101531142D01*
X166421101Y-101616613D01*
X166483029Y-101642265D01*
X166463032Y-101742796D01*
X166463032Y-101896640D01*
X166493045Y-102047527D01*
X166551919Y-102189660D01*
X166637390Y-102317577D01*
X166746173Y-102426360D01*
X166874090Y-102511831D01*
X167016223Y-102570705D01*
X167127288Y-102592797D01*
X167127288Y-102644161D01*
X167157301Y-102795048D01*
X167216175Y-102937181D01*
X167301646Y-103065098D01*
X167410429Y-103173881D01*
X167538346Y-103259352D01*
X167680479Y-103318226D01*
X167831366Y-103348239D01*
X167985210Y-103348239D01*
X168031094Y-103339112D01*
X168076065Y-103447682D01*
X168161536Y-103575599D01*
X168270319Y-103684382D01*
X168398236Y-103769853D01*
X168422726Y-103779997D01*
X168396200Y-103913356D01*
X168396200Y-104067200D01*
X168426213Y-104218087D01*
X168485087Y-104360220D01*
X168570558Y-104488137D01*
X168639242Y-104556821D01*
X168564897Y-104668087D01*
X168506023Y-104810220D01*
X168476010Y-104961107D01*
X168476010Y-105114951D01*
X168506023Y-105265838D01*
X168564897Y-105407971D01*
X168650368Y-105535888D01*
X168759151Y-105644671D01*
X168887068Y-105730142D01*
X169029201Y-105789016D01*
X169180088Y-105819029D01*
X169333932Y-105819029D01*
X169484819Y-105789016D01*
X169626952Y-105730142D01*
X169747001Y-105649928D01*
X169747000Y-106642085D01*
X169686295Y-106667230D01*
X169558378Y-106752701D01*
X169449595Y-106861484D01*
X169364124Y-106989401D01*
X169305250Y-107131534D01*
X169275237Y-107282421D01*
X169275237Y-107436265D01*
X169305250Y-107587152D01*
X169364124Y-107729285D01*
X169449595Y-107857202D01*
X169558378Y-107965985D01*
X169686295Y-108051456D01*
X169828428Y-108110330D01*
X169931633Y-108130859D01*
X169931634Y-110321398D01*
X169897120Y-110238075D01*
X169811649Y-110110158D01*
X169702866Y-110001375D01*
X169574949Y-109915904D01*
X169432816Y-109857030D01*
X169281929Y-109827017D01*
X169142427Y-109827017D01*
X169065664Y-109750254D01*
X169049757Y-109730871D01*
X168972404Y-109667390D01*
X168884152Y-109620218D01*
X168788394Y-109591170D01*
X168713756Y-109583819D01*
X168713753Y-109583819D01*
X168694258Y-109581899D01*
X166170054Y-107057696D01*
X166170054Y-106325695D01*
X166172511Y-106300751D01*
X166169692Y-106272133D01*
X166162703Y-106201167D01*
X166133655Y-106105409D01*
X166101893Y-106045987D01*
X166086483Y-106017156D01*
X166038904Y-105959181D01*
X166023002Y-105939804D01*
X166003625Y-105923902D01*
X163304210Y-103224487D01*
X163309942Y-103222113D01*
X163437859Y-103136642D01*
X163546642Y-103027859D01*
X163632113Y-102899942D01*
X163690987Y-102757809D01*
X163721000Y-102606922D01*
X163721000Y-102453078D01*
X163690987Y-102302191D01*
X163632113Y-102160058D01*
X163546642Y-102032141D01*
X163437859Y-101923358D01*
X163309942Y-101837887D01*
X163167809Y-101779013D01*
X163016922Y-101749000D01*
X162877421Y-101749000D01*
X162535999Y-101407579D01*
X162535999Y-99974419D01*
X163179000Y-100617421D01*
X163179000Y-100756922D01*
X163209013Y-100907809D01*
X163267887Y-101049942D01*
X163353358Y-101177859D01*
X163462141Y-101286642D01*
X163590058Y-101372113D01*
X163732191Y-101430987D01*
X163883078Y-101461000D01*
X164036922Y-101461000D01*
X164187809Y-101430987D01*
X164329942Y-101372113D01*
X164457859Y-101286642D01*
X164566642Y-101177859D01*
X164652113Y-101049942D01*
X164710987Y-100907809D01*
X164741000Y-100756922D01*
X164741000Y-100603078D01*
X164710987Y-100452191D01*
X164652113Y-100310058D01*
X164566642Y-100182141D01*
X164457859Y-100073358D01*
X164356684Y-100005756D01*
X164394719Y-99967721D01*
X164480190Y-99839804D01*
X164539064Y-99697671D01*
X164564579Y-99569399D01*
X164572396Y-99588271D01*
G36*
X136778358Y-80837141D02*
G01*
X136692887Y-80965058D01*
X136634013Y-81107191D01*
X136604000Y-81258078D01*
X136604000Y-81411922D01*
X136634013Y-81562809D01*
X136692887Y-81704942D01*
X136778358Y-81832859D01*
X136887141Y-81941642D01*
X137015058Y-82027113D01*
X137157191Y-82085987D01*
X137308078Y-82116000D01*
X137447580Y-82116000D01*
X138207001Y-82875422D01*
X138207000Y-105310962D01*
X135651555Y-102755517D01*
X135651555Y-81412088D01*
X135750197Y-81313446D01*
X135835668Y-81185529D01*
X135894542Y-81043396D01*
X135913227Y-80949459D01*
X135982874Y-80949459D01*
X136133761Y-80919446D01*
X136275894Y-80860572D01*
X136329931Y-80824466D01*
X136791033Y-80824466D01*
X136778358Y-80837141D01*
G37*
X136778358Y-80837141D02*
X136692887Y-80965058D01*
X136634013Y-81107191D01*
X136604000Y-81258078D01*
X136604000Y-81411922D01*
X136634013Y-81562809D01*
X136692887Y-81704942D01*
X136778358Y-81832859D01*
X136887141Y-81941642D01*
X137015058Y-82027113D01*
X137157191Y-82085987D01*
X137308078Y-82116000D01*
X137447580Y-82116000D01*
X138207001Y-82875422D01*
X138207000Y-105310962D01*
X135651555Y-102755517D01*
X135651555Y-81412088D01*
X135750197Y-81313446D01*
X135835668Y-81185529D01*
X135894542Y-81043396D01*
X135913227Y-80949459D01*
X135982874Y-80949459D01*
X136133761Y-80919446D01*
X136275894Y-80860572D01*
X136329931Y-80824466D01*
X136791033Y-80824466D01*
X136778358Y-80837141D01*
G36*
X161520000Y-96233237D02*
G01*
X161519999Y-101440277D01*
X161340084Y-101260362D01*
X161340084Y-97175819D01*
X161342541Y-97150875D01*
X161339055Y-97115482D01*
X161332733Y-97051290D01*
X161303685Y-96955532D01*
X161259138Y-96872191D01*
X161256513Y-96867279D01*
X161224667Y-96828475D01*
X161193032Y-96789927D01*
X161173649Y-96774020D01*
X144043541Y-79643912D01*
X144159200Y-79596004D01*
X144287117Y-79510533D01*
X144385759Y-79411891D01*
X144698655Y-79411891D01*
X161520000Y-96233237D01*
G37*
X161520000Y-96233237D02*
X161519999Y-101440277D01*
X161340084Y-101260362D01*
X161340084Y-97175819D01*
X161342541Y-97150875D01*
X161339055Y-97115482D01*
X161332733Y-97051290D01*
X161303685Y-96955532D01*
X161259138Y-96872191D01*
X161256513Y-96867279D01*
X161224667Y-96828475D01*
X161193032Y-96789927D01*
X161173649Y-96774020D01*
X144043541Y-79643912D01*
X144159200Y-79596004D01*
X144287117Y-79510533D01*
X144385759Y-79411891D01*
X144698655Y-79411891D01*
X161520000Y-96233237D01*
G36*
X164756510Y-96901474D02*
G01*
X164756509Y-98167152D01*
X164743244Y-98135127D01*
X164657773Y-98007210D01*
X164548990Y-97898427D01*
X164421073Y-97812956D01*
X164278940Y-97754082D01*
X164128053Y-97724069D01*
X163988551Y-97724069D01*
X163920031Y-97655549D01*
X163920031Y-96064995D01*
X164756510Y-96901474D01*
G37*
X164756510Y-96901474D02*
X164756509Y-98167152D01*
X164743244Y-98135127D01*
X164657773Y-98007210D01*
X164548990Y-97898427D01*
X164421073Y-97812956D01*
X164278940Y-97754082D01*
X164128053Y-97724069D01*
X163988551Y-97724069D01*
X163920031Y-97655549D01*
X163920031Y-96064995D01*
X164756510Y-96901474D01*
%TD*%
M02*
