%TF.GenerationSoftware,KiCad,Pcbnew,5.1.6-c6e7f7d~87~ubuntu20.04.1*%
%TF.CreationDate,2020-08-04T19:53:43+02:00*%
%TF.ProjectId,maithoga_lcd_board_480x320_R61529,6d616974-686f-4676-915f-6c63645f626f,V1.0*%
%TF.SameCoordinates,Original*%
%TF.FileFunction,Soldermask,Top*%
%TF.FilePolarity,Negative*%
%FSLAX46Y46*%
G04 Gerber Fmt 4.6, Leading zero omitted, Abs format (unit mm)*
G04 Created by KiCad (PCBNEW 5.1.6-c6e7f7d~87~ubuntu20.04.1) date 2020-08-04 19:53:43*
%MOMM*%
%LPD*%
G01*
G04 APERTURE LIST*
%ADD10R,0.410000X1.060000*%
%ADD11R,0.410000X1.076000*%
%ADD12R,0.460000X1.076000*%
%ADD13R,1.320480X0.820100*%
%ADD14R,1.020000X0.620000*%
%ADD15R,1.840000X1.040000*%
%ADD16R,0.620000X1.020000*%
%ADD17O,1.700200X0.550000*%
%ADD18O,0.650000X1.100760*%
%ADD19R,3.100000X2.100000*%
%ADD20R,2.100000X3.100000*%
G04 APERTURE END LIST*
%TO.C,DIS1*%
G36*
G01*
X171410001Y-70590001D02*
X172580001Y-70590001D01*
G75*
G02*
X172690001Y-70700001I0J-110000D01*
G01*
X172690001Y-70920001D01*
G75*
G02*
X172580001Y-71030001I-110000J0D01*
G01*
X171410001Y-71030001D01*
G75*
G02*
X171300001Y-70920001I0J110000D01*
G01*
X171300001Y-70700001D01*
G75*
G02*
X171410001Y-70590001I110000J0D01*
G01*
G37*
G36*
G01*
X172985001Y-66090001D02*
X175085001Y-66090001D01*
G75*
G02*
X175635001Y-66640001I0J-550000D01*
G01*
X175635001Y-67740001D01*
G75*
G02*
X175085001Y-68290001I-550000J0D01*
G01*
X172985001Y-68290001D01*
G75*
G02*
X172435001Y-67740001I0J550000D01*
G01*
X172435001Y-66640001D01*
G75*
G02*
X172985001Y-66090001I550000J0D01*
G01*
G37*
G36*
G01*
X171410001Y-69590001D02*
X172580001Y-69590001D01*
G75*
G02*
X172690001Y-69700001I0J-110000D01*
G01*
X172690001Y-69920001D01*
G75*
G02*
X172580001Y-70030001I-110000J0D01*
G01*
X171410001Y-70030001D01*
G75*
G02*
X171300001Y-69920001I0J110000D01*
G01*
X171300001Y-69700001D01*
G75*
G02*
X171410001Y-69590001I110000J0D01*
G01*
G37*
G36*
G01*
X171410001Y-69090001D02*
X172580001Y-69090001D01*
G75*
G02*
X172690001Y-69200001I0J-110000D01*
G01*
X172690001Y-69420001D01*
G75*
G02*
X172580001Y-69530001I-110000J0D01*
G01*
X171410001Y-69530001D01*
G75*
G02*
X171300001Y-69420001I0J110000D01*
G01*
X171300001Y-69200001D01*
G75*
G02*
X171410001Y-69090001I110000J0D01*
G01*
G37*
G36*
G01*
X171410001Y-70090001D02*
X172580001Y-70090001D01*
G75*
G02*
X172690001Y-70200001I0J-110000D01*
G01*
X172690001Y-70420001D01*
G75*
G02*
X172580001Y-70530001I-110000J0D01*
G01*
X171410001Y-70530001D01*
G75*
G02*
X171300001Y-70420001I0J110000D01*
G01*
X171300001Y-70200001D01*
G75*
G02*
X171410001Y-70090001I110000J0D01*
G01*
G37*
G36*
G01*
X172965001Y-71890001D02*
X175065001Y-71890001D01*
G75*
G02*
X175615001Y-72440001I0J-550000D01*
G01*
X175615001Y-73540001D01*
G75*
G02*
X175065001Y-74090001I-550000J0D01*
G01*
X172965001Y-74090001D01*
G75*
G02*
X172415001Y-73540001I0J550000D01*
G01*
X172415001Y-72440001D01*
G75*
G02*
X172965001Y-71890001I550000J0D01*
G01*
G37*
D10*
X162805001Y-112260001D03*
X162205001Y-112260001D03*
X164005001Y-112260001D03*
X163405001Y-112260001D03*
D11*
X161305001Y-109260001D03*
X161905001Y-109260001D03*
X162505001Y-109260001D03*
X163105001Y-109260001D03*
X163705001Y-109260001D03*
X164305001Y-109260001D03*
X164905001Y-109260001D03*
D12*
X157305001Y-111960001D03*
X171905001Y-111960001D03*
D11*
X170905001Y-109260001D03*
X166705001Y-109260001D03*
X169705001Y-109260001D03*
X170305001Y-109260001D03*
X167305001Y-109260001D03*
X168505001Y-109260001D03*
X165505001Y-109260001D03*
X169105001Y-109260001D03*
X167905001Y-109260001D03*
X166105001Y-109260001D03*
D10*
X168805001Y-112260001D03*
X169405001Y-112260001D03*
X170005001Y-112260001D03*
X170605001Y-112260001D03*
X171205001Y-112260001D03*
X167605001Y-112260001D03*
X166405001Y-112260001D03*
X165805001Y-112260001D03*
X167005001Y-112260001D03*
X168205001Y-112260001D03*
X161605001Y-112260001D03*
X161005001Y-112260001D03*
X160405001Y-112260001D03*
X159805001Y-112260001D03*
X159205001Y-112260001D03*
D11*
X158905001Y-109260001D03*
X158305001Y-109260001D03*
D10*
X158005001Y-112260001D03*
X158605001Y-112260001D03*
D11*
X159505001Y-109260001D03*
X160105001Y-109260001D03*
X160705001Y-109260001D03*
D10*
X165205001Y-112260001D03*
X164605001Y-112260001D03*
%TD*%
D13*
%TO.C,D1*%
X162050000Y-104459240D03*
X162050000Y-106460760D03*
%TD*%
D14*
%TO.C,C1*%
X161925000Y-70290000D03*
X161925000Y-71690000D03*
%TD*%
%TO.C,C2*%
X156905000Y-101165000D03*
X156905000Y-102565000D03*
%TD*%
%TO.C,C3*%
X155835000Y-111090000D03*
X155835000Y-109690000D03*
%TD*%
D15*
%TO.C,D2*%
X153755000Y-107605000D03*
X153755000Y-111105000D03*
%TD*%
%TO.C,L1*%
G36*
G01*
X152895000Y-102575000D02*
X154655000Y-102575000D01*
G75*
G02*
X154925000Y-102845000I0J-270000D01*
G01*
X154925000Y-103655000D01*
G75*
G02*
X154655000Y-103925000I-270000J0D01*
G01*
X152895000Y-103925000D01*
G75*
G02*
X152625000Y-103655000I0J270000D01*
G01*
X152625000Y-102845000D01*
G75*
G02*
X152895000Y-102575000I270000J0D01*
G01*
G37*
G36*
G01*
X152895000Y-104725000D02*
X154655000Y-104725000D01*
G75*
G02*
X154925000Y-104995000I0J-270000D01*
G01*
X154925000Y-105805000D01*
G75*
G02*
X154655000Y-106075000I-270000J0D01*
G01*
X152895000Y-106075000D01*
G75*
G02*
X152625000Y-105805000I0J270000D01*
G01*
X152625000Y-104995000D01*
G75*
G02*
X152895000Y-104725000I270000J0D01*
G01*
G37*
%TD*%
D14*
%TO.C,R1*%
X172695000Y-75955000D03*
X172695000Y-77355000D03*
%TD*%
%TO.C,R2*%
X171275000Y-77355000D03*
X171275000Y-75955000D03*
%TD*%
D16*
%TO.C,R3*%
X167930000Y-78405000D03*
X169330000Y-78405000D03*
%TD*%
D14*
%TO.C,R4*%
X160020000Y-105880000D03*
X160020000Y-107280000D03*
%TD*%
D17*
%TO.C,U1*%
X169485000Y-77105000D03*
X169485000Y-76455000D03*
X169485000Y-75805000D03*
X169485000Y-75155000D03*
X169485000Y-74505000D03*
X169485000Y-73855000D03*
X169485000Y-73205000D03*
X169485000Y-72555000D03*
X162885000Y-72555000D03*
X162885000Y-73205000D03*
X162885000Y-73855000D03*
X162885000Y-74505000D03*
X162885000Y-75155000D03*
X162885000Y-75805000D03*
X162885000Y-76455000D03*
X162885000Y-77105000D03*
%TD*%
D18*
%TO.C,U2*%
X156625000Y-103715000D03*
X157575000Y-103715000D03*
X158525000Y-103715000D03*
X158525000Y-106915000D03*
X157575000Y-106915000D03*
X156625000Y-106915000D03*
%TD*%
%TO.C,P2*%
G36*
G01*
X125070000Y-70615000D02*
X125070000Y-69505000D01*
G75*
G02*
X125150000Y-69425000I80000J0D01*
G01*
X125310000Y-69425000D01*
G75*
G02*
X125390000Y-69505000I0J-80000D01*
G01*
X125390000Y-70615000D01*
G75*
G02*
X125310000Y-70695000I-80000J0D01*
G01*
X125150000Y-70695000D01*
G75*
G02*
X125070000Y-70615000I0J80000D01*
G01*
G37*
G36*
G01*
X125570000Y-70615000D02*
X125570000Y-69505000D01*
G75*
G02*
X125650000Y-69425000I80000J0D01*
G01*
X125810000Y-69425000D01*
G75*
G02*
X125890000Y-69505000I0J-80000D01*
G01*
X125890000Y-70615000D01*
G75*
G02*
X125810000Y-70695000I-80000J0D01*
G01*
X125650000Y-70695000D01*
G75*
G02*
X125570000Y-70615000I0J80000D01*
G01*
G37*
G36*
G01*
X126570000Y-70615000D02*
X126570000Y-69505000D01*
G75*
G02*
X126650000Y-69425000I80000J0D01*
G01*
X126810000Y-69425000D01*
G75*
G02*
X126890000Y-69505000I0J-80000D01*
G01*
X126890000Y-70615000D01*
G75*
G02*
X126810000Y-70695000I-80000J0D01*
G01*
X126650000Y-70695000D01*
G75*
G02*
X126570000Y-70615000I0J80000D01*
G01*
G37*
G36*
G01*
X126070000Y-70615000D02*
X126070000Y-69505000D01*
G75*
G02*
X126150000Y-69425000I80000J0D01*
G01*
X126310000Y-69425000D01*
G75*
G02*
X126390000Y-69505000I0J-80000D01*
G01*
X126390000Y-70615000D01*
G75*
G02*
X126310000Y-70695000I-80000J0D01*
G01*
X126150000Y-70695000D01*
G75*
G02*
X126070000Y-70615000I0J80000D01*
G01*
G37*
G36*
G01*
X128570000Y-70615000D02*
X128570000Y-69505000D01*
G75*
G02*
X128650000Y-69425000I80000J0D01*
G01*
X128810000Y-69425000D01*
G75*
G02*
X128890000Y-69505000I0J-80000D01*
G01*
X128890000Y-70615000D01*
G75*
G02*
X128810000Y-70695000I-80000J0D01*
G01*
X128650000Y-70695000D01*
G75*
G02*
X128570000Y-70615000I0J80000D01*
G01*
G37*
G36*
G01*
X128070000Y-70615000D02*
X128070000Y-69505000D01*
G75*
G02*
X128150000Y-69425000I80000J0D01*
G01*
X128310000Y-69425000D01*
G75*
G02*
X128390000Y-69505000I0J-80000D01*
G01*
X128390000Y-70615000D01*
G75*
G02*
X128310000Y-70695000I-80000J0D01*
G01*
X128150000Y-70695000D01*
G75*
G02*
X128070000Y-70615000I0J80000D01*
G01*
G37*
G36*
G01*
X127570000Y-70615000D02*
X127570000Y-69505000D01*
G75*
G02*
X127650000Y-69425000I80000J0D01*
G01*
X127810000Y-69425000D01*
G75*
G02*
X127890000Y-69505000I0J-80000D01*
G01*
X127890000Y-70615000D01*
G75*
G02*
X127810000Y-70695000I-80000J0D01*
G01*
X127650000Y-70695000D01*
G75*
G02*
X127570000Y-70615000I0J80000D01*
G01*
G37*
G36*
G01*
X127070000Y-70615000D02*
X127070000Y-69505000D01*
G75*
G02*
X127150000Y-69425000I80000J0D01*
G01*
X127310000Y-69425000D01*
G75*
G02*
X127390000Y-69505000I0J-80000D01*
G01*
X127390000Y-70615000D01*
G75*
G02*
X127310000Y-70695000I-80000J0D01*
G01*
X127150000Y-70695000D01*
G75*
G02*
X127070000Y-70615000I0J80000D01*
G01*
G37*
G36*
G01*
X130570000Y-70615000D02*
X130570000Y-69505000D01*
G75*
G02*
X130650000Y-69425000I80000J0D01*
G01*
X130810000Y-69425000D01*
G75*
G02*
X130890000Y-69505000I0J-80000D01*
G01*
X130890000Y-70615000D01*
G75*
G02*
X130810000Y-70695000I-80000J0D01*
G01*
X130650000Y-70695000D01*
G75*
G02*
X130570000Y-70615000I0J80000D01*
G01*
G37*
G36*
G01*
X130070000Y-70615000D02*
X130070000Y-69505000D01*
G75*
G02*
X130150000Y-69425000I80000J0D01*
G01*
X130310000Y-69425000D01*
G75*
G02*
X130390000Y-69505000I0J-80000D01*
G01*
X130390000Y-70615000D01*
G75*
G02*
X130310000Y-70695000I-80000J0D01*
G01*
X130150000Y-70695000D01*
G75*
G02*
X130070000Y-70615000I0J80000D01*
G01*
G37*
G36*
G01*
X131570000Y-70615000D02*
X131570000Y-69505000D01*
G75*
G02*
X131650000Y-69425000I80000J0D01*
G01*
X131810000Y-69425000D01*
G75*
G02*
X131890000Y-69505000I0J-80000D01*
G01*
X131890000Y-70615000D01*
G75*
G02*
X131810000Y-70695000I-80000J0D01*
G01*
X131650000Y-70695000D01*
G75*
G02*
X131570000Y-70615000I0J80000D01*
G01*
G37*
G36*
G01*
X131070000Y-70615000D02*
X131070000Y-69505000D01*
G75*
G02*
X131150000Y-69425000I80000J0D01*
G01*
X131310000Y-69425000D01*
G75*
G02*
X131390000Y-69505000I0J-80000D01*
G01*
X131390000Y-70615000D01*
G75*
G02*
X131310000Y-70695000I-80000J0D01*
G01*
X131150000Y-70695000D01*
G75*
G02*
X131070000Y-70615000I0J80000D01*
G01*
G37*
G36*
G01*
X129570000Y-70615000D02*
X129570000Y-69505000D01*
G75*
G02*
X129650000Y-69425000I80000J0D01*
G01*
X129810000Y-69425000D01*
G75*
G02*
X129890000Y-69505000I0J-80000D01*
G01*
X129890000Y-70615000D01*
G75*
G02*
X129810000Y-70695000I-80000J0D01*
G01*
X129650000Y-70695000D01*
G75*
G02*
X129570000Y-70615000I0J80000D01*
G01*
G37*
G36*
G01*
X129070000Y-70615000D02*
X129070000Y-69505000D01*
G75*
G02*
X129150000Y-69425000I80000J0D01*
G01*
X129310000Y-69425000D01*
G75*
G02*
X129390000Y-69505000I0J-80000D01*
G01*
X129390000Y-70615000D01*
G75*
G02*
X129310000Y-70695000I-80000J0D01*
G01*
X129150000Y-70695000D01*
G75*
G02*
X129070000Y-70615000I0J80000D01*
G01*
G37*
G36*
G01*
X132070000Y-70615000D02*
X132070000Y-69505000D01*
G75*
G02*
X132150000Y-69425000I80000J0D01*
G01*
X132310000Y-69425000D01*
G75*
G02*
X132390000Y-69505000I0J-80000D01*
G01*
X132390000Y-70615000D01*
G75*
G02*
X132310000Y-70695000I-80000J0D01*
G01*
X132150000Y-70695000D01*
G75*
G02*
X132070000Y-70615000I0J80000D01*
G01*
G37*
G36*
G01*
X132570000Y-70615000D02*
X132570000Y-69505000D01*
G75*
G02*
X132650000Y-69425000I80000J0D01*
G01*
X132810000Y-69425000D01*
G75*
G02*
X132890000Y-69505000I0J-80000D01*
G01*
X132890000Y-70615000D01*
G75*
G02*
X132810000Y-70695000I-80000J0D01*
G01*
X132650000Y-70695000D01*
G75*
G02*
X132570000Y-70615000I0J80000D01*
G01*
G37*
G36*
G01*
X139070000Y-70615000D02*
X139070000Y-69505000D01*
G75*
G02*
X139150000Y-69425000I80000J0D01*
G01*
X139310000Y-69425000D01*
G75*
G02*
X139390000Y-69505000I0J-80000D01*
G01*
X139390000Y-70615000D01*
G75*
G02*
X139310000Y-70695000I-80000J0D01*
G01*
X139150000Y-70695000D01*
G75*
G02*
X139070000Y-70615000I0J80000D01*
G01*
G37*
G36*
G01*
X134570000Y-70615000D02*
X134570000Y-69505000D01*
G75*
G02*
X134650000Y-69425000I80000J0D01*
G01*
X134810000Y-69425000D01*
G75*
G02*
X134890000Y-69505000I0J-80000D01*
G01*
X134890000Y-70615000D01*
G75*
G02*
X134810000Y-70695000I-80000J0D01*
G01*
X134650000Y-70695000D01*
G75*
G02*
X134570000Y-70615000I0J80000D01*
G01*
G37*
G36*
G01*
X134070000Y-70615000D02*
X134070000Y-69505000D01*
G75*
G02*
X134150000Y-69425000I80000J0D01*
G01*
X134310000Y-69425000D01*
G75*
G02*
X134390000Y-69505000I0J-80000D01*
G01*
X134390000Y-70615000D01*
G75*
G02*
X134310000Y-70695000I-80000J0D01*
G01*
X134150000Y-70695000D01*
G75*
G02*
X134070000Y-70615000I0J80000D01*
G01*
G37*
G36*
G01*
X135570000Y-70615000D02*
X135570000Y-69505000D01*
G75*
G02*
X135650000Y-69425000I80000J0D01*
G01*
X135810000Y-69425000D01*
G75*
G02*
X135890000Y-69505000I0J-80000D01*
G01*
X135890000Y-70615000D01*
G75*
G02*
X135810000Y-70695000I-80000J0D01*
G01*
X135650000Y-70695000D01*
G75*
G02*
X135570000Y-70615000I0J80000D01*
G01*
G37*
G36*
G01*
X135070000Y-70615000D02*
X135070000Y-69505000D01*
G75*
G02*
X135150000Y-69425000I80000J0D01*
G01*
X135310000Y-69425000D01*
G75*
G02*
X135390000Y-69505000I0J-80000D01*
G01*
X135390000Y-70615000D01*
G75*
G02*
X135310000Y-70695000I-80000J0D01*
G01*
X135150000Y-70695000D01*
G75*
G02*
X135070000Y-70615000I0J80000D01*
G01*
G37*
G36*
G01*
X138070000Y-70615000D02*
X138070000Y-69505000D01*
G75*
G02*
X138150000Y-69425000I80000J0D01*
G01*
X138310000Y-69425000D01*
G75*
G02*
X138390000Y-69505000I0J-80000D01*
G01*
X138390000Y-70615000D01*
G75*
G02*
X138310000Y-70695000I-80000J0D01*
G01*
X138150000Y-70695000D01*
G75*
G02*
X138070000Y-70615000I0J80000D01*
G01*
G37*
G36*
G01*
X133570000Y-70615000D02*
X133570000Y-69505000D01*
G75*
G02*
X133650000Y-69425000I80000J0D01*
G01*
X133810000Y-69425000D01*
G75*
G02*
X133890000Y-69505000I0J-80000D01*
G01*
X133890000Y-70615000D01*
G75*
G02*
X133810000Y-70695000I-80000J0D01*
G01*
X133650000Y-70695000D01*
G75*
G02*
X133570000Y-70615000I0J80000D01*
G01*
G37*
G36*
G01*
X133070000Y-70615000D02*
X133070000Y-69505000D01*
G75*
G02*
X133150000Y-69425000I80000J0D01*
G01*
X133310000Y-69425000D01*
G75*
G02*
X133390000Y-69505000I0J-80000D01*
G01*
X133390000Y-70615000D01*
G75*
G02*
X133310000Y-70695000I-80000J0D01*
G01*
X133150000Y-70695000D01*
G75*
G02*
X133070000Y-70615000I0J80000D01*
G01*
G37*
G36*
G01*
X140070000Y-70615000D02*
X140070000Y-69505000D01*
G75*
G02*
X140150000Y-69425000I80000J0D01*
G01*
X140310000Y-69425000D01*
G75*
G02*
X140390000Y-69505000I0J-80000D01*
G01*
X140390000Y-70615000D01*
G75*
G02*
X140310000Y-70695000I-80000J0D01*
G01*
X140150000Y-70695000D01*
G75*
G02*
X140070000Y-70615000I0J80000D01*
G01*
G37*
G36*
G01*
X137570000Y-70615000D02*
X137570000Y-69505000D01*
G75*
G02*
X137650000Y-69425000I80000J0D01*
G01*
X137810000Y-69425000D01*
G75*
G02*
X137890000Y-69505000I0J-80000D01*
G01*
X137890000Y-70615000D01*
G75*
G02*
X137810000Y-70695000I-80000J0D01*
G01*
X137650000Y-70695000D01*
G75*
G02*
X137570000Y-70615000I0J80000D01*
G01*
G37*
G36*
G01*
X136070000Y-70615000D02*
X136070000Y-69505000D01*
G75*
G02*
X136150000Y-69425000I80000J0D01*
G01*
X136310000Y-69425000D01*
G75*
G02*
X136390000Y-69505000I0J-80000D01*
G01*
X136390000Y-70615000D01*
G75*
G02*
X136310000Y-70695000I-80000J0D01*
G01*
X136150000Y-70695000D01*
G75*
G02*
X136070000Y-70615000I0J80000D01*
G01*
G37*
G36*
G01*
X139570000Y-70615000D02*
X139570000Y-69505000D01*
G75*
G02*
X139650000Y-69425000I80000J0D01*
G01*
X139810000Y-69425000D01*
G75*
G02*
X139890000Y-69505000I0J-80000D01*
G01*
X139890000Y-70615000D01*
G75*
G02*
X139810000Y-70695000I-80000J0D01*
G01*
X139650000Y-70695000D01*
G75*
G02*
X139570000Y-70615000I0J80000D01*
G01*
G37*
G36*
G01*
X138570000Y-70615000D02*
X138570000Y-69505000D01*
G75*
G02*
X138650000Y-69425000I80000J0D01*
G01*
X138810000Y-69425000D01*
G75*
G02*
X138890000Y-69505000I0J-80000D01*
G01*
X138890000Y-70615000D01*
G75*
G02*
X138810000Y-70695000I-80000J0D01*
G01*
X138650000Y-70695000D01*
G75*
G02*
X138570000Y-70615000I0J80000D01*
G01*
G37*
G36*
G01*
X140570000Y-70615000D02*
X140570000Y-69505000D01*
G75*
G02*
X140650000Y-69425000I80000J0D01*
G01*
X140810000Y-69425000D01*
G75*
G02*
X140890000Y-69505000I0J-80000D01*
G01*
X140890000Y-70615000D01*
G75*
G02*
X140810000Y-70695000I-80000J0D01*
G01*
X140650000Y-70695000D01*
G75*
G02*
X140570000Y-70615000I0J80000D01*
G01*
G37*
G36*
G01*
X137070000Y-70615000D02*
X137070000Y-69505000D01*
G75*
G02*
X137150000Y-69425000I80000J0D01*
G01*
X137310000Y-69425000D01*
G75*
G02*
X137390000Y-69505000I0J-80000D01*
G01*
X137390000Y-70615000D01*
G75*
G02*
X137310000Y-70695000I-80000J0D01*
G01*
X137150000Y-70695000D01*
G75*
G02*
X137070000Y-70615000I0J80000D01*
G01*
G37*
G36*
G01*
X136570000Y-70615000D02*
X136570000Y-69505000D01*
G75*
G02*
X136650000Y-69425000I80000J0D01*
G01*
X136810000Y-69425000D01*
G75*
G02*
X136890000Y-69505000I0J-80000D01*
G01*
X136890000Y-70615000D01*
G75*
G02*
X136810000Y-70695000I-80000J0D01*
G01*
X136650000Y-70695000D01*
G75*
G02*
X136570000Y-70615000I0J80000D01*
G01*
G37*
G36*
G01*
X142070000Y-70615000D02*
X142070000Y-69505000D01*
G75*
G02*
X142150000Y-69425000I80000J0D01*
G01*
X142310000Y-69425000D01*
G75*
G02*
X142390000Y-69505000I0J-80000D01*
G01*
X142390000Y-70615000D01*
G75*
G02*
X142310000Y-70695000I-80000J0D01*
G01*
X142150000Y-70695000D01*
G75*
G02*
X142070000Y-70615000I0J80000D01*
G01*
G37*
G36*
G01*
X142570000Y-70615000D02*
X142570000Y-69505000D01*
G75*
G02*
X142650000Y-69425000I80000J0D01*
G01*
X142810000Y-69425000D01*
G75*
G02*
X142890000Y-69505000I0J-80000D01*
G01*
X142890000Y-70615000D01*
G75*
G02*
X142810000Y-70695000I-80000J0D01*
G01*
X142650000Y-70695000D01*
G75*
G02*
X142570000Y-70615000I0J80000D01*
G01*
G37*
G36*
G01*
X144570000Y-70615000D02*
X144570000Y-69505000D01*
G75*
G02*
X144650000Y-69425000I80000J0D01*
G01*
X144810000Y-69425000D01*
G75*
G02*
X144890000Y-69505000I0J-80000D01*
G01*
X144890000Y-70615000D01*
G75*
G02*
X144810000Y-70695000I-80000J0D01*
G01*
X144650000Y-70695000D01*
G75*
G02*
X144570000Y-70615000I0J80000D01*
G01*
G37*
G36*
G01*
X143570000Y-70615000D02*
X143570000Y-69505000D01*
G75*
G02*
X143650000Y-69425000I80000J0D01*
G01*
X143810000Y-69425000D01*
G75*
G02*
X143890000Y-69505000I0J-80000D01*
G01*
X143890000Y-70615000D01*
G75*
G02*
X143810000Y-70695000I-80000J0D01*
G01*
X143650000Y-70695000D01*
G75*
G02*
X143570000Y-70615000I0J80000D01*
G01*
G37*
G36*
G01*
X141070000Y-70615000D02*
X141070000Y-69505000D01*
G75*
G02*
X141150000Y-69425000I80000J0D01*
G01*
X141310000Y-69425000D01*
G75*
G02*
X141390000Y-69505000I0J-80000D01*
G01*
X141390000Y-70615000D01*
G75*
G02*
X141310000Y-70695000I-80000J0D01*
G01*
X141150000Y-70695000D01*
G75*
G02*
X141070000Y-70615000I0J80000D01*
G01*
G37*
G36*
G01*
X144070000Y-70615000D02*
X144070000Y-69505000D01*
G75*
G02*
X144150000Y-69425000I80000J0D01*
G01*
X144310000Y-69425000D01*
G75*
G02*
X144390000Y-69505000I0J-80000D01*
G01*
X144390000Y-70615000D01*
G75*
G02*
X144310000Y-70695000I-80000J0D01*
G01*
X144150000Y-70695000D01*
G75*
G02*
X144070000Y-70615000I0J80000D01*
G01*
G37*
G36*
G01*
X141570000Y-70615000D02*
X141570000Y-69505000D01*
G75*
G02*
X141650000Y-69425000I80000J0D01*
G01*
X141810000Y-69425000D01*
G75*
G02*
X141890000Y-69505000I0J-80000D01*
G01*
X141890000Y-70615000D01*
G75*
G02*
X141810000Y-70695000I-80000J0D01*
G01*
X141650000Y-70695000D01*
G75*
G02*
X141570000Y-70615000I0J80000D01*
G01*
G37*
G36*
G01*
X145000000Y-68800000D02*
X145000000Y-67520000D01*
G75*
G02*
X145640000Y-66880000I640000J0D01*
G01*
X146920000Y-66880000D01*
G75*
G02*
X147560000Y-67520000I0J-640000D01*
G01*
X147560000Y-68800000D01*
G75*
G02*
X146920000Y-69440000I-640000J0D01*
G01*
X145640000Y-69440000D01*
G75*
G02*
X145000000Y-68800000I0J640000D01*
G01*
G37*
G36*
G01*
X143070000Y-70615000D02*
X143070000Y-69505000D01*
G75*
G02*
X143150000Y-69425000I80000J0D01*
G01*
X143310000Y-69425000D01*
G75*
G02*
X143390000Y-69505000I0J-80000D01*
G01*
X143390000Y-70615000D01*
G75*
G02*
X143310000Y-70695000I-80000J0D01*
G01*
X143150000Y-70695000D01*
G75*
G02*
X143070000Y-70615000I0J80000D01*
G01*
G37*
G36*
G01*
X122400000Y-68800000D02*
X122400000Y-67520000D01*
G75*
G02*
X123040000Y-66880000I640000J0D01*
G01*
X124320000Y-66880000D01*
G75*
G02*
X124960000Y-67520000I0J-640000D01*
G01*
X124960000Y-68800000D01*
G75*
G02*
X124320000Y-69440000I-640000J0D01*
G01*
X123040000Y-69440000D01*
G75*
G02*
X122400000Y-68800000I0J640000D01*
G01*
G37*
%TD*%
D19*
%TO.C,P1*%
X117705000Y-115420000D03*
X117705000Y-112880000D03*
X117705000Y-110340000D03*
X117705000Y-105260000D03*
X117705000Y-102720000D03*
X117705000Y-100180000D03*
X117705000Y-97640000D03*
X117705000Y-95100000D03*
X117705000Y-92560000D03*
X117705000Y-107800000D03*
X117705000Y-79860000D03*
X117705000Y-90020000D03*
X117705000Y-87480000D03*
X117705000Y-84940000D03*
X117705000Y-82400000D03*
X117705000Y-69700000D03*
X117705000Y-77320000D03*
X117705000Y-74780000D03*
X117705000Y-72240000D03*
X117705000Y-67160000D03*
X110085000Y-110340000D03*
X110085000Y-112880000D03*
X110085000Y-105260000D03*
X110085000Y-115420000D03*
X110085000Y-107800000D03*
X110085000Y-92560000D03*
X110085000Y-102720000D03*
X110085000Y-100180000D03*
X110085000Y-95100000D03*
X110085000Y-97640000D03*
X110085000Y-90020000D03*
X110085000Y-82400000D03*
X110085000Y-79860000D03*
X110085000Y-87480000D03*
X110085000Y-84940000D03*
X110085000Y-77320000D03*
X110085000Y-72240000D03*
X110085000Y-74780000D03*
X110085000Y-69700000D03*
X110085000Y-67160000D03*
%TD*%
D20*
%TO.C,P3*%
X124190000Y-114965000D03*
X126730000Y-114965000D03*
X129270000Y-114965000D03*
X131810000Y-114965000D03*
X126730000Y-107345000D03*
X124190000Y-107345000D03*
X129270000Y-107345000D03*
X131810000Y-107345000D03*
%TD*%
D14*
%TO.C,R5*%
X170370000Y-100900000D03*
X170370000Y-102300000D03*
%TD*%
%TO.C,R6*%
X171755000Y-102300000D03*
X171755000Y-100900000D03*
%TD*%
%TO.C,R7*%
X173140000Y-102300000D03*
X173140000Y-100900000D03*
%TD*%
%TO.C,R8*%
X173140000Y-103380000D03*
X173140000Y-104780000D03*
%TD*%
%TO.C,R9*%
X171755000Y-104775000D03*
X171755000Y-103375000D03*
%TD*%
%TO.C,R10*%
X170375000Y-103380000D03*
X170375000Y-104780000D03*
%TD*%
M02*
