M48
; DRILL file {KiCad 5.1.6-c6e7f7d~87~ubuntu20.04.1} date Tue Aug  4 19:53:42 2020
; FORMAT={-:-/ absolute / inch / decimal}
; #@! TF.CreationDate,2020-08-04T19:53:42+02:00
; #@! TF.GenerationSoftware,Kicad,Pcbnew,5.1.6-c6e7f7d~87~ubuntu20.04.1
; #@! TF.FileFunction,Plated,1,2,PTH
FMAT,2
INCH
T1C0.0157
%
G90
G05
T1
X4.1799Y-4.0929
X4.214Y-4.3868
X4.253Y-4.5447
X4.414Y-3.8228
X4.4169Y-3.6254
X4.4169Y-4.023
X4.4173Y-3.7224
X4.4181Y-3.9228
X4.4185Y-3.2134
X4.4195Y-4.1455
X4.4207Y-3.1445
X4.4219Y-4.4514
X4.422Y-3.3152
X4.422Y-3.5199
X4.4242Y-3.4242
X4.4262Y-2.8476
X4.4309Y-4.3173
X4.4325Y-3.0004
X4.4337Y-4.2413
X4.5423Y-4.4657
X4.7167Y-2.9455
X4.7213Y-4.4478
X4.727Y-4.0844
X4.7283Y-3.0746
X4.7344Y-2.8926
X4.7352Y-3.8919
X4.7478Y-3.2445
X4.7632Y-4.0171
X4.7675Y-3.3965
X4.7728Y-3.5173
X4.7807Y-2.765
X4.7813Y-3.7933
X4.7911Y-4.374
X4.7937Y-2.9293
X4.8004Y-3.0947
X4.8028Y-3.5906
X4.8145Y-3.9828
X4.8226Y-3.6947
X4.8262Y-3.8898
X4.8317Y-4.4455
X4.839Y-3.4478
X4.8528Y-4.0083
X4.8579Y-2.9374
X4.8612Y-3.1224
X4.8886Y-4.138
X4.8933Y-3.7833
X4.899Y-4.0154
X4.9185Y-2.8647
X4.9315Y-3.6868
X4.9516Y-2.8435
X4.953Y-3.9886
X4.9575Y-3.5173
X4.9776Y-3.2355
X4.9819Y-2.8183
X4.985Y-4.368
X4.9961Y-4.1358
X5.0091Y-2.6953
X5.0123Y-3.3499
X5.0262Y-3.2746
X5.0295Y-3.2026
X5.0372Y-4.4394
X5.0382Y-4.3768
X5.0384Y-2.9963
X5.0647Y-2.9194
X5.0756Y-3.248
X5.0919Y-4.3624
X5.1015Y-4.176
X5.1031Y-2.6972
X5.1128Y-2.9123
X5.1173Y-3.2193
X5.1463Y-2.6902
X5.1634Y-3.9984
X5.1819Y-3.1793
X5.1875Y-4.1431
X5.1899Y-2.9096
X5.2234Y-3.1783
X5.245Y-2.9373
X5.2626Y-2.687
X5.2787Y-3.1781
X5.3022Y-2.9483
X5.3171Y-4.5427
X5.3206Y-3.1817
X5.3209Y-2.6882
X5.3502Y-3.689
X5.3506Y-3.1562
X5.3614Y-2.9666
X5.3937Y-3.9984
X5.4089Y-3.2022
X5.4187Y-2.9878
X5.4211Y-2.6854
X5.4238Y-4.4862
X5.4546Y-3.1907
X5.4744Y-3.0171
X5.4811Y-3.2311
X5.4856Y-2.6827
X5.5253Y-3.221
X5.5367Y-4.1516
X5.5571Y-4.4585
X5.5587Y-2.6839
X5.5655Y-3.2213
X5.5692Y-3.0548
X5.579Y-2.6461
X5.5906Y-4.0192
X5.605Y-3.9759
X5.6098Y-4.3868
X5.6185Y-4.0797
X5.6215Y-3.9188
X5.6264Y-3.058
X5.6291Y-2.6478
X5.6305Y-4.0307
X5.6388Y-4.1319
X5.6409Y-3.8496
X5.6502Y-3.955
X5.661Y-3.1065
X5.6707Y-2.6844
X5.7469Y-4.1343
X5.8201Y-2.7402
X5.8242Y-4.3195
X5.836Y-4.1061
X6.0882Y-3.8451
X6.1187Y-4.0131
X6.123Y-4.2079
X6.1701Y-4.2804
X6.1879Y-4.1577
X6.1969Y-2.8573
X6.2207Y-2.9282
X6.2305Y-4.1215
X6.2559Y-2.7872
X6.2585Y-2.9086
X6.2625Y-3.0712
X6.2638Y-3.0318
X6.2665Y-3.1173
X6.2756Y-4.2035
X6.2979Y-2.8864
X6.3069Y-3.7492
X6.3125Y-2.8498
X6.3337Y-4.4648
X6.3384Y-4.3709
X6.361Y-4.2493
X6.3702Y-4.3453
X6.3794Y-4.4631
X6.4041Y-4.2358
X6.4077Y-3.9831
X6.413Y-2.8018
X6.4146Y-4.3731
X6.415Y-4.0366
X6.4483Y-3.9161
X6.4551Y-3.9638
X6.4582Y-4.48
X6.4587Y-3.8782
X6.4679Y-3.8264
X6.4736Y-4.3452
X6.4757Y-2.9025
X6.4935Y-4.4627
X6.5051Y-4.3689
X6.5065Y-3.9062
X6.533Y-2.8932
X6.5404Y-4.4661
X6.543Y-4.3582
X6.5485Y-3.9383
X6.5666Y-3.9734
X6.583Y-4.362
X6.5844Y-4.0087
X6.5885Y-4.4644
X6.6106Y-4.0381
X6.6231Y-4.363
X6.6444Y-4.0582
X6.6605Y-4.0941
X6.6616Y-4.3546
X6.6637Y-4.1354
X6.6888Y-3.1293
X6.6911Y-4.3815
X6.6951Y-4.2267
X6.7053Y-3.0787
X6.7195Y-4.0484
X6.726Y-4.3623
X6.7339Y-3.9254
X6.7517Y-4.2466
X6.762Y-4.0498
X6.7756Y-4.1758
X6.7929Y-3.9299
X6.8358Y-4.0496
T0
M30
