%TF.GenerationSoftware,KiCad,Pcbnew,5.1.6-c6e7f7d~87~ubuntu20.04.1*%
%TF.CreationDate,2020-08-13T14:06:16+02:00*%
%TF.ProjectId,maithoga_lcd_board_480x320_R61529,6d616974-686f-4676-915f-6c63645f626f,V1.0*%
%TF.SameCoordinates,Original*%
%TF.FileFunction,Paste,Top*%
%TF.FilePolarity,Positive*%
%FSLAX46Y46*%
G04 Gerber Fmt 4.6, Leading zero omitted, Abs format (unit mm)*
G04 Created by KiCad (PCBNEW 5.1.6-c6e7f7d~87~ubuntu20.04.1) date 2020-08-13 14:06:16*
%MOMM*%
%LPD*%
G01*
G04 APERTURE LIST*
%ADD10R,0.294000X0.840000*%
%ADD11R,0.294000X0.853440*%
%ADD12R,0.336000X0.853440*%
%ADD13R,1.092404X0.672084*%
%ADD14R,0.720000X0.384000*%
%ADD15R,1.512000X0.840000*%
%ADD16O,0.462000X0.840638*%
%ADD17R,2.520000X1.680000*%
G04 APERTURE END LIST*
%TO.C,DIS1*%
G36*
G01*
X165219001Y-86654001D02*
X166311001Y-86654001D01*
G75*
G02*
X166689001Y-87032001I0J-378000D01*
G01*
X166689001Y-87788001D01*
G75*
G02*
X166311001Y-88166001I-378000J0D01*
G01*
X165219001Y-88166001D01*
G75*
G02*
X164841001Y-87788001I0J378000D01*
G01*
X164841001Y-87032001D01*
G75*
G02*
X165219001Y-86654001I378000J0D01*
G01*
G37*
G36*
G01*
X163991501Y-84320001D02*
X164968501Y-84320001D01*
G75*
G02*
X165016001Y-84367501I0J-47500D01*
G01*
X165016001Y-84462501D01*
G75*
G02*
X164968501Y-84510001I-47500J0D01*
G01*
X163991501Y-84510001D01*
G75*
G02*
X163944001Y-84462501I0J47500D01*
G01*
X163944001Y-84367501D01*
G75*
G02*
X163991501Y-84320001I47500J0D01*
G01*
G37*
G36*
G01*
X163991501Y-83320001D02*
X164968501Y-83320001D01*
G75*
G02*
X165016001Y-83367501I0J-47500D01*
G01*
X165016001Y-83462501D01*
G75*
G02*
X164968501Y-83510001I-47500J0D01*
G01*
X163991501Y-83510001D01*
G75*
G02*
X163944001Y-83462501I0J47500D01*
G01*
X163944001Y-83367501D01*
G75*
G02*
X163991501Y-83320001I47500J0D01*
G01*
G37*
G36*
G01*
X163991501Y-84820001D02*
X164968501Y-84820001D01*
G75*
G02*
X165016001Y-84867501I0J-47500D01*
G01*
X165016001Y-84962501D01*
G75*
G02*
X164968501Y-85010001I-47500J0D01*
G01*
X163991501Y-85010001D01*
G75*
G02*
X163944001Y-84962501I0J47500D01*
G01*
X163944001Y-84867501D01*
G75*
G02*
X163991501Y-84820001I47500J0D01*
G01*
G37*
G36*
G01*
X163991501Y-83820001D02*
X164968501Y-83820001D01*
G75*
G02*
X165016001Y-83867501I0J-47500D01*
G01*
X165016001Y-83962501D01*
G75*
G02*
X164968501Y-84010001I-47500J0D01*
G01*
X163991501Y-84010001D01*
G75*
G02*
X163944001Y-83962501I0J47500D01*
G01*
X163944001Y-83867501D01*
G75*
G02*
X163991501Y-83820001I47500J0D01*
G01*
G37*
G36*
G01*
X163991501Y-82820001D02*
X164968501Y-82820001D01*
G75*
G02*
X165016001Y-82867501I0J-47500D01*
G01*
X165016001Y-82962501D01*
G75*
G02*
X164968501Y-83010001I-47500J0D01*
G01*
X163991501Y-83010001D01*
G75*
G02*
X163944001Y-82962501I0J47500D01*
G01*
X163944001Y-82867501D01*
G75*
G02*
X163991501Y-82820001I47500J0D01*
G01*
G37*
G36*
G01*
X163991501Y-82320001D02*
X164968501Y-82320001D01*
G75*
G02*
X165016001Y-82367501I0J-47500D01*
G01*
X165016001Y-82462501D01*
G75*
G02*
X164968501Y-82510001I-47500J0D01*
G01*
X163991501Y-82510001D01*
G75*
G02*
X163944001Y-82462501I0J47500D01*
G01*
X163944001Y-82367501D01*
G75*
G02*
X163991501Y-82320001I47500J0D01*
G01*
G37*
G36*
G01*
X165219001Y-79164001D02*
X166311001Y-79164001D01*
G75*
G02*
X166689001Y-79542001I0J-378000D01*
G01*
X166689001Y-80298001D01*
G75*
G02*
X166311001Y-80676001I-378000J0D01*
G01*
X165219001Y-80676001D01*
G75*
G02*
X164841001Y-80298001I0J378000D01*
G01*
X164841001Y-79542001D01*
G75*
G02*
X165219001Y-79164001I378000J0D01*
G01*
G37*
D10*
X162805001Y-112260001D03*
X162205001Y-112260001D03*
X164005001Y-112260001D03*
X163405001Y-112260001D03*
D11*
X161305001Y-109260001D03*
X161905001Y-109260001D03*
X162505001Y-109260001D03*
X163105001Y-109260001D03*
X163705001Y-109260001D03*
X164305001Y-109260001D03*
X164905001Y-109260001D03*
D12*
X157305001Y-111960001D03*
X171905001Y-111960001D03*
D11*
X170905001Y-109260001D03*
X166705001Y-109260001D03*
X169705001Y-109260001D03*
X170305001Y-109260001D03*
X167305001Y-109260001D03*
X168505001Y-109260001D03*
X165505001Y-109260001D03*
X169105001Y-109260001D03*
X167905001Y-109260001D03*
X166105001Y-109260001D03*
D10*
X168805001Y-112260001D03*
X169405001Y-112260001D03*
X170005001Y-112260001D03*
X170605001Y-112260001D03*
X171205001Y-112260001D03*
X167605001Y-112260001D03*
X166405001Y-112260001D03*
X165805001Y-112260001D03*
X167005001Y-112260001D03*
X168205001Y-112260001D03*
X161605001Y-112260001D03*
X161005001Y-112260001D03*
X160405001Y-112260001D03*
X159805001Y-112260001D03*
X159205001Y-112260001D03*
D11*
X158905001Y-109260001D03*
X158305001Y-109260001D03*
D10*
X158005001Y-112260001D03*
X158605001Y-112260001D03*
D11*
X159505001Y-109260001D03*
X160105001Y-109260001D03*
X160705001Y-109260001D03*
D10*
X165205001Y-112260001D03*
X164605001Y-112260001D03*
%TD*%
D13*
%TO.C,D1*%
X162050000Y-104459240D03*
X162050000Y-106460760D03*
%TD*%
D14*
%TO.C,C2*%
X156905000Y-101165000D03*
X156905000Y-102565000D03*
%TD*%
%TO.C,C3*%
X155835000Y-111090000D03*
X155835000Y-109690000D03*
%TD*%
D15*
%TO.C,D2*%
X153755000Y-107605000D03*
X153755000Y-111105000D03*
%TD*%
%TO.C,L1*%
G36*
G01*
X153061000Y-102725000D02*
X154489000Y-102725000D01*
G75*
G02*
X154699000Y-102935000I0J-210000D01*
G01*
X154699000Y-103565000D01*
G75*
G02*
X154489000Y-103775000I-210000J0D01*
G01*
X153061000Y-103775000D01*
G75*
G02*
X152851000Y-103565000I0J210000D01*
G01*
X152851000Y-102935000D01*
G75*
G02*
X153061000Y-102725000I210000J0D01*
G01*
G37*
G36*
G01*
X153061000Y-104875000D02*
X154489000Y-104875000D01*
G75*
G02*
X154699000Y-105085000I0J-210000D01*
G01*
X154699000Y-105715000D01*
G75*
G02*
X154489000Y-105925000I-210000J0D01*
G01*
X153061000Y-105925000D01*
G75*
G02*
X152851000Y-105715000I0J210000D01*
G01*
X152851000Y-105085000D01*
G75*
G02*
X153061000Y-104875000I210000J0D01*
G01*
G37*
%TD*%
D14*
%TO.C,R4*%
X160020000Y-105880000D03*
X160020000Y-107280000D03*
%TD*%
D16*
%TO.C,U2*%
X156625000Y-103715000D03*
X157575000Y-103715000D03*
X158525000Y-103715000D03*
X158525000Y-106915000D03*
X157575000Y-106915000D03*
X156625000Y-106915000D03*
%TD*%
%TO.C,P2*%
G36*
G01*
X125104000Y-70522000D02*
X125104000Y-69598000D01*
G75*
G02*
X125167000Y-69535000I63000J0D01*
G01*
X125293000Y-69535000D01*
G75*
G02*
X125356000Y-69598000I0J-63000D01*
G01*
X125356000Y-70522000D01*
G75*
G02*
X125293000Y-70585000I-63000J0D01*
G01*
X125167000Y-70585000D01*
G75*
G02*
X125104000Y-70522000I0J63000D01*
G01*
G37*
G36*
G01*
X125604000Y-70522000D02*
X125604000Y-69598000D01*
G75*
G02*
X125667000Y-69535000I63000J0D01*
G01*
X125793000Y-69535000D01*
G75*
G02*
X125856000Y-69598000I0J-63000D01*
G01*
X125856000Y-70522000D01*
G75*
G02*
X125793000Y-70585000I-63000J0D01*
G01*
X125667000Y-70585000D01*
G75*
G02*
X125604000Y-70522000I0J63000D01*
G01*
G37*
G36*
G01*
X126604000Y-70522000D02*
X126604000Y-69598000D01*
G75*
G02*
X126667000Y-69535000I63000J0D01*
G01*
X126793000Y-69535000D01*
G75*
G02*
X126856000Y-69598000I0J-63000D01*
G01*
X126856000Y-70522000D01*
G75*
G02*
X126793000Y-70585000I-63000J0D01*
G01*
X126667000Y-70585000D01*
G75*
G02*
X126604000Y-70522000I0J63000D01*
G01*
G37*
G36*
G01*
X126104000Y-70522000D02*
X126104000Y-69598000D01*
G75*
G02*
X126167000Y-69535000I63000J0D01*
G01*
X126293000Y-69535000D01*
G75*
G02*
X126356000Y-69598000I0J-63000D01*
G01*
X126356000Y-70522000D01*
G75*
G02*
X126293000Y-70585000I-63000J0D01*
G01*
X126167000Y-70585000D01*
G75*
G02*
X126104000Y-70522000I0J63000D01*
G01*
G37*
G36*
G01*
X128604000Y-70522000D02*
X128604000Y-69598000D01*
G75*
G02*
X128667000Y-69535000I63000J0D01*
G01*
X128793000Y-69535000D01*
G75*
G02*
X128856000Y-69598000I0J-63000D01*
G01*
X128856000Y-70522000D01*
G75*
G02*
X128793000Y-70585000I-63000J0D01*
G01*
X128667000Y-70585000D01*
G75*
G02*
X128604000Y-70522000I0J63000D01*
G01*
G37*
G36*
G01*
X128104000Y-70522000D02*
X128104000Y-69598000D01*
G75*
G02*
X128167000Y-69535000I63000J0D01*
G01*
X128293000Y-69535000D01*
G75*
G02*
X128356000Y-69598000I0J-63000D01*
G01*
X128356000Y-70522000D01*
G75*
G02*
X128293000Y-70585000I-63000J0D01*
G01*
X128167000Y-70585000D01*
G75*
G02*
X128104000Y-70522000I0J63000D01*
G01*
G37*
G36*
G01*
X127604000Y-70522000D02*
X127604000Y-69598000D01*
G75*
G02*
X127667000Y-69535000I63000J0D01*
G01*
X127793000Y-69535000D01*
G75*
G02*
X127856000Y-69598000I0J-63000D01*
G01*
X127856000Y-70522000D01*
G75*
G02*
X127793000Y-70585000I-63000J0D01*
G01*
X127667000Y-70585000D01*
G75*
G02*
X127604000Y-70522000I0J63000D01*
G01*
G37*
G36*
G01*
X127104000Y-70522000D02*
X127104000Y-69598000D01*
G75*
G02*
X127167000Y-69535000I63000J0D01*
G01*
X127293000Y-69535000D01*
G75*
G02*
X127356000Y-69598000I0J-63000D01*
G01*
X127356000Y-70522000D01*
G75*
G02*
X127293000Y-70585000I-63000J0D01*
G01*
X127167000Y-70585000D01*
G75*
G02*
X127104000Y-70522000I0J63000D01*
G01*
G37*
G36*
G01*
X130604000Y-70522000D02*
X130604000Y-69598000D01*
G75*
G02*
X130667000Y-69535000I63000J0D01*
G01*
X130793000Y-69535000D01*
G75*
G02*
X130856000Y-69598000I0J-63000D01*
G01*
X130856000Y-70522000D01*
G75*
G02*
X130793000Y-70585000I-63000J0D01*
G01*
X130667000Y-70585000D01*
G75*
G02*
X130604000Y-70522000I0J63000D01*
G01*
G37*
G36*
G01*
X130104000Y-70522000D02*
X130104000Y-69598000D01*
G75*
G02*
X130167000Y-69535000I63000J0D01*
G01*
X130293000Y-69535000D01*
G75*
G02*
X130356000Y-69598000I0J-63000D01*
G01*
X130356000Y-70522000D01*
G75*
G02*
X130293000Y-70585000I-63000J0D01*
G01*
X130167000Y-70585000D01*
G75*
G02*
X130104000Y-70522000I0J63000D01*
G01*
G37*
G36*
G01*
X131604000Y-70522000D02*
X131604000Y-69598000D01*
G75*
G02*
X131667000Y-69535000I63000J0D01*
G01*
X131793000Y-69535000D01*
G75*
G02*
X131856000Y-69598000I0J-63000D01*
G01*
X131856000Y-70522000D01*
G75*
G02*
X131793000Y-70585000I-63000J0D01*
G01*
X131667000Y-70585000D01*
G75*
G02*
X131604000Y-70522000I0J63000D01*
G01*
G37*
G36*
G01*
X131104000Y-70522000D02*
X131104000Y-69598000D01*
G75*
G02*
X131167000Y-69535000I63000J0D01*
G01*
X131293000Y-69535000D01*
G75*
G02*
X131356000Y-69598000I0J-63000D01*
G01*
X131356000Y-70522000D01*
G75*
G02*
X131293000Y-70585000I-63000J0D01*
G01*
X131167000Y-70585000D01*
G75*
G02*
X131104000Y-70522000I0J63000D01*
G01*
G37*
G36*
G01*
X129604000Y-70522000D02*
X129604000Y-69598000D01*
G75*
G02*
X129667000Y-69535000I63000J0D01*
G01*
X129793000Y-69535000D01*
G75*
G02*
X129856000Y-69598000I0J-63000D01*
G01*
X129856000Y-70522000D01*
G75*
G02*
X129793000Y-70585000I-63000J0D01*
G01*
X129667000Y-70585000D01*
G75*
G02*
X129604000Y-70522000I0J63000D01*
G01*
G37*
G36*
G01*
X129104000Y-70522000D02*
X129104000Y-69598000D01*
G75*
G02*
X129167000Y-69535000I63000J0D01*
G01*
X129293000Y-69535000D01*
G75*
G02*
X129356000Y-69598000I0J-63000D01*
G01*
X129356000Y-70522000D01*
G75*
G02*
X129293000Y-70585000I-63000J0D01*
G01*
X129167000Y-70585000D01*
G75*
G02*
X129104000Y-70522000I0J63000D01*
G01*
G37*
G36*
G01*
X132104000Y-70522000D02*
X132104000Y-69598000D01*
G75*
G02*
X132167000Y-69535000I63000J0D01*
G01*
X132293000Y-69535000D01*
G75*
G02*
X132356000Y-69598000I0J-63000D01*
G01*
X132356000Y-70522000D01*
G75*
G02*
X132293000Y-70585000I-63000J0D01*
G01*
X132167000Y-70585000D01*
G75*
G02*
X132104000Y-70522000I0J63000D01*
G01*
G37*
G36*
G01*
X132604000Y-70522000D02*
X132604000Y-69598000D01*
G75*
G02*
X132667000Y-69535000I63000J0D01*
G01*
X132793000Y-69535000D01*
G75*
G02*
X132856000Y-69598000I0J-63000D01*
G01*
X132856000Y-70522000D01*
G75*
G02*
X132793000Y-70585000I-63000J0D01*
G01*
X132667000Y-70585000D01*
G75*
G02*
X132604000Y-70522000I0J63000D01*
G01*
G37*
G36*
G01*
X139104000Y-70522000D02*
X139104000Y-69598000D01*
G75*
G02*
X139167000Y-69535000I63000J0D01*
G01*
X139293000Y-69535000D01*
G75*
G02*
X139356000Y-69598000I0J-63000D01*
G01*
X139356000Y-70522000D01*
G75*
G02*
X139293000Y-70585000I-63000J0D01*
G01*
X139167000Y-70585000D01*
G75*
G02*
X139104000Y-70522000I0J63000D01*
G01*
G37*
G36*
G01*
X134604000Y-70522000D02*
X134604000Y-69598000D01*
G75*
G02*
X134667000Y-69535000I63000J0D01*
G01*
X134793000Y-69535000D01*
G75*
G02*
X134856000Y-69598000I0J-63000D01*
G01*
X134856000Y-70522000D01*
G75*
G02*
X134793000Y-70585000I-63000J0D01*
G01*
X134667000Y-70585000D01*
G75*
G02*
X134604000Y-70522000I0J63000D01*
G01*
G37*
G36*
G01*
X134104000Y-70522000D02*
X134104000Y-69598000D01*
G75*
G02*
X134167000Y-69535000I63000J0D01*
G01*
X134293000Y-69535000D01*
G75*
G02*
X134356000Y-69598000I0J-63000D01*
G01*
X134356000Y-70522000D01*
G75*
G02*
X134293000Y-70585000I-63000J0D01*
G01*
X134167000Y-70585000D01*
G75*
G02*
X134104000Y-70522000I0J63000D01*
G01*
G37*
G36*
G01*
X135604000Y-70522000D02*
X135604000Y-69598000D01*
G75*
G02*
X135667000Y-69535000I63000J0D01*
G01*
X135793000Y-69535000D01*
G75*
G02*
X135856000Y-69598000I0J-63000D01*
G01*
X135856000Y-70522000D01*
G75*
G02*
X135793000Y-70585000I-63000J0D01*
G01*
X135667000Y-70585000D01*
G75*
G02*
X135604000Y-70522000I0J63000D01*
G01*
G37*
G36*
G01*
X135104000Y-70522000D02*
X135104000Y-69598000D01*
G75*
G02*
X135167000Y-69535000I63000J0D01*
G01*
X135293000Y-69535000D01*
G75*
G02*
X135356000Y-69598000I0J-63000D01*
G01*
X135356000Y-70522000D01*
G75*
G02*
X135293000Y-70585000I-63000J0D01*
G01*
X135167000Y-70585000D01*
G75*
G02*
X135104000Y-70522000I0J63000D01*
G01*
G37*
G36*
G01*
X138104000Y-70522000D02*
X138104000Y-69598000D01*
G75*
G02*
X138167000Y-69535000I63000J0D01*
G01*
X138293000Y-69535000D01*
G75*
G02*
X138356000Y-69598000I0J-63000D01*
G01*
X138356000Y-70522000D01*
G75*
G02*
X138293000Y-70585000I-63000J0D01*
G01*
X138167000Y-70585000D01*
G75*
G02*
X138104000Y-70522000I0J63000D01*
G01*
G37*
G36*
G01*
X133604000Y-70522000D02*
X133604000Y-69598000D01*
G75*
G02*
X133667000Y-69535000I63000J0D01*
G01*
X133793000Y-69535000D01*
G75*
G02*
X133856000Y-69598000I0J-63000D01*
G01*
X133856000Y-70522000D01*
G75*
G02*
X133793000Y-70585000I-63000J0D01*
G01*
X133667000Y-70585000D01*
G75*
G02*
X133604000Y-70522000I0J63000D01*
G01*
G37*
G36*
G01*
X133104000Y-70522000D02*
X133104000Y-69598000D01*
G75*
G02*
X133167000Y-69535000I63000J0D01*
G01*
X133293000Y-69535000D01*
G75*
G02*
X133356000Y-69598000I0J-63000D01*
G01*
X133356000Y-70522000D01*
G75*
G02*
X133293000Y-70585000I-63000J0D01*
G01*
X133167000Y-70585000D01*
G75*
G02*
X133104000Y-70522000I0J63000D01*
G01*
G37*
G36*
G01*
X140104000Y-70522000D02*
X140104000Y-69598000D01*
G75*
G02*
X140167000Y-69535000I63000J0D01*
G01*
X140293000Y-69535000D01*
G75*
G02*
X140356000Y-69598000I0J-63000D01*
G01*
X140356000Y-70522000D01*
G75*
G02*
X140293000Y-70585000I-63000J0D01*
G01*
X140167000Y-70585000D01*
G75*
G02*
X140104000Y-70522000I0J63000D01*
G01*
G37*
G36*
G01*
X137604000Y-70522000D02*
X137604000Y-69598000D01*
G75*
G02*
X137667000Y-69535000I63000J0D01*
G01*
X137793000Y-69535000D01*
G75*
G02*
X137856000Y-69598000I0J-63000D01*
G01*
X137856000Y-70522000D01*
G75*
G02*
X137793000Y-70585000I-63000J0D01*
G01*
X137667000Y-70585000D01*
G75*
G02*
X137604000Y-70522000I0J63000D01*
G01*
G37*
G36*
G01*
X136104000Y-70522000D02*
X136104000Y-69598000D01*
G75*
G02*
X136167000Y-69535000I63000J0D01*
G01*
X136293000Y-69535000D01*
G75*
G02*
X136356000Y-69598000I0J-63000D01*
G01*
X136356000Y-70522000D01*
G75*
G02*
X136293000Y-70585000I-63000J0D01*
G01*
X136167000Y-70585000D01*
G75*
G02*
X136104000Y-70522000I0J63000D01*
G01*
G37*
G36*
G01*
X139604000Y-70522000D02*
X139604000Y-69598000D01*
G75*
G02*
X139667000Y-69535000I63000J0D01*
G01*
X139793000Y-69535000D01*
G75*
G02*
X139856000Y-69598000I0J-63000D01*
G01*
X139856000Y-70522000D01*
G75*
G02*
X139793000Y-70585000I-63000J0D01*
G01*
X139667000Y-70585000D01*
G75*
G02*
X139604000Y-70522000I0J63000D01*
G01*
G37*
G36*
G01*
X138604000Y-70522000D02*
X138604000Y-69598000D01*
G75*
G02*
X138667000Y-69535000I63000J0D01*
G01*
X138793000Y-69535000D01*
G75*
G02*
X138856000Y-69598000I0J-63000D01*
G01*
X138856000Y-70522000D01*
G75*
G02*
X138793000Y-70585000I-63000J0D01*
G01*
X138667000Y-70585000D01*
G75*
G02*
X138604000Y-70522000I0J63000D01*
G01*
G37*
G36*
G01*
X140604000Y-70522000D02*
X140604000Y-69598000D01*
G75*
G02*
X140667000Y-69535000I63000J0D01*
G01*
X140793000Y-69535000D01*
G75*
G02*
X140856000Y-69598000I0J-63000D01*
G01*
X140856000Y-70522000D01*
G75*
G02*
X140793000Y-70585000I-63000J0D01*
G01*
X140667000Y-70585000D01*
G75*
G02*
X140604000Y-70522000I0J63000D01*
G01*
G37*
G36*
G01*
X137104000Y-70522000D02*
X137104000Y-69598000D01*
G75*
G02*
X137167000Y-69535000I63000J0D01*
G01*
X137293000Y-69535000D01*
G75*
G02*
X137356000Y-69598000I0J-63000D01*
G01*
X137356000Y-70522000D01*
G75*
G02*
X137293000Y-70585000I-63000J0D01*
G01*
X137167000Y-70585000D01*
G75*
G02*
X137104000Y-70522000I0J63000D01*
G01*
G37*
G36*
G01*
X136604000Y-70522000D02*
X136604000Y-69598000D01*
G75*
G02*
X136667000Y-69535000I63000J0D01*
G01*
X136793000Y-69535000D01*
G75*
G02*
X136856000Y-69598000I0J-63000D01*
G01*
X136856000Y-70522000D01*
G75*
G02*
X136793000Y-70585000I-63000J0D01*
G01*
X136667000Y-70585000D01*
G75*
G02*
X136604000Y-70522000I0J63000D01*
G01*
G37*
G36*
G01*
X142104000Y-70522000D02*
X142104000Y-69598000D01*
G75*
G02*
X142167000Y-69535000I63000J0D01*
G01*
X142293000Y-69535000D01*
G75*
G02*
X142356000Y-69598000I0J-63000D01*
G01*
X142356000Y-70522000D01*
G75*
G02*
X142293000Y-70585000I-63000J0D01*
G01*
X142167000Y-70585000D01*
G75*
G02*
X142104000Y-70522000I0J63000D01*
G01*
G37*
G36*
G01*
X142604000Y-70522000D02*
X142604000Y-69598000D01*
G75*
G02*
X142667000Y-69535000I63000J0D01*
G01*
X142793000Y-69535000D01*
G75*
G02*
X142856000Y-69598000I0J-63000D01*
G01*
X142856000Y-70522000D01*
G75*
G02*
X142793000Y-70585000I-63000J0D01*
G01*
X142667000Y-70585000D01*
G75*
G02*
X142604000Y-70522000I0J63000D01*
G01*
G37*
G36*
G01*
X144604000Y-70522000D02*
X144604000Y-69598000D01*
G75*
G02*
X144667000Y-69535000I63000J0D01*
G01*
X144793000Y-69535000D01*
G75*
G02*
X144856000Y-69598000I0J-63000D01*
G01*
X144856000Y-70522000D01*
G75*
G02*
X144793000Y-70585000I-63000J0D01*
G01*
X144667000Y-70585000D01*
G75*
G02*
X144604000Y-70522000I0J63000D01*
G01*
G37*
G36*
G01*
X143604000Y-70522000D02*
X143604000Y-69598000D01*
G75*
G02*
X143667000Y-69535000I63000J0D01*
G01*
X143793000Y-69535000D01*
G75*
G02*
X143856000Y-69598000I0J-63000D01*
G01*
X143856000Y-70522000D01*
G75*
G02*
X143793000Y-70585000I-63000J0D01*
G01*
X143667000Y-70585000D01*
G75*
G02*
X143604000Y-70522000I0J63000D01*
G01*
G37*
G36*
G01*
X141104000Y-70522000D02*
X141104000Y-69598000D01*
G75*
G02*
X141167000Y-69535000I63000J0D01*
G01*
X141293000Y-69535000D01*
G75*
G02*
X141356000Y-69598000I0J-63000D01*
G01*
X141356000Y-70522000D01*
G75*
G02*
X141293000Y-70585000I-63000J0D01*
G01*
X141167000Y-70585000D01*
G75*
G02*
X141104000Y-70522000I0J63000D01*
G01*
G37*
G36*
G01*
X144104000Y-70522000D02*
X144104000Y-69598000D01*
G75*
G02*
X144167000Y-69535000I63000J0D01*
G01*
X144293000Y-69535000D01*
G75*
G02*
X144356000Y-69598000I0J-63000D01*
G01*
X144356000Y-70522000D01*
G75*
G02*
X144293000Y-70585000I-63000J0D01*
G01*
X144167000Y-70585000D01*
G75*
G02*
X144104000Y-70522000I0J63000D01*
G01*
G37*
G36*
G01*
X141604000Y-70522000D02*
X141604000Y-69598000D01*
G75*
G02*
X141667000Y-69535000I63000J0D01*
G01*
X141793000Y-69535000D01*
G75*
G02*
X141856000Y-69598000I0J-63000D01*
G01*
X141856000Y-70522000D01*
G75*
G02*
X141793000Y-70585000I-63000J0D01*
G01*
X141667000Y-70585000D01*
G75*
G02*
X141604000Y-70522000I0J63000D01*
G01*
G37*
G36*
G01*
X145230000Y-68685000D02*
X145230000Y-67635000D01*
G75*
G02*
X145755000Y-67110000I525000J0D01*
G01*
X146805000Y-67110000D01*
G75*
G02*
X147330000Y-67635000I0J-525000D01*
G01*
X147330000Y-68685000D01*
G75*
G02*
X146805000Y-69210000I-525000J0D01*
G01*
X145755000Y-69210000D01*
G75*
G02*
X145230000Y-68685000I0J525000D01*
G01*
G37*
G36*
G01*
X143104000Y-70522000D02*
X143104000Y-69598000D01*
G75*
G02*
X143167000Y-69535000I63000J0D01*
G01*
X143293000Y-69535000D01*
G75*
G02*
X143356000Y-69598000I0J-63000D01*
G01*
X143356000Y-70522000D01*
G75*
G02*
X143293000Y-70585000I-63000J0D01*
G01*
X143167000Y-70585000D01*
G75*
G02*
X143104000Y-70522000I0J63000D01*
G01*
G37*
G36*
G01*
X122630000Y-68685000D02*
X122630000Y-67635000D01*
G75*
G02*
X123155000Y-67110000I525000J0D01*
G01*
X124205000Y-67110000D01*
G75*
G02*
X124730000Y-67635000I0J-525000D01*
G01*
X124730000Y-68685000D01*
G75*
G02*
X124205000Y-69210000I-525000J0D01*
G01*
X123155000Y-69210000D01*
G75*
G02*
X122630000Y-68685000I0J525000D01*
G01*
G37*
%TD*%
D17*
%TO.C,P1*%
X117705000Y-115420000D03*
X117705000Y-112880000D03*
X117705000Y-110340000D03*
X117705000Y-105260000D03*
X117705000Y-102720000D03*
X117705000Y-100180000D03*
X117705000Y-97640000D03*
X117705000Y-95100000D03*
X117705000Y-92560000D03*
X117705000Y-107800000D03*
X117705000Y-79860000D03*
X117705000Y-90020000D03*
X117705000Y-87480000D03*
X117705000Y-84940000D03*
X117705000Y-82400000D03*
X117705000Y-69700000D03*
X117705000Y-77320000D03*
X117705000Y-74780000D03*
X117705000Y-72240000D03*
X117705000Y-67160000D03*
X110085000Y-110340000D03*
X110085000Y-112880000D03*
X110085000Y-105260000D03*
X110085000Y-115420000D03*
X110085000Y-107800000D03*
X110085000Y-92560000D03*
X110085000Y-102720000D03*
X110085000Y-100180000D03*
X110085000Y-95100000D03*
X110085000Y-97640000D03*
X110085000Y-90020000D03*
X110085000Y-82400000D03*
X110085000Y-79860000D03*
X110085000Y-87480000D03*
X110085000Y-84940000D03*
X110085000Y-77320000D03*
X110085000Y-72240000D03*
X110085000Y-74780000D03*
X110085000Y-69700000D03*
X110085000Y-67160000D03*
%TD*%
D14*
%TO.C,R5*%
X170370000Y-100900000D03*
X170370000Y-102300000D03*
%TD*%
%TO.C,R6*%
X171755000Y-102300000D03*
X171755000Y-100900000D03*
%TD*%
%TO.C,R7*%
X173140000Y-102300000D03*
X173140000Y-100900000D03*
%TD*%
%TO.C,R8*%
X173140000Y-103380000D03*
X173140000Y-104780000D03*
%TD*%
%TO.C,R9*%
X171755000Y-104775000D03*
X171755000Y-103375000D03*
%TD*%
%TO.C,R10*%
X170375000Y-103380000D03*
X170375000Y-104780000D03*
%TD*%
M02*
