%TF.GenerationSoftware,KiCad,Pcbnew,5.1.6-c6e7f7d~87~ubuntu20.04.1*%
%TF.CreationDate,2020-08-13T14:06:16+02:00*%
%TF.ProjectId,maithoga_lcd_board_480x320_R61529,6d616974-686f-4676-915f-6c63645f626f,V1.0*%
%TF.SameCoordinates,Original*%
%TF.FileFunction,Soldermask,Top*%
%TF.FilePolarity,Negative*%
%FSLAX46Y46*%
G04 Gerber Fmt 4.6, Leading zero omitted, Abs format (unit mm)*
G04 Created by KiCad (PCBNEW 5.1.6-c6e7f7d~87~ubuntu20.04.1) date 2020-08-13 14:06:16*
%MOMM*%
%LPD*%
G01*
G04 APERTURE LIST*
%ADD10C,0.100000*%
G04 APERTURE END LIST*
D10*
G36*
X119275000Y-116490000D02*
G01*
X116135000Y-116490000D01*
X116135000Y-114350000D01*
X119275000Y-114350000D01*
X119275000Y-116490000D01*
G37*
G36*
X111655000Y-116490000D02*
G01*
X108515000Y-116490000D01*
X108515000Y-114350000D01*
X111655000Y-114350000D01*
X111655000Y-116490000D01*
G37*
G36*
X111655000Y-113950000D02*
G01*
X108515000Y-113950000D01*
X108515000Y-111810000D01*
X111655000Y-111810000D01*
X111655000Y-113950000D01*
G37*
G36*
X119275000Y-113950000D02*
G01*
X116135000Y-113950000D01*
X116135000Y-111810000D01*
X119275000Y-111810000D01*
X119275000Y-113950000D01*
G37*
G36*
X169610001Y-112790001D02*
G01*
X169200001Y-112790001D01*
X169200001Y-111730001D01*
X169610001Y-111730001D01*
X169610001Y-112790001D01*
G37*
G36*
X164210001Y-112790001D02*
G01*
X163800001Y-112790001D01*
X163800001Y-111730001D01*
X164210001Y-111730001D01*
X164210001Y-112790001D01*
G37*
G36*
X163610001Y-112790001D02*
G01*
X163200001Y-112790001D01*
X163200001Y-111730001D01*
X163610001Y-111730001D01*
X163610001Y-112790001D01*
G37*
G36*
X169010001Y-112790001D02*
G01*
X168600001Y-112790001D01*
X168600001Y-111730001D01*
X169010001Y-111730001D01*
X169010001Y-112790001D01*
G37*
G36*
X170210001Y-112790001D02*
G01*
X169800001Y-112790001D01*
X169800001Y-111730001D01*
X170210001Y-111730001D01*
X170210001Y-112790001D01*
G37*
G36*
X170810001Y-112790001D02*
G01*
X170400001Y-112790001D01*
X170400001Y-111730001D01*
X170810001Y-111730001D01*
X170810001Y-112790001D01*
G37*
G36*
X171410001Y-112790001D02*
G01*
X171000001Y-112790001D01*
X171000001Y-111730001D01*
X171410001Y-111730001D01*
X171410001Y-112790001D01*
G37*
G36*
X167810001Y-112790001D02*
G01*
X167400001Y-112790001D01*
X167400001Y-111730001D01*
X167810001Y-111730001D01*
X167810001Y-112790001D01*
G37*
G36*
X166610001Y-112790001D02*
G01*
X166200001Y-112790001D01*
X166200001Y-111730001D01*
X166610001Y-111730001D01*
X166610001Y-112790001D01*
G37*
G36*
X166010001Y-112790001D02*
G01*
X165600001Y-112790001D01*
X165600001Y-111730001D01*
X166010001Y-111730001D01*
X166010001Y-112790001D01*
G37*
G36*
X167210001Y-112790001D02*
G01*
X166800001Y-112790001D01*
X166800001Y-111730001D01*
X167210001Y-111730001D01*
X167210001Y-112790001D01*
G37*
G36*
X162410001Y-112790001D02*
G01*
X162000001Y-112790001D01*
X162000001Y-111730001D01*
X162410001Y-111730001D01*
X162410001Y-112790001D01*
G37*
G36*
X161210001Y-112790001D02*
G01*
X160800001Y-112790001D01*
X160800001Y-111730001D01*
X161210001Y-111730001D01*
X161210001Y-112790001D01*
G37*
G36*
X160610001Y-112790001D02*
G01*
X160200001Y-112790001D01*
X160200001Y-111730001D01*
X160610001Y-111730001D01*
X160610001Y-112790001D01*
G37*
G36*
X160010001Y-112790001D02*
G01*
X159600001Y-112790001D01*
X159600001Y-111730001D01*
X160010001Y-111730001D01*
X160010001Y-112790001D01*
G37*
G36*
X159410001Y-112790001D02*
G01*
X159000001Y-112790001D01*
X159000001Y-111730001D01*
X159410001Y-111730001D01*
X159410001Y-112790001D01*
G37*
G36*
X158210001Y-112790001D02*
G01*
X157800001Y-112790001D01*
X157800001Y-111730001D01*
X158210001Y-111730001D01*
X158210001Y-112790001D01*
G37*
G36*
X158810001Y-112790001D02*
G01*
X158400001Y-112790001D01*
X158400001Y-111730001D01*
X158810001Y-111730001D01*
X158810001Y-112790001D01*
G37*
G36*
X161810001Y-112790001D02*
G01*
X161400001Y-112790001D01*
X161400001Y-111730001D01*
X161810001Y-111730001D01*
X161810001Y-112790001D01*
G37*
G36*
X165410001Y-112790001D02*
G01*
X165000001Y-112790001D01*
X165000001Y-111730001D01*
X165410001Y-111730001D01*
X165410001Y-112790001D01*
G37*
G36*
X164810001Y-112790001D02*
G01*
X164400001Y-112790001D01*
X164400001Y-111730001D01*
X164810001Y-111730001D01*
X164810001Y-112790001D01*
G37*
G36*
X163010001Y-112790001D02*
G01*
X162600001Y-112790001D01*
X162600001Y-111730001D01*
X163010001Y-111730001D01*
X163010001Y-112790001D01*
G37*
G36*
X168410001Y-112790001D02*
G01*
X168000001Y-112790001D01*
X168000001Y-111730001D01*
X168410001Y-111730001D01*
X168410001Y-112790001D01*
G37*
G36*
X157535001Y-112498001D02*
G01*
X157075001Y-112498001D01*
X157075001Y-111422001D01*
X157535001Y-111422001D01*
X157535001Y-112498001D01*
G37*
G36*
X172135001Y-112498001D02*
G01*
X171675001Y-112498001D01*
X171675001Y-111422001D01*
X172135001Y-111422001D01*
X172135001Y-112498001D01*
G37*
G36*
X154675000Y-111625000D02*
G01*
X152835000Y-111625000D01*
X152835000Y-110585000D01*
X154675000Y-110585000D01*
X154675000Y-111625000D01*
G37*
G36*
X119275000Y-111410000D02*
G01*
X116135000Y-111410000D01*
X116135000Y-109270000D01*
X119275000Y-109270000D01*
X119275000Y-111410000D01*
G37*
G36*
X111655000Y-111410000D02*
G01*
X108515000Y-111410000D01*
X108515000Y-109270000D01*
X111655000Y-109270000D01*
X111655000Y-111410000D01*
G37*
G36*
X156345000Y-111400000D02*
G01*
X155325000Y-111400000D01*
X155325000Y-110780000D01*
X156345000Y-110780000D01*
X156345000Y-111400000D01*
G37*
G36*
X156345000Y-110000000D02*
G01*
X155325000Y-110000000D01*
X155325000Y-109380000D01*
X156345000Y-109380000D01*
X156345000Y-110000000D01*
G37*
G36*
X161510001Y-109798001D02*
G01*
X161100001Y-109798001D01*
X161100001Y-108722001D01*
X161510001Y-108722001D01*
X161510001Y-109798001D01*
G37*
G36*
X168110001Y-109798001D02*
G01*
X167700001Y-109798001D01*
X167700001Y-108722001D01*
X168110001Y-108722001D01*
X168110001Y-109798001D01*
G37*
G36*
X169310001Y-109798001D02*
G01*
X168900001Y-109798001D01*
X168900001Y-108722001D01*
X169310001Y-108722001D01*
X169310001Y-109798001D01*
G37*
G36*
X165710001Y-109798001D02*
G01*
X165300001Y-109798001D01*
X165300001Y-108722001D01*
X165710001Y-108722001D01*
X165710001Y-109798001D01*
G37*
G36*
X159110001Y-109798001D02*
G01*
X158700001Y-109798001D01*
X158700001Y-108722001D01*
X159110001Y-108722001D01*
X159110001Y-109798001D01*
G37*
G36*
X168710001Y-109798001D02*
G01*
X168300001Y-109798001D01*
X168300001Y-108722001D01*
X168710001Y-108722001D01*
X168710001Y-109798001D01*
G37*
G36*
X158510001Y-109798001D02*
G01*
X158100001Y-109798001D01*
X158100001Y-108722001D01*
X158510001Y-108722001D01*
X158510001Y-109798001D01*
G37*
G36*
X167510001Y-109798001D02*
G01*
X167100001Y-109798001D01*
X167100001Y-108722001D01*
X167510001Y-108722001D01*
X167510001Y-109798001D01*
G37*
G36*
X170510001Y-109798001D02*
G01*
X170100001Y-109798001D01*
X170100001Y-108722001D01*
X170510001Y-108722001D01*
X170510001Y-109798001D01*
G37*
G36*
X165110001Y-109798001D02*
G01*
X164700001Y-109798001D01*
X164700001Y-108722001D01*
X165110001Y-108722001D01*
X165110001Y-109798001D01*
G37*
G36*
X169910001Y-109798001D02*
G01*
X169500001Y-109798001D01*
X169500001Y-108722001D01*
X169910001Y-108722001D01*
X169910001Y-109798001D01*
G37*
G36*
X171110001Y-109798001D02*
G01*
X170700001Y-109798001D01*
X170700001Y-108722001D01*
X171110001Y-108722001D01*
X171110001Y-109798001D01*
G37*
G36*
X166910001Y-109798001D02*
G01*
X166500001Y-109798001D01*
X166500001Y-108722001D01*
X166910001Y-108722001D01*
X166910001Y-109798001D01*
G37*
G36*
X162110001Y-109798001D02*
G01*
X161700001Y-109798001D01*
X161700001Y-108722001D01*
X162110001Y-108722001D01*
X162110001Y-109798001D01*
G37*
G36*
X162710001Y-109798001D02*
G01*
X162300001Y-109798001D01*
X162300001Y-108722001D01*
X162710001Y-108722001D01*
X162710001Y-109798001D01*
G37*
G36*
X163310001Y-109798001D02*
G01*
X162900001Y-109798001D01*
X162900001Y-108722001D01*
X163310001Y-108722001D01*
X163310001Y-109798001D01*
G37*
G36*
X163910001Y-109798001D02*
G01*
X163500001Y-109798001D01*
X163500001Y-108722001D01*
X163910001Y-108722001D01*
X163910001Y-109798001D01*
G37*
G36*
X160910001Y-109798001D02*
G01*
X160500001Y-109798001D01*
X160500001Y-108722001D01*
X160910001Y-108722001D01*
X160910001Y-109798001D01*
G37*
G36*
X160310001Y-109798001D02*
G01*
X159900001Y-109798001D01*
X159900001Y-108722001D01*
X160310001Y-108722001D01*
X160310001Y-109798001D01*
G37*
G36*
X159710001Y-109798001D02*
G01*
X159300001Y-109798001D01*
X159300001Y-108722001D01*
X159710001Y-108722001D01*
X159710001Y-109798001D01*
G37*
G36*
X164510001Y-109798001D02*
G01*
X164100001Y-109798001D01*
X164100001Y-108722001D01*
X164510001Y-108722001D01*
X164510001Y-109798001D01*
G37*
G36*
X166310001Y-109798001D02*
G01*
X165900001Y-109798001D01*
X165900001Y-108722001D01*
X166310001Y-108722001D01*
X166310001Y-109798001D01*
G37*
G36*
X111655000Y-108870000D02*
G01*
X108515000Y-108870000D01*
X108515000Y-106730000D01*
X111655000Y-106730000D01*
X111655000Y-108870000D01*
G37*
G36*
X119275000Y-108870000D02*
G01*
X116135000Y-108870000D01*
X116135000Y-106730000D01*
X119275000Y-106730000D01*
X119275000Y-108870000D01*
G37*
G36*
X154675000Y-108125000D02*
G01*
X152835000Y-108125000D01*
X152835000Y-107085000D01*
X154675000Y-107085000D01*
X154675000Y-108125000D01*
G37*
G36*
X160530000Y-107590000D02*
G01*
X159510000Y-107590000D01*
X159510000Y-106970000D01*
X160530000Y-106970000D01*
X160530000Y-107590000D01*
G37*
G36*
X156688710Y-106369323D02*
G01*
X156749973Y-106387907D01*
X156806433Y-106418085D01*
X156855921Y-106458699D01*
X156896535Y-106508186D01*
X156926713Y-106564646D01*
X156945297Y-106625909D01*
X156950000Y-106673659D01*
X156950000Y-107156341D01*
X156945297Y-107204091D01*
X156926713Y-107265354D01*
X156896535Y-107321814D01*
X156855921Y-107371301D01*
X156806434Y-107411915D01*
X156749974Y-107442093D01*
X156688711Y-107460677D01*
X156625000Y-107466952D01*
X156561290Y-107460677D01*
X156500027Y-107442093D01*
X156443567Y-107411915D01*
X156394080Y-107371301D01*
X156353466Y-107321814D01*
X156323288Y-107265354D01*
X156304704Y-107204091D01*
X156300000Y-107156341D01*
X156300000Y-106673660D01*
X156304703Y-106625910D01*
X156323287Y-106564647D01*
X156353465Y-106508187D01*
X156394079Y-106458699D01*
X156443566Y-106418085D01*
X156500026Y-106387907D01*
X156561289Y-106369323D01*
X156625000Y-106363048D01*
X156688710Y-106369323D01*
G37*
G36*
X157638710Y-106369323D02*
G01*
X157699973Y-106387907D01*
X157756433Y-106418085D01*
X157805921Y-106458699D01*
X157846535Y-106508186D01*
X157876713Y-106564646D01*
X157895297Y-106625909D01*
X157900000Y-106673659D01*
X157900000Y-107156341D01*
X157895297Y-107204091D01*
X157876713Y-107265354D01*
X157846535Y-107321814D01*
X157805921Y-107371301D01*
X157756434Y-107411915D01*
X157699974Y-107442093D01*
X157638711Y-107460677D01*
X157575000Y-107466952D01*
X157511290Y-107460677D01*
X157450027Y-107442093D01*
X157393567Y-107411915D01*
X157344080Y-107371301D01*
X157303466Y-107321814D01*
X157273288Y-107265354D01*
X157254704Y-107204091D01*
X157250000Y-107156341D01*
X157250000Y-106673660D01*
X157254703Y-106625910D01*
X157273287Y-106564647D01*
X157303465Y-106508187D01*
X157344079Y-106458699D01*
X157393566Y-106418085D01*
X157450026Y-106387907D01*
X157511289Y-106369323D01*
X157575000Y-106363048D01*
X157638710Y-106369323D01*
G37*
G36*
X158588710Y-106369323D02*
G01*
X158649973Y-106387907D01*
X158706433Y-106418085D01*
X158755921Y-106458699D01*
X158796535Y-106508186D01*
X158826713Y-106564646D01*
X158845297Y-106625909D01*
X158850000Y-106673659D01*
X158850000Y-107156341D01*
X158845297Y-107204091D01*
X158826713Y-107265354D01*
X158796535Y-107321814D01*
X158755921Y-107371301D01*
X158706434Y-107411915D01*
X158649974Y-107442093D01*
X158588711Y-107460677D01*
X158525000Y-107466952D01*
X158461290Y-107460677D01*
X158400027Y-107442093D01*
X158343567Y-107411915D01*
X158294080Y-107371301D01*
X158253466Y-107321814D01*
X158223288Y-107265354D01*
X158204704Y-107204091D01*
X158200000Y-107156341D01*
X158200000Y-106673660D01*
X158204703Y-106625910D01*
X158223287Y-106564647D01*
X158253465Y-106508187D01*
X158294079Y-106458699D01*
X158343566Y-106418085D01*
X158400026Y-106387907D01*
X158461289Y-106369323D01*
X158525000Y-106363048D01*
X158588710Y-106369323D01*
G37*
G36*
X162710240Y-106870810D02*
G01*
X161389760Y-106870810D01*
X161389760Y-106050710D01*
X162710240Y-106050710D01*
X162710240Y-106870810D01*
G37*
G36*
X119275000Y-106330000D02*
G01*
X116135000Y-106330000D01*
X116135000Y-104190000D01*
X119275000Y-104190000D01*
X119275000Y-106330000D01*
G37*
G36*
X111655000Y-106330000D02*
G01*
X108515000Y-106330000D01*
X108515000Y-104190000D01*
X111655000Y-104190000D01*
X111655000Y-106330000D01*
G37*
G36*
X160530000Y-106190000D02*
G01*
X159510000Y-106190000D01*
X159510000Y-105570000D01*
X160530000Y-105570000D01*
X160530000Y-106190000D01*
G37*
G36*
X154733284Y-104710173D02*
G01*
X154782603Y-104725133D01*
X154828046Y-104749423D01*
X154867883Y-104782117D01*
X154900577Y-104821954D01*
X154924867Y-104867397D01*
X154939827Y-104916716D01*
X154945000Y-104969232D01*
X154945000Y-105830768D01*
X154939827Y-105883284D01*
X154924867Y-105932603D01*
X154900577Y-105978046D01*
X154867883Y-106017883D01*
X154828046Y-106050577D01*
X154782603Y-106074867D01*
X154733284Y-106089827D01*
X154680768Y-106095000D01*
X152869232Y-106095000D01*
X152816716Y-106089827D01*
X152767397Y-106074867D01*
X152721954Y-106050577D01*
X152682117Y-106017883D01*
X152649423Y-105978046D01*
X152625133Y-105932603D01*
X152610173Y-105883284D01*
X152605000Y-105830768D01*
X152605000Y-104969232D01*
X152610173Y-104916716D01*
X152625133Y-104867397D01*
X152649423Y-104821954D01*
X152682117Y-104782117D01*
X152721954Y-104749423D01*
X152767397Y-104725133D01*
X152816716Y-104710173D01*
X152869232Y-104705000D01*
X154680768Y-104705000D01*
X154733284Y-104710173D01*
G37*
G36*
X173650000Y-105090000D02*
G01*
X172630000Y-105090000D01*
X172630000Y-104470000D01*
X173650000Y-104470000D01*
X173650000Y-105090000D01*
G37*
G36*
X170885000Y-105090000D02*
G01*
X169865000Y-105090000D01*
X169865000Y-104470000D01*
X170885000Y-104470000D01*
X170885000Y-105090000D01*
G37*
G36*
X172265000Y-105085000D02*
G01*
X171245000Y-105085000D01*
X171245000Y-104465000D01*
X172265000Y-104465000D01*
X172265000Y-105085000D01*
G37*
G36*
X162710240Y-104869290D02*
G01*
X161389760Y-104869290D01*
X161389760Y-104049190D01*
X162710240Y-104049190D01*
X162710240Y-104869290D01*
G37*
G36*
X157638710Y-103169323D02*
G01*
X157699973Y-103187907D01*
X157756433Y-103218085D01*
X157805921Y-103258699D01*
X157846535Y-103308186D01*
X157876713Y-103364646D01*
X157895297Y-103425909D01*
X157900000Y-103473659D01*
X157900000Y-103956341D01*
X157895297Y-104004091D01*
X157876713Y-104065354D01*
X157846535Y-104121814D01*
X157805921Y-104171301D01*
X157756434Y-104211915D01*
X157699974Y-104242093D01*
X157638711Y-104260677D01*
X157575000Y-104266952D01*
X157511290Y-104260677D01*
X157450027Y-104242093D01*
X157393567Y-104211915D01*
X157344080Y-104171301D01*
X157303466Y-104121814D01*
X157273288Y-104065354D01*
X157254704Y-104004091D01*
X157250000Y-103956341D01*
X157250000Y-103473660D01*
X157254703Y-103425910D01*
X157273287Y-103364647D01*
X157303465Y-103308187D01*
X157344079Y-103258699D01*
X157393566Y-103218085D01*
X157450026Y-103187907D01*
X157511289Y-103169323D01*
X157575000Y-103163048D01*
X157638710Y-103169323D01*
G37*
G36*
X156688710Y-103169323D02*
G01*
X156749973Y-103187907D01*
X156806433Y-103218085D01*
X156855921Y-103258699D01*
X156896535Y-103308186D01*
X156926713Y-103364646D01*
X156945297Y-103425909D01*
X156950000Y-103473659D01*
X156950000Y-103956341D01*
X156945297Y-104004091D01*
X156926713Y-104065354D01*
X156896535Y-104121814D01*
X156855921Y-104171301D01*
X156806434Y-104211915D01*
X156749974Y-104242093D01*
X156688711Y-104260677D01*
X156625000Y-104266952D01*
X156561290Y-104260677D01*
X156500027Y-104242093D01*
X156443567Y-104211915D01*
X156394080Y-104171301D01*
X156353466Y-104121814D01*
X156323288Y-104065354D01*
X156304704Y-104004091D01*
X156300000Y-103956341D01*
X156300000Y-103473660D01*
X156304703Y-103425910D01*
X156323287Y-103364647D01*
X156353465Y-103308187D01*
X156394079Y-103258699D01*
X156443566Y-103218085D01*
X156500026Y-103187907D01*
X156561289Y-103169323D01*
X156625000Y-103163048D01*
X156688710Y-103169323D01*
G37*
G36*
X158588710Y-103169323D02*
G01*
X158649973Y-103187907D01*
X158706433Y-103218085D01*
X158755921Y-103258699D01*
X158796535Y-103308186D01*
X158826713Y-103364646D01*
X158845297Y-103425909D01*
X158850000Y-103473659D01*
X158850000Y-103956341D01*
X158845297Y-104004091D01*
X158826713Y-104065354D01*
X158796535Y-104121814D01*
X158755921Y-104171301D01*
X158706434Y-104211915D01*
X158649974Y-104242093D01*
X158588711Y-104260677D01*
X158525000Y-104266952D01*
X158461290Y-104260677D01*
X158400027Y-104242093D01*
X158343567Y-104211915D01*
X158294080Y-104171301D01*
X158253466Y-104121814D01*
X158223288Y-104065354D01*
X158204704Y-104004091D01*
X158200000Y-103956341D01*
X158200000Y-103473660D01*
X158204703Y-103425910D01*
X158223287Y-103364647D01*
X158253465Y-103308187D01*
X158294079Y-103258699D01*
X158343566Y-103218085D01*
X158400026Y-103187907D01*
X158461289Y-103169323D01*
X158525000Y-103163048D01*
X158588710Y-103169323D01*
G37*
G36*
X154733284Y-102560173D02*
G01*
X154782603Y-102575133D01*
X154828046Y-102599423D01*
X154867883Y-102632117D01*
X154900577Y-102671954D01*
X154924867Y-102717397D01*
X154939827Y-102766716D01*
X154945000Y-102819232D01*
X154945000Y-103680768D01*
X154939827Y-103733284D01*
X154924867Y-103782603D01*
X154900577Y-103828046D01*
X154867883Y-103867883D01*
X154828046Y-103900577D01*
X154782603Y-103924867D01*
X154733284Y-103939827D01*
X154680768Y-103945000D01*
X152869232Y-103945000D01*
X152816716Y-103939827D01*
X152767397Y-103924867D01*
X152721954Y-103900577D01*
X152682117Y-103867883D01*
X152649423Y-103828046D01*
X152625133Y-103782603D01*
X152610173Y-103733284D01*
X152605000Y-103680768D01*
X152605000Y-102819232D01*
X152610173Y-102766716D01*
X152625133Y-102717397D01*
X152649423Y-102671954D01*
X152682117Y-102632117D01*
X152721954Y-102599423D01*
X152767397Y-102575133D01*
X152816716Y-102560173D01*
X152869232Y-102555000D01*
X154680768Y-102555000D01*
X154733284Y-102560173D01*
G37*
G36*
X119275000Y-103790000D02*
G01*
X116135000Y-103790000D01*
X116135000Y-101650000D01*
X119275000Y-101650000D01*
X119275000Y-103790000D01*
G37*
G36*
X111655000Y-103790000D02*
G01*
X108515000Y-103790000D01*
X108515000Y-101650000D01*
X111655000Y-101650000D01*
X111655000Y-103790000D01*
G37*
G36*
X170885000Y-103690000D02*
G01*
X169865000Y-103690000D01*
X169865000Y-103070000D01*
X170885000Y-103070000D01*
X170885000Y-103690000D01*
G37*
G36*
X173650000Y-103690000D02*
G01*
X172630000Y-103690000D01*
X172630000Y-103070000D01*
X173650000Y-103070000D01*
X173650000Y-103690000D01*
G37*
G36*
X172265000Y-103685000D02*
G01*
X171245000Y-103685000D01*
X171245000Y-103065000D01*
X172265000Y-103065000D01*
X172265000Y-103685000D01*
G37*
G36*
X157415000Y-102875000D02*
G01*
X156395000Y-102875000D01*
X156395000Y-102255000D01*
X157415000Y-102255000D01*
X157415000Y-102875000D01*
G37*
G36*
X173650000Y-102610000D02*
G01*
X172630000Y-102610000D01*
X172630000Y-101990000D01*
X173650000Y-101990000D01*
X173650000Y-102610000D01*
G37*
G36*
X172265000Y-102610000D02*
G01*
X171245000Y-102610000D01*
X171245000Y-101990000D01*
X172265000Y-101990000D01*
X172265000Y-102610000D01*
G37*
G36*
X170880000Y-102610000D02*
G01*
X169860000Y-102610000D01*
X169860000Y-101990000D01*
X170880000Y-101990000D01*
X170880000Y-102610000D01*
G37*
G36*
X157415000Y-101475000D02*
G01*
X156395000Y-101475000D01*
X156395000Y-100855000D01*
X157415000Y-100855000D01*
X157415000Y-101475000D01*
G37*
G36*
X119275000Y-101250000D02*
G01*
X116135000Y-101250000D01*
X116135000Y-99110000D01*
X119275000Y-99110000D01*
X119275000Y-101250000D01*
G37*
G36*
X111655000Y-101250000D02*
G01*
X108515000Y-101250000D01*
X108515000Y-99110000D01*
X111655000Y-99110000D01*
X111655000Y-101250000D01*
G37*
G36*
X172265000Y-101210000D02*
G01*
X171245000Y-101210000D01*
X171245000Y-100590000D01*
X172265000Y-100590000D01*
X172265000Y-101210000D01*
G37*
G36*
X170880000Y-101210000D02*
G01*
X169860000Y-101210000D01*
X169860000Y-100590000D01*
X170880000Y-100590000D01*
X170880000Y-101210000D01*
G37*
G36*
X173650000Y-101210000D02*
G01*
X172630000Y-101210000D01*
X172630000Y-100590000D01*
X173650000Y-100590000D01*
X173650000Y-101210000D01*
G37*
G36*
X119275000Y-98710000D02*
G01*
X116135000Y-98710000D01*
X116135000Y-96570000D01*
X119275000Y-96570000D01*
X119275000Y-98710000D01*
G37*
G36*
X111655000Y-98710000D02*
G01*
X108515000Y-98710000D01*
X108515000Y-96570000D01*
X111655000Y-96570000D01*
X111655000Y-98710000D01*
G37*
G36*
X111655000Y-96170000D02*
G01*
X108515000Y-96170000D01*
X108515000Y-94030000D01*
X111655000Y-94030000D01*
X111655000Y-96170000D01*
G37*
G36*
X119275000Y-96170000D02*
G01*
X116135000Y-96170000D01*
X116135000Y-94030000D01*
X119275000Y-94030000D01*
X119275000Y-96170000D01*
G37*
G36*
X111655000Y-93630000D02*
G01*
X108515000Y-93630000D01*
X108515000Y-91490000D01*
X111655000Y-91490000D01*
X111655000Y-93630000D01*
G37*
G36*
X119275000Y-93630000D02*
G01*
X116135000Y-93630000D01*
X116135000Y-91490000D01*
X119275000Y-91490000D01*
X119275000Y-93630000D01*
G37*
G36*
X119275000Y-91090000D02*
G01*
X116135000Y-91090000D01*
X116135000Y-88950000D01*
X119275000Y-88950000D01*
X119275000Y-91090000D01*
G37*
G36*
X111655000Y-91090000D02*
G01*
X108515000Y-91090000D01*
X108515000Y-88950000D01*
X111655000Y-88950000D01*
X111655000Y-91090000D01*
G37*
G36*
X111655000Y-88550000D02*
G01*
X108515000Y-88550000D01*
X108515000Y-86410000D01*
X111655000Y-86410000D01*
X111655000Y-88550000D01*
G37*
G36*
X119275000Y-88550000D02*
G01*
X116135000Y-88550000D01*
X116135000Y-86410000D01*
X119275000Y-86410000D01*
X119275000Y-88550000D01*
G37*
G36*
X166572584Y-86419488D02*
G01*
X166664017Y-86447223D01*
X166748272Y-86492259D01*
X166822130Y-86552872D01*
X166882743Y-86626730D01*
X166927779Y-86710985D01*
X166955514Y-86802418D01*
X166965001Y-86898733D01*
X166965001Y-87921269D01*
X166955514Y-88017584D01*
X166927779Y-88109017D01*
X166882743Y-88193272D01*
X166822130Y-88267130D01*
X166748272Y-88327743D01*
X166664017Y-88372779D01*
X166572584Y-88400514D01*
X166476269Y-88410001D01*
X165053733Y-88410001D01*
X164957418Y-88400514D01*
X164865985Y-88372779D01*
X164781730Y-88327743D01*
X164707872Y-88267130D01*
X164647259Y-88193272D01*
X164602223Y-88109017D01*
X164574488Y-88017584D01*
X164565001Y-87921269D01*
X164565001Y-86898733D01*
X164574488Y-86802418D01*
X164602223Y-86710985D01*
X164647259Y-86626730D01*
X164707872Y-86552872D01*
X164781730Y-86492259D01*
X164865985Y-86447223D01*
X164957418Y-86419488D01*
X165053733Y-86410001D01*
X166476269Y-86410001D01*
X166572584Y-86419488D01*
G37*
G36*
X119275000Y-86010000D02*
G01*
X116135000Y-86010000D01*
X116135000Y-83870000D01*
X119275000Y-83870000D01*
X119275000Y-86010000D01*
G37*
G36*
X111655000Y-86010000D02*
G01*
X108515000Y-86010000D01*
X108515000Y-83870000D01*
X111655000Y-83870000D01*
X111655000Y-86010000D01*
G37*
G36*
X165107661Y-84761369D02*
G01*
X165119829Y-84765061D01*
X165131044Y-84771055D01*
X165140877Y-84779125D01*
X165148947Y-84788958D01*
X165154941Y-84800173D01*
X165158633Y-84812341D01*
X165160001Y-84826232D01*
X165160001Y-85003770D01*
X165158633Y-85017661D01*
X165154941Y-85029829D01*
X165148947Y-85041044D01*
X165140877Y-85050877D01*
X165131044Y-85058947D01*
X165119829Y-85064941D01*
X165107661Y-85068633D01*
X165093770Y-85070001D01*
X163866232Y-85070001D01*
X163852341Y-85068633D01*
X163840173Y-85064941D01*
X163828958Y-85058947D01*
X163819125Y-85050877D01*
X163811055Y-85041044D01*
X163805061Y-85029829D01*
X163801369Y-85017661D01*
X163800001Y-85003770D01*
X163800001Y-84826232D01*
X163801369Y-84812341D01*
X163805061Y-84800173D01*
X163811055Y-84788958D01*
X163819125Y-84779125D01*
X163828958Y-84771055D01*
X163840173Y-84765061D01*
X163852341Y-84761369D01*
X163866232Y-84760001D01*
X165093770Y-84760001D01*
X165107661Y-84761369D01*
G37*
G36*
X165107661Y-84261369D02*
G01*
X165119829Y-84265061D01*
X165131044Y-84271055D01*
X165140877Y-84279125D01*
X165148947Y-84288958D01*
X165154941Y-84300173D01*
X165158633Y-84312341D01*
X165160001Y-84326232D01*
X165160001Y-84503770D01*
X165158633Y-84517661D01*
X165154941Y-84529829D01*
X165148947Y-84541044D01*
X165140877Y-84550877D01*
X165131044Y-84558947D01*
X165119829Y-84564941D01*
X165107661Y-84568633D01*
X165093770Y-84570001D01*
X163866232Y-84570001D01*
X163852341Y-84568633D01*
X163840173Y-84564941D01*
X163828958Y-84558947D01*
X163819125Y-84550877D01*
X163811055Y-84541044D01*
X163805061Y-84529829D01*
X163801369Y-84517661D01*
X163800001Y-84503770D01*
X163800001Y-84326232D01*
X163801369Y-84312341D01*
X163805061Y-84300173D01*
X163811055Y-84288958D01*
X163819125Y-84279125D01*
X163828958Y-84271055D01*
X163840173Y-84265061D01*
X163852341Y-84261369D01*
X163866232Y-84260001D01*
X165093770Y-84260001D01*
X165107661Y-84261369D01*
G37*
G36*
X165107661Y-83761369D02*
G01*
X165119829Y-83765061D01*
X165131044Y-83771055D01*
X165140877Y-83779125D01*
X165148947Y-83788958D01*
X165154941Y-83800173D01*
X165158633Y-83812341D01*
X165160001Y-83826232D01*
X165160001Y-84003770D01*
X165158633Y-84017661D01*
X165154941Y-84029829D01*
X165148947Y-84041044D01*
X165140877Y-84050877D01*
X165131044Y-84058947D01*
X165119829Y-84064941D01*
X165107661Y-84068633D01*
X165093770Y-84070001D01*
X163866232Y-84070001D01*
X163852341Y-84068633D01*
X163840173Y-84064941D01*
X163828958Y-84058947D01*
X163819125Y-84050877D01*
X163811055Y-84041044D01*
X163805061Y-84029829D01*
X163801369Y-84017661D01*
X163800001Y-84003770D01*
X163800001Y-83826232D01*
X163801369Y-83812341D01*
X163805061Y-83800173D01*
X163811055Y-83788958D01*
X163819125Y-83779125D01*
X163828958Y-83771055D01*
X163840173Y-83765061D01*
X163852341Y-83761369D01*
X163866232Y-83760001D01*
X165093770Y-83760001D01*
X165107661Y-83761369D01*
G37*
G36*
X165107661Y-83261369D02*
G01*
X165119829Y-83265061D01*
X165131044Y-83271055D01*
X165140877Y-83279125D01*
X165148947Y-83288958D01*
X165154941Y-83300173D01*
X165158633Y-83312341D01*
X165160001Y-83326232D01*
X165160001Y-83503770D01*
X165158633Y-83517661D01*
X165154941Y-83529829D01*
X165148947Y-83541044D01*
X165140877Y-83550877D01*
X165131044Y-83558947D01*
X165119829Y-83564941D01*
X165107661Y-83568633D01*
X165093770Y-83570001D01*
X163866232Y-83570001D01*
X163852341Y-83568633D01*
X163840173Y-83564941D01*
X163828958Y-83558947D01*
X163819125Y-83550877D01*
X163811055Y-83541044D01*
X163805061Y-83529829D01*
X163801369Y-83517661D01*
X163800001Y-83503770D01*
X163800001Y-83326232D01*
X163801369Y-83312341D01*
X163805061Y-83300173D01*
X163811055Y-83288958D01*
X163819125Y-83279125D01*
X163828958Y-83271055D01*
X163840173Y-83265061D01*
X163852341Y-83261369D01*
X163866232Y-83260001D01*
X165093770Y-83260001D01*
X165107661Y-83261369D01*
G37*
G36*
X119275000Y-83470000D02*
G01*
X116135000Y-83470000D01*
X116135000Y-81330000D01*
X119275000Y-81330000D01*
X119275000Y-83470000D01*
G37*
G36*
X111655000Y-83470000D02*
G01*
X108515000Y-83470000D01*
X108515000Y-81330000D01*
X111655000Y-81330000D01*
X111655000Y-83470000D01*
G37*
G36*
X165107661Y-82761369D02*
G01*
X165119829Y-82765061D01*
X165131044Y-82771055D01*
X165140877Y-82779125D01*
X165148947Y-82788958D01*
X165154941Y-82800173D01*
X165158633Y-82812341D01*
X165160001Y-82826232D01*
X165160001Y-83003770D01*
X165158633Y-83017661D01*
X165154941Y-83029829D01*
X165148947Y-83041044D01*
X165140877Y-83050877D01*
X165131044Y-83058947D01*
X165119829Y-83064941D01*
X165107661Y-83068633D01*
X165093770Y-83070001D01*
X163866232Y-83070001D01*
X163852341Y-83068633D01*
X163840173Y-83064941D01*
X163828958Y-83058947D01*
X163819125Y-83050877D01*
X163811055Y-83041044D01*
X163805061Y-83029829D01*
X163801369Y-83017661D01*
X163800001Y-83003770D01*
X163800001Y-82826232D01*
X163801369Y-82812341D01*
X163805061Y-82800173D01*
X163811055Y-82788958D01*
X163819125Y-82779125D01*
X163828958Y-82771055D01*
X163840173Y-82765061D01*
X163852341Y-82761369D01*
X163866232Y-82760001D01*
X165093770Y-82760001D01*
X165107661Y-82761369D01*
G37*
G36*
X165107661Y-82261369D02*
G01*
X165119829Y-82265061D01*
X165131044Y-82271055D01*
X165140877Y-82279125D01*
X165148947Y-82288958D01*
X165154941Y-82300173D01*
X165158633Y-82312341D01*
X165160001Y-82326232D01*
X165160001Y-82503770D01*
X165158633Y-82517661D01*
X165154941Y-82529829D01*
X165148947Y-82541044D01*
X165140877Y-82550877D01*
X165131044Y-82558947D01*
X165119829Y-82564941D01*
X165107661Y-82568633D01*
X165093770Y-82570001D01*
X163866232Y-82570001D01*
X163852341Y-82568633D01*
X163840173Y-82564941D01*
X163828958Y-82558947D01*
X163819125Y-82550877D01*
X163811055Y-82541044D01*
X163805061Y-82529829D01*
X163801369Y-82517661D01*
X163800001Y-82503770D01*
X163800001Y-82326232D01*
X163801369Y-82312341D01*
X163805061Y-82300173D01*
X163811055Y-82288958D01*
X163819125Y-82279125D01*
X163828958Y-82271055D01*
X163840173Y-82265061D01*
X163852341Y-82261369D01*
X163866232Y-82260001D01*
X165093770Y-82260001D01*
X165107661Y-82261369D01*
G37*
G36*
X119275000Y-80930000D02*
G01*
X116135000Y-80930000D01*
X116135000Y-78790000D01*
X119275000Y-78790000D01*
X119275000Y-80930000D01*
G37*
G36*
X111655000Y-80930000D02*
G01*
X108515000Y-80930000D01*
X108515000Y-78790000D01*
X111655000Y-78790000D01*
X111655000Y-80930000D01*
G37*
G36*
X166572584Y-78929488D02*
G01*
X166664017Y-78957223D01*
X166748272Y-79002259D01*
X166822130Y-79062872D01*
X166882743Y-79136730D01*
X166927779Y-79220985D01*
X166955514Y-79312418D01*
X166965001Y-79408733D01*
X166965001Y-80431269D01*
X166955514Y-80527584D01*
X166927779Y-80619017D01*
X166882743Y-80703272D01*
X166822130Y-80777130D01*
X166748272Y-80837743D01*
X166664017Y-80882779D01*
X166572584Y-80910514D01*
X166476269Y-80920001D01*
X165053733Y-80920001D01*
X164957418Y-80910514D01*
X164865985Y-80882779D01*
X164781730Y-80837743D01*
X164707872Y-80777130D01*
X164647259Y-80703272D01*
X164602223Y-80619017D01*
X164574488Y-80527584D01*
X164565001Y-80431269D01*
X164565001Y-79408733D01*
X164574488Y-79312418D01*
X164602223Y-79220985D01*
X164647259Y-79136730D01*
X164707872Y-79062872D01*
X164781730Y-79002259D01*
X164865985Y-78957223D01*
X164957418Y-78929488D01*
X165053733Y-78920001D01*
X166476269Y-78920001D01*
X166572584Y-78929488D01*
G37*
G36*
X119275000Y-78390000D02*
G01*
X116135000Y-78390000D01*
X116135000Y-76250000D01*
X119275000Y-76250000D01*
X119275000Y-78390000D01*
G37*
G36*
X111655000Y-78390000D02*
G01*
X108515000Y-78390000D01*
X108515000Y-76250000D01*
X111655000Y-76250000D01*
X111655000Y-78390000D01*
G37*
G36*
X111655000Y-75850000D02*
G01*
X108515000Y-75850000D01*
X108515000Y-73710000D01*
X111655000Y-73710000D01*
X111655000Y-75850000D01*
G37*
G36*
X119275000Y-75850000D02*
G01*
X116135000Y-75850000D01*
X116135000Y-73710000D01*
X119275000Y-73710000D01*
X119275000Y-75850000D01*
G37*
G36*
X119275000Y-73310000D02*
G01*
X116135000Y-73310000D01*
X116135000Y-71170000D01*
X119275000Y-71170000D01*
X119275000Y-73310000D01*
G37*
G36*
X111655000Y-73310000D02*
G01*
X108515000Y-73310000D01*
X108515000Y-71170000D01*
X111655000Y-71170000D01*
X111655000Y-73310000D01*
G37*
G36*
X111655000Y-70770000D02*
G01*
X108515000Y-70770000D01*
X108515000Y-68630000D01*
X111655000Y-68630000D01*
X111655000Y-70770000D01*
G37*
G36*
X119275000Y-70770000D02*
G01*
X116135000Y-70770000D01*
X116135000Y-68630000D01*
X119275000Y-68630000D01*
X119275000Y-70770000D01*
G37*
G36*
X125835649Y-69426416D02*
G01*
X125848282Y-69430248D01*
X125859934Y-69436476D01*
X125870144Y-69444856D01*
X125878524Y-69455066D01*
X125884752Y-69466718D01*
X125888584Y-69479351D01*
X125890000Y-69493731D01*
X125890000Y-70626269D01*
X125888584Y-70640649D01*
X125884752Y-70653282D01*
X125878524Y-70664934D01*
X125870144Y-70675144D01*
X125859934Y-70683524D01*
X125848282Y-70689752D01*
X125835649Y-70693584D01*
X125821269Y-70695000D01*
X125638731Y-70695000D01*
X125624351Y-70693584D01*
X125611718Y-70689752D01*
X125600066Y-70683524D01*
X125589856Y-70675144D01*
X125581476Y-70664934D01*
X125575248Y-70653282D01*
X125571416Y-70640649D01*
X125570000Y-70626269D01*
X125570000Y-69493731D01*
X125571416Y-69479351D01*
X125575248Y-69466718D01*
X125581476Y-69455066D01*
X125589856Y-69444856D01*
X125600066Y-69436476D01*
X125611718Y-69430248D01*
X125624351Y-69426416D01*
X125638731Y-69425000D01*
X125821269Y-69425000D01*
X125835649Y-69426416D01*
G37*
G36*
X132335649Y-69426416D02*
G01*
X132348282Y-69430248D01*
X132359934Y-69436476D01*
X132370144Y-69444856D01*
X132378524Y-69455066D01*
X132384752Y-69466718D01*
X132388584Y-69479351D01*
X132390000Y-69493731D01*
X132390000Y-70626269D01*
X132388584Y-70640649D01*
X132384752Y-70653282D01*
X132378524Y-70664934D01*
X132370144Y-70675144D01*
X132359934Y-70683524D01*
X132348282Y-70689752D01*
X132335649Y-70693584D01*
X132321269Y-70695000D01*
X132138731Y-70695000D01*
X132124351Y-70693584D01*
X132111718Y-70689752D01*
X132100066Y-70683524D01*
X132089856Y-70675144D01*
X132081476Y-70664934D01*
X132075248Y-70653282D01*
X132071416Y-70640649D01*
X132070000Y-70626269D01*
X132070000Y-69493731D01*
X132071416Y-69479351D01*
X132075248Y-69466718D01*
X132081476Y-69455066D01*
X132089856Y-69444856D01*
X132100066Y-69436476D01*
X132111718Y-69430248D01*
X132124351Y-69426416D01*
X132138731Y-69425000D01*
X132321269Y-69425000D01*
X132335649Y-69426416D01*
G37*
G36*
X125335649Y-69426416D02*
G01*
X125348282Y-69430248D01*
X125359934Y-69436476D01*
X125370144Y-69444856D01*
X125378524Y-69455066D01*
X125384752Y-69466718D01*
X125388584Y-69479351D01*
X125390000Y-69493731D01*
X125390000Y-70626269D01*
X125388584Y-70640649D01*
X125384752Y-70653282D01*
X125378524Y-70664934D01*
X125370144Y-70675144D01*
X125359934Y-70683524D01*
X125348282Y-70689752D01*
X125335649Y-70693584D01*
X125321269Y-70695000D01*
X125138731Y-70695000D01*
X125124351Y-70693584D01*
X125111718Y-70689752D01*
X125100066Y-70683524D01*
X125089856Y-70675144D01*
X125081476Y-70664934D01*
X125075248Y-70653282D01*
X125071416Y-70640649D01*
X125070000Y-70626269D01*
X125070000Y-69493731D01*
X125071416Y-69479351D01*
X125075248Y-69466718D01*
X125081476Y-69455066D01*
X125089856Y-69444856D01*
X125100066Y-69436476D01*
X125111718Y-69430248D01*
X125124351Y-69426416D01*
X125138731Y-69425000D01*
X125321269Y-69425000D01*
X125335649Y-69426416D01*
G37*
G36*
X137835649Y-69426416D02*
G01*
X137848282Y-69430248D01*
X137859934Y-69436476D01*
X137870144Y-69444856D01*
X137878524Y-69455066D01*
X137884752Y-69466718D01*
X137888584Y-69479351D01*
X137890000Y-69493731D01*
X137890000Y-70626269D01*
X137888584Y-70640649D01*
X137884752Y-70653282D01*
X137878524Y-70664934D01*
X137870144Y-70675144D01*
X137859934Y-70683524D01*
X137848282Y-70689752D01*
X137835649Y-70693584D01*
X137821269Y-70695000D01*
X137638731Y-70695000D01*
X137624351Y-70693584D01*
X137611718Y-70689752D01*
X137600066Y-70683524D01*
X137589856Y-70675144D01*
X137581476Y-70664934D01*
X137575248Y-70653282D01*
X137571416Y-70640649D01*
X137570000Y-70626269D01*
X137570000Y-69493731D01*
X137571416Y-69479351D01*
X137575248Y-69466718D01*
X137581476Y-69455066D01*
X137589856Y-69444856D01*
X137600066Y-69436476D01*
X137611718Y-69430248D01*
X137624351Y-69426416D01*
X137638731Y-69425000D01*
X137821269Y-69425000D01*
X137835649Y-69426416D01*
G37*
G36*
X138335649Y-69426416D02*
G01*
X138348282Y-69430248D01*
X138359934Y-69436476D01*
X138370144Y-69444856D01*
X138378524Y-69455066D01*
X138384752Y-69466718D01*
X138388584Y-69479351D01*
X138390000Y-69493731D01*
X138390000Y-70626269D01*
X138388584Y-70640649D01*
X138384752Y-70653282D01*
X138378524Y-70664934D01*
X138370144Y-70675144D01*
X138359934Y-70683524D01*
X138348282Y-70689752D01*
X138335649Y-70693584D01*
X138321269Y-70695000D01*
X138138731Y-70695000D01*
X138124351Y-70693584D01*
X138111718Y-70689752D01*
X138100066Y-70683524D01*
X138089856Y-70675144D01*
X138081476Y-70664934D01*
X138075248Y-70653282D01*
X138071416Y-70640649D01*
X138070000Y-70626269D01*
X138070000Y-69493731D01*
X138071416Y-69479351D01*
X138075248Y-69466718D01*
X138081476Y-69455066D01*
X138089856Y-69444856D01*
X138100066Y-69436476D01*
X138111718Y-69430248D01*
X138124351Y-69426416D01*
X138138731Y-69425000D01*
X138321269Y-69425000D01*
X138335649Y-69426416D01*
G37*
G36*
X131835649Y-69426416D02*
G01*
X131848282Y-69430248D01*
X131859934Y-69436476D01*
X131870144Y-69444856D01*
X131878524Y-69455066D01*
X131884752Y-69466718D01*
X131888584Y-69479351D01*
X131890000Y-69493731D01*
X131890000Y-70626269D01*
X131888584Y-70640649D01*
X131884752Y-70653282D01*
X131878524Y-70664934D01*
X131870144Y-70675144D01*
X131859934Y-70683524D01*
X131848282Y-70689752D01*
X131835649Y-70693584D01*
X131821269Y-70695000D01*
X131638731Y-70695000D01*
X131624351Y-70693584D01*
X131611718Y-70689752D01*
X131600066Y-70683524D01*
X131589856Y-70675144D01*
X131581476Y-70664934D01*
X131575248Y-70653282D01*
X131571416Y-70640649D01*
X131570000Y-70626269D01*
X131570000Y-69493731D01*
X131571416Y-69479351D01*
X131575248Y-69466718D01*
X131581476Y-69455066D01*
X131589856Y-69444856D01*
X131600066Y-69436476D01*
X131611718Y-69430248D01*
X131624351Y-69426416D01*
X131638731Y-69425000D01*
X131821269Y-69425000D01*
X131835649Y-69426416D01*
G37*
G36*
X139335649Y-69426416D02*
G01*
X139348282Y-69430248D01*
X139359934Y-69436476D01*
X139370144Y-69444856D01*
X139378524Y-69455066D01*
X139384752Y-69466718D01*
X139388584Y-69479351D01*
X139390000Y-69493731D01*
X139390000Y-70626269D01*
X139388584Y-70640649D01*
X139384752Y-70653282D01*
X139378524Y-70664934D01*
X139370144Y-70675144D01*
X139359934Y-70683524D01*
X139348282Y-70689752D01*
X139335649Y-70693584D01*
X139321269Y-70695000D01*
X139138731Y-70695000D01*
X139124351Y-70693584D01*
X139111718Y-70689752D01*
X139100066Y-70683524D01*
X139089856Y-70675144D01*
X139081476Y-70664934D01*
X139075248Y-70653282D01*
X139071416Y-70640649D01*
X139070000Y-70626269D01*
X139070000Y-69493731D01*
X139071416Y-69479351D01*
X139075248Y-69466718D01*
X139081476Y-69455066D01*
X139089856Y-69444856D01*
X139100066Y-69436476D01*
X139111718Y-69430248D01*
X139124351Y-69426416D01*
X139138731Y-69425000D01*
X139321269Y-69425000D01*
X139335649Y-69426416D01*
G37*
G36*
X140335649Y-69426416D02*
G01*
X140348282Y-69430248D01*
X140359934Y-69436476D01*
X140370144Y-69444856D01*
X140378524Y-69455066D01*
X140384752Y-69466718D01*
X140388584Y-69479351D01*
X140390000Y-69493731D01*
X140390000Y-70626269D01*
X140388584Y-70640649D01*
X140384752Y-70653282D01*
X140378524Y-70664934D01*
X140370144Y-70675144D01*
X140359934Y-70683524D01*
X140348282Y-70689752D01*
X140335649Y-70693584D01*
X140321269Y-70695000D01*
X140138731Y-70695000D01*
X140124351Y-70693584D01*
X140111718Y-70689752D01*
X140100066Y-70683524D01*
X140089856Y-70675144D01*
X140081476Y-70664934D01*
X140075248Y-70653282D01*
X140071416Y-70640649D01*
X140070000Y-70626269D01*
X140070000Y-69493731D01*
X140071416Y-69479351D01*
X140075248Y-69466718D01*
X140081476Y-69455066D01*
X140089856Y-69444856D01*
X140100066Y-69436476D01*
X140111718Y-69430248D01*
X140124351Y-69426416D01*
X140138731Y-69425000D01*
X140321269Y-69425000D01*
X140335649Y-69426416D01*
G37*
G36*
X139835649Y-69426416D02*
G01*
X139848282Y-69430248D01*
X139859934Y-69436476D01*
X139870144Y-69444856D01*
X139878524Y-69455066D01*
X139884752Y-69466718D01*
X139888584Y-69479351D01*
X139890000Y-69493731D01*
X139890000Y-70626269D01*
X139888584Y-70640649D01*
X139884752Y-70653282D01*
X139878524Y-70664934D01*
X139870144Y-70675144D01*
X139859934Y-70683524D01*
X139848282Y-70689752D01*
X139835649Y-70693584D01*
X139821269Y-70695000D01*
X139638731Y-70695000D01*
X139624351Y-70693584D01*
X139611718Y-70689752D01*
X139600066Y-70683524D01*
X139589856Y-70675144D01*
X139581476Y-70664934D01*
X139575248Y-70653282D01*
X139571416Y-70640649D01*
X139570000Y-70626269D01*
X139570000Y-69493731D01*
X139571416Y-69479351D01*
X139575248Y-69466718D01*
X139581476Y-69455066D01*
X139589856Y-69444856D01*
X139600066Y-69436476D01*
X139611718Y-69430248D01*
X139624351Y-69426416D01*
X139638731Y-69425000D01*
X139821269Y-69425000D01*
X139835649Y-69426416D01*
G37*
G36*
X138835649Y-69426416D02*
G01*
X138848282Y-69430248D01*
X138859934Y-69436476D01*
X138870144Y-69444856D01*
X138878524Y-69455066D01*
X138884752Y-69466718D01*
X138888584Y-69479351D01*
X138890000Y-69493731D01*
X138890000Y-70626269D01*
X138888584Y-70640649D01*
X138884752Y-70653282D01*
X138878524Y-70664934D01*
X138870144Y-70675144D01*
X138859934Y-70683524D01*
X138848282Y-70689752D01*
X138835649Y-70693584D01*
X138821269Y-70695000D01*
X138638731Y-70695000D01*
X138624351Y-70693584D01*
X138611718Y-70689752D01*
X138600066Y-70683524D01*
X138589856Y-70675144D01*
X138581476Y-70664934D01*
X138575248Y-70653282D01*
X138571416Y-70640649D01*
X138570000Y-70626269D01*
X138570000Y-69493731D01*
X138571416Y-69479351D01*
X138575248Y-69466718D01*
X138581476Y-69455066D01*
X138589856Y-69444856D01*
X138600066Y-69436476D01*
X138611718Y-69430248D01*
X138624351Y-69426416D01*
X138638731Y-69425000D01*
X138821269Y-69425000D01*
X138835649Y-69426416D01*
G37*
G36*
X126335649Y-69426416D02*
G01*
X126348282Y-69430248D01*
X126359934Y-69436476D01*
X126370144Y-69444856D01*
X126378524Y-69455066D01*
X126384752Y-69466718D01*
X126388584Y-69479351D01*
X126390000Y-69493731D01*
X126390000Y-70626269D01*
X126388584Y-70640649D01*
X126384752Y-70653282D01*
X126378524Y-70664934D01*
X126370144Y-70675144D01*
X126359934Y-70683524D01*
X126348282Y-70689752D01*
X126335649Y-70693584D01*
X126321269Y-70695000D01*
X126138731Y-70695000D01*
X126124351Y-70693584D01*
X126111718Y-70689752D01*
X126100066Y-70683524D01*
X126089856Y-70675144D01*
X126081476Y-70664934D01*
X126075248Y-70653282D01*
X126071416Y-70640649D01*
X126070000Y-70626269D01*
X126070000Y-69493731D01*
X126071416Y-69479351D01*
X126075248Y-69466718D01*
X126081476Y-69455066D01*
X126089856Y-69444856D01*
X126100066Y-69436476D01*
X126111718Y-69430248D01*
X126124351Y-69426416D01*
X126138731Y-69425000D01*
X126321269Y-69425000D01*
X126335649Y-69426416D01*
G37*
G36*
X127335649Y-69426416D02*
G01*
X127348282Y-69430248D01*
X127359934Y-69436476D01*
X127370144Y-69444856D01*
X127378524Y-69455066D01*
X127384752Y-69466718D01*
X127388584Y-69479351D01*
X127390000Y-69493731D01*
X127390000Y-70626269D01*
X127388584Y-70640649D01*
X127384752Y-70653282D01*
X127378524Y-70664934D01*
X127370144Y-70675144D01*
X127359934Y-70683524D01*
X127348282Y-70689752D01*
X127335649Y-70693584D01*
X127321269Y-70695000D01*
X127138731Y-70695000D01*
X127124351Y-70693584D01*
X127111718Y-70689752D01*
X127100066Y-70683524D01*
X127089856Y-70675144D01*
X127081476Y-70664934D01*
X127075248Y-70653282D01*
X127071416Y-70640649D01*
X127070000Y-70626269D01*
X127070000Y-69493731D01*
X127071416Y-69479351D01*
X127075248Y-69466718D01*
X127081476Y-69455066D01*
X127089856Y-69444856D01*
X127100066Y-69436476D01*
X127111718Y-69430248D01*
X127124351Y-69426416D01*
X127138731Y-69425000D01*
X127321269Y-69425000D01*
X127335649Y-69426416D01*
G37*
G36*
X127835649Y-69426416D02*
G01*
X127848282Y-69430248D01*
X127859934Y-69436476D01*
X127870144Y-69444856D01*
X127878524Y-69455066D01*
X127884752Y-69466718D01*
X127888584Y-69479351D01*
X127890000Y-69493731D01*
X127890000Y-70626269D01*
X127888584Y-70640649D01*
X127884752Y-70653282D01*
X127878524Y-70664934D01*
X127870144Y-70675144D01*
X127859934Y-70683524D01*
X127848282Y-70689752D01*
X127835649Y-70693584D01*
X127821269Y-70695000D01*
X127638731Y-70695000D01*
X127624351Y-70693584D01*
X127611718Y-70689752D01*
X127600066Y-70683524D01*
X127589856Y-70675144D01*
X127581476Y-70664934D01*
X127575248Y-70653282D01*
X127571416Y-70640649D01*
X127570000Y-70626269D01*
X127570000Y-69493731D01*
X127571416Y-69479351D01*
X127575248Y-69466718D01*
X127581476Y-69455066D01*
X127589856Y-69444856D01*
X127600066Y-69436476D01*
X127611718Y-69430248D01*
X127624351Y-69426416D01*
X127638731Y-69425000D01*
X127821269Y-69425000D01*
X127835649Y-69426416D01*
G37*
G36*
X128335649Y-69426416D02*
G01*
X128348282Y-69430248D01*
X128359934Y-69436476D01*
X128370144Y-69444856D01*
X128378524Y-69455066D01*
X128384752Y-69466718D01*
X128388584Y-69479351D01*
X128390000Y-69493731D01*
X128390000Y-70626269D01*
X128388584Y-70640649D01*
X128384752Y-70653282D01*
X128378524Y-70664934D01*
X128370144Y-70675144D01*
X128359934Y-70683524D01*
X128348282Y-70689752D01*
X128335649Y-70693584D01*
X128321269Y-70695000D01*
X128138731Y-70695000D01*
X128124351Y-70693584D01*
X128111718Y-70689752D01*
X128100066Y-70683524D01*
X128089856Y-70675144D01*
X128081476Y-70664934D01*
X128075248Y-70653282D01*
X128071416Y-70640649D01*
X128070000Y-70626269D01*
X128070000Y-69493731D01*
X128071416Y-69479351D01*
X128075248Y-69466718D01*
X128081476Y-69455066D01*
X128089856Y-69444856D01*
X128100066Y-69436476D01*
X128111718Y-69430248D01*
X128124351Y-69426416D01*
X128138731Y-69425000D01*
X128321269Y-69425000D01*
X128335649Y-69426416D01*
G37*
G36*
X128835649Y-69426416D02*
G01*
X128848282Y-69430248D01*
X128859934Y-69436476D01*
X128870144Y-69444856D01*
X128878524Y-69455066D01*
X128884752Y-69466718D01*
X128888584Y-69479351D01*
X128890000Y-69493731D01*
X128890000Y-70626269D01*
X128888584Y-70640649D01*
X128884752Y-70653282D01*
X128878524Y-70664934D01*
X128870144Y-70675144D01*
X128859934Y-70683524D01*
X128848282Y-70689752D01*
X128835649Y-70693584D01*
X128821269Y-70695000D01*
X128638731Y-70695000D01*
X128624351Y-70693584D01*
X128611718Y-70689752D01*
X128600066Y-70683524D01*
X128589856Y-70675144D01*
X128581476Y-70664934D01*
X128575248Y-70653282D01*
X128571416Y-70640649D01*
X128570000Y-70626269D01*
X128570000Y-69493731D01*
X128571416Y-69479351D01*
X128575248Y-69466718D01*
X128581476Y-69455066D01*
X128589856Y-69444856D01*
X128600066Y-69436476D01*
X128611718Y-69430248D01*
X128624351Y-69426416D01*
X128638731Y-69425000D01*
X128821269Y-69425000D01*
X128835649Y-69426416D01*
G37*
G36*
X129335649Y-69426416D02*
G01*
X129348282Y-69430248D01*
X129359934Y-69436476D01*
X129370144Y-69444856D01*
X129378524Y-69455066D01*
X129384752Y-69466718D01*
X129388584Y-69479351D01*
X129390000Y-69493731D01*
X129390000Y-70626269D01*
X129388584Y-70640649D01*
X129384752Y-70653282D01*
X129378524Y-70664934D01*
X129370144Y-70675144D01*
X129359934Y-70683524D01*
X129348282Y-70689752D01*
X129335649Y-70693584D01*
X129321269Y-70695000D01*
X129138731Y-70695000D01*
X129124351Y-70693584D01*
X129111718Y-70689752D01*
X129100066Y-70683524D01*
X129089856Y-70675144D01*
X129081476Y-70664934D01*
X129075248Y-70653282D01*
X129071416Y-70640649D01*
X129070000Y-70626269D01*
X129070000Y-69493731D01*
X129071416Y-69479351D01*
X129075248Y-69466718D01*
X129081476Y-69455066D01*
X129089856Y-69444856D01*
X129100066Y-69436476D01*
X129111718Y-69430248D01*
X129124351Y-69426416D01*
X129138731Y-69425000D01*
X129321269Y-69425000D01*
X129335649Y-69426416D01*
G37*
G36*
X129835649Y-69426416D02*
G01*
X129848282Y-69430248D01*
X129859934Y-69436476D01*
X129870144Y-69444856D01*
X129878524Y-69455066D01*
X129884752Y-69466718D01*
X129888584Y-69479351D01*
X129890000Y-69493731D01*
X129890000Y-70626269D01*
X129888584Y-70640649D01*
X129884752Y-70653282D01*
X129878524Y-70664934D01*
X129870144Y-70675144D01*
X129859934Y-70683524D01*
X129848282Y-70689752D01*
X129835649Y-70693584D01*
X129821269Y-70695000D01*
X129638731Y-70695000D01*
X129624351Y-70693584D01*
X129611718Y-70689752D01*
X129600066Y-70683524D01*
X129589856Y-70675144D01*
X129581476Y-70664934D01*
X129575248Y-70653282D01*
X129571416Y-70640649D01*
X129570000Y-70626269D01*
X129570000Y-69493731D01*
X129571416Y-69479351D01*
X129575248Y-69466718D01*
X129581476Y-69455066D01*
X129589856Y-69444856D01*
X129600066Y-69436476D01*
X129611718Y-69430248D01*
X129624351Y-69426416D01*
X129638731Y-69425000D01*
X129821269Y-69425000D01*
X129835649Y-69426416D01*
G37*
G36*
X130335649Y-69426416D02*
G01*
X130348282Y-69430248D01*
X130359934Y-69436476D01*
X130370144Y-69444856D01*
X130378524Y-69455066D01*
X130384752Y-69466718D01*
X130388584Y-69479351D01*
X130390000Y-69493731D01*
X130390000Y-70626269D01*
X130388584Y-70640649D01*
X130384752Y-70653282D01*
X130378524Y-70664934D01*
X130370144Y-70675144D01*
X130359934Y-70683524D01*
X130348282Y-70689752D01*
X130335649Y-70693584D01*
X130321269Y-70695000D01*
X130138731Y-70695000D01*
X130124351Y-70693584D01*
X130111718Y-70689752D01*
X130100066Y-70683524D01*
X130089856Y-70675144D01*
X130081476Y-70664934D01*
X130075248Y-70653282D01*
X130071416Y-70640649D01*
X130070000Y-70626269D01*
X130070000Y-69493731D01*
X130071416Y-69479351D01*
X130075248Y-69466718D01*
X130081476Y-69455066D01*
X130089856Y-69444856D01*
X130100066Y-69436476D01*
X130111718Y-69430248D01*
X130124351Y-69426416D01*
X130138731Y-69425000D01*
X130321269Y-69425000D01*
X130335649Y-69426416D01*
G37*
G36*
X130835649Y-69426416D02*
G01*
X130848282Y-69430248D01*
X130859934Y-69436476D01*
X130870144Y-69444856D01*
X130878524Y-69455066D01*
X130884752Y-69466718D01*
X130888584Y-69479351D01*
X130890000Y-69493731D01*
X130890000Y-70626269D01*
X130888584Y-70640649D01*
X130884752Y-70653282D01*
X130878524Y-70664934D01*
X130870144Y-70675144D01*
X130859934Y-70683524D01*
X130848282Y-70689752D01*
X130835649Y-70693584D01*
X130821269Y-70695000D01*
X130638731Y-70695000D01*
X130624351Y-70693584D01*
X130611718Y-70689752D01*
X130600066Y-70683524D01*
X130589856Y-70675144D01*
X130581476Y-70664934D01*
X130575248Y-70653282D01*
X130571416Y-70640649D01*
X130570000Y-70626269D01*
X130570000Y-69493731D01*
X130571416Y-69479351D01*
X130575248Y-69466718D01*
X130581476Y-69455066D01*
X130589856Y-69444856D01*
X130600066Y-69436476D01*
X130611718Y-69430248D01*
X130624351Y-69426416D01*
X130638731Y-69425000D01*
X130821269Y-69425000D01*
X130835649Y-69426416D01*
G37*
G36*
X131335649Y-69426416D02*
G01*
X131348282Y-69430248D01*
X131359934Y-69436476D01*
X131370144Y-69444856D01*
X131378524Y-69455066D01*
X131384752Y-69466718D01*
X131388584Y-69479351D01*
X131390000Y-69493731D01*
X131390000Y-70626269D01*
X131388584Y-70640649D01*
X131384752Y-70653282D01*
X131378524Y-70664934D01*
X131370144Y-70675144D01*
X131359934Y-70683524D01*
X131348282Y-70689752D01*
X131335649Y-70693584D01*
X131321269Y-70695000D01*
X131138731Y-70695000D01*
X131124351Y-70693584D01*
X131111718Y-70689752D01*
X131100066Y-70683524D01*
X131089856Y-70675144D01*
X131081476Y-70664934D01*
X131075248Y-70653282D01*
X131071416Y-70640649D01*
X131070000Y-70626269D01*
X131070000Y-69493731D01*
X131071416Y-69479351D01*
X131075248Y-69466718D01*
X131081476Y-69455066D01*
X131089856Y-69444856D01*
X131100066Y-69436476D01*
X131111718Y-69430248D01*
X131124351Y-69426416D01*
X131138731Y-69425000D01*
X131321269Y-69425000D01*
X131335649Y-69426416D01*
G37*
G36*
X136335649Y-69426416D02*
G01*
X136348282Y-69430248D01*
X136359934Y-69436476D01*
X136370144Y-69444856D01*
X136378524Y-69455066D01*
X136384752Y-69466718D01*
X136388584Y-69479351D01*
X136390000Y-69493731D01*
X136390000Y-70626269D01*
X136388584Y-70640649D01*
X136384752Y-70653282D01*
X136378524Y-70664934D01*
X136370144Y-70675144D01*
X136359934Y-70683524D01*
X136348282Y-70689752D01*
X136335649Y-70693584D01*
X136321269Y-70695000D01*
X136138731Y-70695000D01*
X136124351Y-70693584D01*
X136111718Y-70689752D01*
X136100066Y-70683524D01*
X136089856Y-70675144D01*
X136081476Y-70664934D01*
X136075248Y-70653282D01*
X136071416Y-70640649D01*
X136070000Y-70626269D01*
X136070000Y-69493731D01*
X136071416Y-69479351D01*
X136075248Y-69466718D01*
X136081476Y-69455066D01*
X136089856Y-69444856D01*
X136100066Y-69436476D01*
X136111718Y-69430248D01*
X136124351Y-69426416D01*
X136138731Y-69425000D01*
X136321269Y-69425000D01*
X136335649Y-69426416D01*
G37*
G36*
X144335649Y-69426416D02*
G01*
X144348282Y-69430248D01*
X144359934Y-69436476D01*
X144370144Y-69444856D01*
X144378524Y-69455066D01*
X144384752Y-69466718D01*
X144388584Y-69479351D01*
X144390000Y-69493731D01*
X144390000Y-70626269D01*
X144388584Y-70640649D01*
X144384752Y-70653282D01*
X144378524Y-70664934D01*
X144370144Y-70675144D01*
X144359934Y-70683524D01*
X144348282Y-70689752D01*
X144335649Y-70693584D01*
X144321269Y-70695000D01*
X144138731Y-70695000D01*
X144124351Y-70693584D01*
X144111718Y-70689752D01*
X144100066Y-70683524D01*
X144089856Y-70675144D01*
X144081476Y-70664934D01*
X144075248Y-70653282D01*
X144071416Y-70640649D01*
X144070000Y-70626269D01*
X144070000Y-69493731D01*
X144071416Y-69479351D01*
X144075248Y-69466718D01*
X144081476Y-69455066D01*
X144089856Y-69444856D01*
X144100066Y-69436476D01*
X144111718Y-69430248D01*
X144124351Y-69426416D01*
X144138731Y-69425000D01*
X144321269Y-69425000D01*
X144335649Y-69426416D01*
G37*
G36*
X141335649Y-69426416D02*
G01*
X141348282Y-69430248D01*
X141359934Y-69436476D01*
X141370144Y-69444856D01*
X141378524Y-69455066D01*
X141384752Y-69466718D01*
X141388584Y-69479351D01*
X141390000Y-69493731D01*
X141390000Y-70626269D01*
X141388584Y-70640649D01*
X141384752Y-70653282D01*
X141378524Y-70664934D01*
X141370144Y-70675144D01*
X141359934Y-70683524D01*
X141348282Y-70689752D01*
X141335649Y-70693584D01*
X141321269Y-70695000D01*
X141138731Y-70695000D01*
X141124351Y-70693584D01*
X141111718Y-70689752D01*
X141100066Y-70683524D01*
X141089856Y-70675144D01*
X141081476Y-70664934D01*
X141075248Y-70653282D01*
X141071416Y-70640649D01*
X141070000Y-70626269D01*
X141070000Y-69493731D01*
X141071416Y-69479351D01*
X141075248Y-69466718D01*
X141081476Y-69455066D01*
X141089856Y-69444856D01*
X141100066Y-69436476D01*
X141111718Y-69430248D01*
X141124351Y-69426416D01*
X141138731Y-69425000D01*
X141321269Y-69425000D01*
X141335649Y-69426416D01*
G37*
G36*
X143835649Y-69426416D02*
G01*
X143848282Y-69430248D01*
X143859934Y-69436476D01*
X143870144Y-69444856D01*
X143878524Y-69455066D01*
X143884752Y-69466718D01*
X143888584Y-69479351D01*
X143890000Y-69493731D01*
X143890000Y-70626269D01*
X143888584Y-70640649D01*
X143884752Y-70653282D01*
X143878524Y-70664934D01*
X143870144Y-70675144D01*
X143859934Y-70683524D01*
X143848282Y-70689752D01*
X143835649Y-70693584D01*
X143821269Y-70695000D01*
X143638731Y-70695000D01*
X143624351Y-70693584D01*
X143611718Y-70689752D01*
X143600066Y-70683524D01*
X143589856Y-70675144D01*
X143581476Y-70664934D01*
X143575248Y-70653282D01*
X143571416Y-70640649D01*
X143570000Y-70626269D01*
X143570000Y-69493731D01*
X143571416Y-69479351D01*
X143575248Y-69466718D01*
X143581476Y-69455066D01*
X143589856Y-69444856D01*
X143600066Y-69436476D01*
X143611718Y-69430248D01*
X143624351Y-69426416D01*
X143638731Y-69425000D01*
X143821269Y-69425000D01*
X143835649Y-69426416D01*
G37*
G36*
X144835649Y-69426416D02*
G01*
X144848282Y-69430248D01*
X144859934Y-69436476D01*
X144870144Y-69444856D01*
X144878524Y-69455066D01*
X144884752Y-69466718D01*
X144888584Y-69479351D01*
X144890000Y-69493731D01*
X144890000Y-70626269D01*
X144888584Y-70640649D01*
X144884752Y-70653282D01*
X144878524Y-70664934D01*
X144870144Y-70675144D01*
X144859934Y-70683524D01*
X144848282Y-70689752D01*
X144835649Y-70693584D01*
X144821269Y-70695000D01*
X144638731Y-70695000D01*
X144624351Y-70693584D01*
X144611718Y-70689752D01*
X144600066Y-70683524D01*
X144589856Y-70675144D01*
X144581476Y-70664934D01*
X144575248Y-70653282D01*
X144571416Y-70640649D01*
X144570000Y-70626269D01*
X144570000Y-69493731D01*
X144571416Y-69479351D01*
X144575248Y-69466718D01*
X144581476Y-69455066D01*
X144589856Y-69444856D01*
X144600066Y-69436476D01*
X144611718Y-69430248D01*
X144624351Y-69426416D01*
X144638731Y-69425000D01*
X144821269Y-69425000D01*
X144835649Y-69426416D01*
G37*
G36*
X142835649Y-69426416D02*
G01*
X142848282Y-69430248D01*
X142859934Y-69436476D01*
X142870144Y-69444856D01*
X142878524Y-69455066D01*
X142884752Y-69466718D01*
X142888584Y-69479351D01*
X142890000Y-69493731D01*
X142890000Y-70626269D01*
X142888584Y-70640649D01*
X142884752Y-70653282D01*
X142878524Y-70664934D01*
X142870144Y-70675144D01*
X142859934Y-70683524D01*
X142848282Y-70689752D01*
X142835649Y-70693584D01*
X142821269Y-70695000D01*
X142638731Y-70695000D01*
X142624351Y-70693584D01*
X142611718Y-70689752D01*
X142600066Y-70683524D01*
X142589856Y-70675144D01*
X142581476Y-70664934D01*
X142575248Y-70653282D01*
X142571416Y-70640649D01*
X142570000Y-70626269D01*
X142570000Y-69493731D01*
X142571416Y-69479351D01*
X142575248Y-69466718D01*
X142581476Y-69455066D01*
X142589856Y-69444856D01*
X142600066Y-69436476D01*
X142611718Y-69430248D01*
X142624351Y-69426416D01*
X142638731Y-69425000D01*
X142821269Y-69425000D01*
X142835649Y-69426416D01*
G37*
G36*
X142335649Y-69426416D02*
G01*
X142348282Y-69430248D01*
X142359934Y-69436476D01*
X142370144Y-69444856D01*
X142378524Y-69455066D01*
X142384752Y-69466718D01*
X142388584Y-69479351D01*
X142390000Y-69493731D01*
X142390000Y-70626269D01*
X142388584Y-70640649D01*
X142384752Y-70653282D01*
X142378524Y-70664934D01*
X142370144Y-70675144D01*
X142359934Y-70683524D01*
X142348282Y-70689752D01*
X142335649Y-70693584D01*
X142321269Y-70695000D01*
X142138731Y-70695000D01*
X142124351Y-70693584D01*
X142111718Y-70689752D01*
X142100066Y-70683524D01*
X142089856Y-70675144D01*
X142081476Y-70664934D01*
X142075248Y-70653282D01*
X142071416Y-70640649D01*
X142070000Y-70626269D01*
X142070000Y-69493731D01*
X142071416Y-69479351D01*
X142075248Y-69466718D01*
X142081476Y-69455066D01*
X142089856Y-69444856D01*
X142100066Y-69436476D01*
X142111718Y-69430248D01*
X142124351Y-69426416D01*
X142138731Y-69425000D01*
X142321269Y-69425000D01*
X142335649Y-69426416D01*
G37*
G36*
X136835649Y-69426416D02*
G01*
X136848282Y-69430248D01*
X136859934Y-69436476D01*
X136870144Y-69444856D01*
X136878524Y-69455066D01*
X136884752Y-69466718D01*
X136888584Y-69479351D01*
X136890000Y-69493731D01*
X136890000Y-70626269D01*
X136888584Y-70640649D01*
X136884752Y-70653282D01*
X136878524Y-70664934D01*
X136870144Y-70675144D01*
X136859934Y-70683524D01*
X136848282Y-70689752D01*
X136835649Y-70693584D01*
X136821269Y-70695000D01*
X136638731Y-70695000D01*
X136624351Y-70693584D01*
X136611718Y-70689752D01*
X136600066Y-70683524D01*
X136589856Y-70675144D01*
X136581476Y-70664934D01*
X136575248Y-70653282D01*
X136571416Y-70640649D01*
X136570000Y-70626269D01*
X136570000Y-69493731D01*
X136571416Y-69479351D01*
X136575248Y-69466718D01*
X136581476Y-69455066D01*
X136589856Y-69444856D01*
X136600066Y-69436476D01*
X136611718Y-69430248D01*
X136624351Y-69426416D01*
X136638731Y-69425000D01*
X136821269Y-69425000D01*
X136835649Y-69426416D01*
G37*
G36*
X137335649Y-69426416D02*
G01*
X137348282Y-69430248D01*
X137359934Y-69436476D01*
X137370144Y-69444856D01*
X137378524Y-69455066D01*
X137384752Y-69466718D01*
X137388584Y-69479351D01*
X137390000Y-69493731D01*
X137390000Y-70626269D01*
X137388584Y-70640649D01*
X137384752Y-70653282D01*
X137378524Y-70664934D01*
X137370144Y-70675144D01*
X137359934Y-70683524D01*
X137348282Y-70689752D01*
X137335649Y-70693584D01*
X137321269Y-70695000D01*
X137138731Y-70695000D01*
X137124351Y-70693584D01*
X137111718Y-70689752D01*
X137100066Y-70683524D01*
X137089856Y-70675144D01*
X137081476Y-70664934D01*
X137075248Y-70653282D01*
X137071416Y-70640649D01*
X137070000Y-70626269D01*
X137070000Y-69493731D01*
X137071416Y-69479351D01*
X137075248Y-69466718D01*
X137081476Y-69455066D01*
X137089856Y-69444856D01*
X137100066Y-69436476D01*
X137111718Y-69430248D01*
X137124351Y-69426416D01*
X137138731Y-69425000D01*
X137321269Y-69425000D01*
X137335649Y-69426416D01*
G37*
G36*
X140835649Y-69426416D02*
G01*
X140848282Y-69430248D01*
X140859934Y-69436476D01*
X140870144Y-69444856D01*
X140878524Y-69455066D01*
X140884752Y-69466718D01*
X140888584Y-69479351D01*
X140890000Y-69493731D01*
X140890000Y-70626269D01*
X140888584Y-70640649D01*
X140884752Y-70653282D01*
X140878524Y-70664934D01*
X140870144Y-70675144D01*
X140859934Y-70683524D01*
X140848282Y-70689752D01*
X140835649Y-70693584D01*
X140821269Y-70695000D01*
X140638731Y-70695000D01*
X140624351Y-70693584D01*
X140611718Y-70689752D01*
X140600066Y-70683524D01*
X140589856Y-70675144D01*
X140581476Y-70664934D01*
X140575248Y-70653282D01*
X140571416Y-70640649D01*
X140570000Y-70626269D01*
X140570000Y-69493731D01*
X140571416Y-69479351D01*
X140575248Y-69466718D01*
X140581476Y-69455066D01*
X140589856Y-69444856D01*
X140600066Y-69436476D01*
X140611718Y-69430248D01*
X140624351Y-69426416D01*
X140638731Y-69425000D01*
X140821269Y-69425000D01*
X140835649Y-69426416D01*
G37*
G36*
X126835649Y-69426416D02*
G01*
X126848282Y-69430248D01*
X126859934Y-69436476D01*
X126870144Y-69444856D01*
X126878524Y-69455066D01*
X126884752Y-69466718D01*
X126888584Y-69479351D01*
X126890000Y-69493731D01*
X126890000Y-70626269D01*
X126888584Y-70640649D01*
X126884752Y-70653282D01*
X126878524Y-70664934D01*
X126870144Y-70675144D01*
X126859934Y-70683524D01*
X126848282Y-70689752D01*
X126835649Y-70693584D01*
X126821269Y-70695000D01*
X126638731Y-70695000D01*
X126624351Y-70693584D01*
X126611718Y-70689752D01*
X126600066Y-70683524D01*
X126589856Y-70675144D01*
X126581476Y-70664934D01*
X126575248Y-70653282D01*
X126571416Y-70640649D01*
X126570000Y-70626269D01*
X126570000Y-69493731D01*
X126571416Y-69479351D01*
X126575248Y-69466718D01*
X126581476Y-69455066D01*
X126589856Y-69444856D01*
X126600066Y-69436476D01*
X126611718Y-69430248D01*
X126624351Y-69426416D01*
X126638731Y-69425000D01*
X126821269Y-69425000D01*
X126835649Y-69426416D01*
G37*
G36*
X141835649Y-69426416D02*
G01*
X141848282Y-69430248D01*
X141859934Y-69436476D01*
X141870144Y-69444856D01*
X141878524Y-69455066D01*
X141884752Y-69466718D01*
X141888584Y-69479351D01*
X141890000Y-69493731D01*
X141890000Y-70626269D01*
X141888584Y-70640649D01*
X141884752Y-70653282D01*
X141878524Y-70664934D01*
X141870144Y-70675144D01*
X141859934Y-70683524D01*
X141848282Y-70689752D01*
X141835649Y-70693584D01*
X141821269Y-70695000D01*
X141638731Y-70695000D01*
X141624351Y-70693584D01*
X141611718Y-70689752D01*
X141600066Y-70683524D01*
X141589856Y-70675144D01*
X141581476Y-70664934D01*
X141575248Y-70653282D01*
X141571416Y-70640649D01*
X141570000Y-70626269D01*
X141570000Y-69493731D01*
X141571416Y-69479351D01*
X141575248Y-69466718D01*
X141581476Y-69455066D01*
X141589856Y-69444856D01*
X141600066Y-69436476D01*
X141611718Y-69430248D01*
X141624351Y-69426416D01*
X141638731Y-69425000D01*
X141821269Y-69425000D01*
X141835649Y-69426416D01*
G37*
G36*
X143335649Y-69426416D02*
G01*
X143348282Y-69430248D01*
X143359934Y-69436476D01*
X143370144Y-69444856D01*
X143378524Y-69455066D01*
X143384752Y-69466718D01*
X143388584Y-69479351D01*
X143390000Y-69493731D01*
X143390000Y-70626269D01*
X143388584Y-70640649D01*
X143384752Y-70653282D01*
X143378524Y-70664934D01*
X143370144Y-70675144D01*
X143359934Y-70683524D01*
X143348282Y-70689752D01*
X143335649Y-70693584D01*
X143321269Y-70695000D01*
X143138731Y-70695000D01*
X143124351Y-70693584D01*
X143111718Y-70689752D01*
X143100066Y-70683524D01*
X143089856Y-70675144D01*
X143081476Y-70664934D01*
X143075248Y-70653282D01*
X143071416Y-70640649D01*
X143070000Y-70626269D01*
X143070000Y-69493731D01*
X143071416Y-69479351D01*
X143075248Y-69466718D01*
X143081476Y-69455066D01*
X143089856Y-69444856D01*
X143100066Y-69436476D01*
X143111718Y-69430248D01*
X143124351Y-69426416D01*
X143138731Y-69425000D01*
X143321269Y-69425000D01*
X143335649Y-69426416D01*
G37*
G36*
X133335649Y-69426416D02*
G01*
X133348282Y-69430248D01*
X133359934Y-69436476D01*
X133370144Y-69444856D01*
X133378524Y-69455066D01*
X133384752Y-69466718D01*
X133388584Y-69479351D01*
X133390000Y-69493731D01*
X133390000Y-70626269D01*
X133388584Y-70640649D01*
X133384752Y-70653282D01*
X133378524Y-70664934D01*
X133370144Y-70675144D01*
X133359934Y-70683524D01*
X133348282Y-70689752D01*
X133335649Y-70693584D01*
X133321269Y-70695000D01*
X133138731Y-70695000D01*
X133124351Y-70693584D01*
X133111718Y-70689752D01*
X133100066Y-70683524D01*
X133089856Y-70675144D01*
X133081476Y-70664934D01*
X133075248Y-70653282D01*
X133071416Y-70640649D01*
X133070000Y-70626269D01*
X133070000Y-69493731D01*
X133071416Y-69479351D01*
X133075248Y-69466718D01*
X133081476Y-69455066D01*
X133089856Y-69444856D01*
X133100066Y-69436476D01*
X133111718Y-69430248D01*
X133124351Y-69426416D01*
X133138731Y-69425000D01*
X133321269Y-69425000D01*
X133335649Y-69426416D01*
G37*
G36*
X133835649Y-69426416D02*
G01*
X133848282Y-69430248D01*
X133859934Y-69436476D01*
X133870144Y-69444856D01*
X133878524Y-69455066D01*
X133884752Y-69466718D01*
X133888584Y-69479351D01*
X133890000Y-69493731D01*
X133890000Y-70626269D01*
X133888584Y-70640649D01*
X133884752Y-70653282D01*
X133878524Y-70664934D01*
X133870144Y-70675144D01*
X133859934Y-70683524D01*
X133848282Y-70689752D01*
X133835649Y-70693584D01*
X133821269Y-70695000D01*
X133638731Y-70695000D01*
X133624351Y-70693584D01*
X133611718Y-70689752D01*
X133600066Y-70683524D01*
X133589856Y-70675144D01*
X133581476Y-70664934D01*
X133575248Y-70653282D01*
X133571416Y-70640649D01*
X133570000Y-70626269D01*
X133570000Y-69493731D01*
X133571416Y-69479351D01*
X133575248Y-69466718D01*
X133581476Y-69455066D01*
X133589856Y-69444856D01*
X133600066Y-69436476D01*
X133611718Y-69430248D01*
X133624351Y-69426416D01*
X133638731Y-69425000D01*
X133821269Y-69425000D01*
X133835649Y-69426416D01*
G37*
G36*
X134335649Y-69426416D02*
G01*
X134348282Y-69430248D01*
X134359934Y-69436476D01*
X134370144Y-69444856D01*
X134378524Y-69455066D01*
X134384752Y-69466718D01*
X134388584Y-69479351D01*
X134390000Y-69493731D01*
X134390000Y-70626269D01*
X134388584Y-70640649D01*
X134384752Y-70653282D01*
X134378524Y-70664934D01*
X134370144Y-70675144D01*
X134359934Y-70683524D01*
X134348282Y-70689752D01*
X134335649Y-70693584D01*
X134321269Y-70695000D01*
X134138731Y-70695000D01*
X134124351Y-70693584D01*
X134111718Y-70689752D01*
X134100066Y-70683524D01*
X134089856Y-70675144D01*
X134081476Y-70664934D01*
X134075248Y-70653282D01*
X134071416Y-70640649D01*
X134070000Y-70626269D01*
X134070000Y-69493731D01*
X134071416Y-69479351D01*
X134075248Y-69466718D01*
X134081476Y-69455066D01*
X134089856Y-69444856D01*
X134100066Y-69436476D01*
X134111718Y-69430248D01*
X134124351Y-69426416D01*
X134138731Y-69425000D01*
X134321269Y-69425000D01*
X134335649Y-69426416D01*
G37*
G36*
X134835649Y-69426416D02*
G01*
X134848282Y-69430248D01*
X134859934Y-69436476D01*
X134870144Y-69444856D01*
X134878524Y-69455066D01*
X134884752Y-69466718D01*
X134888584Y-69479351D01*
X134890000Y-69493731D01*
X134890000Y-70626269D01*
X134888584Y-70640649D01*
X134884752Y-70653282D01*
X134878524Y-70664934D01*
X134870144Y-70675144D01*
X134859934Y-70683524D01*
X134848282Y-70689752D01*
X134835649Y-70693584D01*
X134821269Y-70695000D01*
X134638731Y-70695000D01*
X134624351Y-70693584D01*
X134611718Y-70689752D01*
X134600066Y-70683524D01*
X134589856Y-70675144D01*
X134581476Y-70664934D01*
X134575248Y-70653282D01*
X134571416Y-70640649D01*
X134570000Y-70626269D01*
X134570000Y-69493731D01*
X134571416Y-69479351D01*
X134575248Y-69466718D01*
X134581476Y-69455066D01*
X134589856Y-69444856D01*
X134600066Y-69436476D01*
X134611718Y-69430248D01*
X134624351Y-69426416D01*
X134638731Y-69425000D01*
X134821269Y-69425000D01*
X134835649Y-69426416D01*
G37*
G36*
X135335649Y-69426416D02*
G01*
X135348282Y-69430248D01*
X135359934Y-69436476D01*
X135370144Y-69444856D01*
X135378524Y-69455066D01*
X135384752Y-69466718D01*
X135388584Y-69479351D01*
X135390000Y-69493731D01*
X135390000Y-70626269D01*
X135388584Y-70640649D01*
X135384752Y-70653282D01*
X135378524Y-70664934D01*
X135370144Y-70675144D01*
X135359934Y-70683524D01*
X135348282Y-70689752D01*
X135335649Y-70693584D01*
X135321269Y-70695000D01*
X135138731Y-70695000D01*
X135124351Y-70693584D01*
X135111718Y-70689752D01*
X135100066Y-70683524D01*
X135089856Y-70675144D01*
X135081476Y-70664934D01*
X135075248Y-70653282D01*
X135071416Y-70640649D01*
X135070000Y-70626269D01*
X135070000Y-69493731D01*
X135071416Y-69479351D01*
X135075248Y-69466718D01*
X135081476Y-69455066D01*
X135089856Y-69444856D01*
X135100066Y-69436476D01*
X135111718Y-69430248D01*
X135124351Y-69426416D01*
X135138731Y-69425000D01*
X135321269Y-69425000D01*
X135335649Y-69426416D01*
G37*
G36*
X135835649Y-69426416D02*
G01*
X135848282Y-69430248D01*
X135859934Y-69436476D01*
X135870144Y-69444856D01*
X135878524Y-69455066D01*
X135884752Y-69466718D01*
X135888584Y-69479351D01*
X135890000Y-69493731D01*
X135890000Y-70626269D01*
X135888584Y-70640649D01*
X135884752Y-70653282D01*
X135878524Y-70664934D01*
X135870144Y-70675144D01*
X135859934Y-70683524D01*
X135848282Y-70689752D01*
X135835649Y-70693584D01*
X135821269Y-70695000D01*
X135638731Y-70695000D01*
X135624351Y-70693584D01*
X135611718Y-70689752D01*
X135600066Y-70683524D01*
X135589856Y-70675144D01*
X135581476Y-70664934D01*
X135575248Y-70653282D01*
X135571416Y-70640649D01*
X135570000Y-70626269D01*
X135570000Y-69493731D01*
X135571416Y-69479351D01*
X135575248Y-69466718D01*
X135581476Y-69455066D01*
X135589856Y-69444856D01*
X135600066Y-69436476D01*
X135611718Y-69430248D01*
X135624351Y-69426416D01*
X135638731Y-69425000D01*
X135821269Y-69425000D01*
X135835649Y-69426416D01*
G37*
G36*
X132835649Y-69426416D02*
G01*
X132848282Y-69430248D01*
X132859934Y-69436476D01*
X132870144Y-69444856D01*
X132878524Y-69455066D01*
X132884752Y-69466718D01*
X132888584Y-69479351D01*
X132890000Y-69493731D01*
X132890000Y-70626269D01*
X132888584Y-70640649D01*
X132884752Y-70653282D01*
X132878524Y-70664934D01*
X132870144Y-70675144D01*
X132859934Y-70683524D01*
X132848282Y-70689752D01*
X132835649Y-70693584D01*
X132821269Y-70695000D01*
X132638731Y-70695000D01*
X132624351Y-70693584D01*
X132611718Y-70689752D01*
X132600066Y-70683524D01*
X132589856Y-70675144D01*
X132581476Y-70664934D01*
X132575248Y-70653282D01*
X132571416Y-70640649D01*
X132570000Y-70626269D01*
X132570000Y-69493731D01*
X132571416Y-69479351D01*
X132575248Y-69466718D01*
X132581476Y-69455066D01*
X132589856Y-69444856D01*
X132600066Y-69436476D01*
X132611718Y-69430248D01*
X132624351Y-69426416D01*
X132638731Y-69425000D01*
X132821269Y-69425000D01*
X132835649Y-69426416D01*
G37*
G36*
X147054895Y-66892177D02*
G01*
X147172592Y-66927879D01*
X147281054Y-66985854D01*
X147376124Y-67063876D01*
X147454146Y-67158946D01*
X147512121Y-67267408D01*
X147547823Y-67385105D01*
X147560000Y-67508732D01*
X147560000Y-68811268D01*
X147547823Y-68934895D01*
X147512121Y-69052592D01*
X147454146Y-69161054D01*
X147376124Y-69256124D01*
X147281054Y-69334146D01*
X147172592Y-69392121D01*
X147054895Y-69427823D01*
X146931268Y-69440000D01*
X145628732Y-69440000D01*
X145505105Y-69427823D01*
X145387408Y-69392121D01*
X145278946Y-69334146D01*
X145183876Y-69256124D01*
X145105854Y-69161054D01*
X145047879Y-69052592D01*
X145012177Y-68934895D01*
X145000000Y-68811268D01*
X145000000Y-67508732D01*
X145012177Y-67385105D01*
X145047879Y-67267408D01*
X145105854Y-67158946D01*
X145183876Y-67063876D01*
X145278946Y-66985854D01*
X145387408Y-66927879D01*
X145505105Y-66892177D01*
X145628732Y-66880000D01*
X146931268Y-66880000D01*
X147054895Y-66892177D01*
G37*
G36*
X124454895Y-66892177D02*
G01*
X124572592Y-66927879D01*
X124681054Y-66985854D01*
X124776124Y-67063876D01*
X124854146Y-67158946D01*
X124912121Y-67267408D01*
X124947823Y-67385105D01*
X124960000Y-67508732D01*
X124960000Y-68811268D01*
X124947823Y-68934895D01*
X124912121Y-69052592D01*
X124854146Y-69161054D01*
X124776124Y-69256124D01*
X124681054Y-69334146D01*
X124572592Y-69392121D01*
X124454895Y-69427823D01*
X124331268Y-69440000D01*
X123028732Y-69440000D01*
X122905105Y-69427823D01*
X122787408Y-69392121D01*
X122678946Y-69334146D01*
X122583876Y-69256124D01*
X122505854Y-69161054D01*
X122447879Y-69052592D01*
X122412177Y-68934895D01*
X122400000Y-68811268D01*
X122400000Y-67508732D01*
X122412177Y-67385105D01*
X122447879Y-67267408D01*
X122505854Y-67158946D01*
X122583876Y-67063876D01*
X122678946Y-66985854D01*
X122787408Y-66927879D01*
X122905105Y-66892177D01*
X123028732Y-66880000D01*
X124331268Y-66880000D01*
X124454895Y-66892177D01*
G37*
G36*
X111655000Y-68230000D02*
G01*
X108515000Y-68230000D01*
X108515000Y-66090000D01*
X111655000Y-66090000D01*
X111655000Y-68230000D01*
G37*
G36*
X119275000Y-68230000D02*
G01*
X116135000Y-68230000D01*
X116135000Y-66090000D01*
X119275000Y-66090000D01*
X119275000Y-68230000D01*
G37*
M02*
